<svg class="typst-doc" viewBox="0 0 81.37007874015748 81.37007874015748" width="81.37007874015748pt" height="81.37007874015748pt" xmlns="http://www.w3.org/2000/svg" xmlns:xlink="http://www.w3.org/1999/xlink" xmlns:h5="http://www.w3.org/1999/xhtml">
    <g>
        <g class="typst-group" transform="matrix(1 0 0 1 1 1)">
            <g>
                <path class="typst-shape" fill="#ffffff" fill-rule="nonzero" stroke="#aac4e9" stroke-width="2" stroke-linecap="butt" stroke-linejoin="miter" stroke-miterlimit="4" d="M 0 0m 39.68504 0 c -21.89757 0 -39.68504 17.78747 -39.68504 39.68504 c 0 21.897568 17.78747 39.68504 39.68504 39.68504 c 21.897568 0 39.68504 -17.787472 39.68504 -39.68504 c 0 -21.89757 -17.787472 -39.68504 -39.68504 -39.68504 Z "/>
                <path class="typst-shape" fill="#ffffff" fill-rule="nonzero" stroke="#1e1e1e" stroke-width="1.6" stroke-linecap="round" stroke-linejoin="round" stroke-miterlimit="4" transform="matrix(1 0 0 1 34.01574803149607 20.409448818897634)" d="M 0 0c 15.590551 0 26.929134 6.5196853 29.763779 19.27559 c -2.8346443 12.755907 -14.173227 19.27559 -29.763779 19.27559 c 8.503937 -10.204725 8.503937 -28.346458 0 -38.55118 Z "/>
                <path class="typst-shape" fill="none" stroke="#464646" stroke-width="1.1" stroke-linecap="round" stroke-linejoin="miter" stroke-miterlimit="4" transform="matrix(1 0 0 1 20.69291338582677 26.929133858267715)" d="M 0 0h 17.858267 "/>
                <path class="typst-shape" fill="#42678e" fill-rule="nonzero" stroke="#324d6a" stroke-width="0.7" stroke-linecap="butt" stroke-linejoin="miter" stroke-miterlimit="4" transform="matrix(1 0 0 1 10.488188976377948 21.826771653543304)" d="M 0 0m 5.102362 0 c -2.8154018 0 -5.102362 2.2869604 -5.102362 5.102362 c 0 2.815402 2.2869604 5.102362 5.102362 5.102362 c 2.815402 0 5.102362 -2.2869601 5.102362 -5.102362 c 0 -2.8154018 -2.2869601 -5.102362 -5.102362 -5.102362 Z "/>
                <path class="typst-shape" fill="none" stroke="#464646" stroke-width="1.1" stroke-linecap="round" stroke-linejoin="miter" stroke-miterlimit="4" transform="matrix(1 0 0 1 20.69291338582677 39.68503937007874)" d="M 0 0h 17.858267 "/>
                <path class="typst-shape" fill="#4e79a7" fill-rule="nonzero" stroke="#3b5b7d" stroke-width="0.7" stroke-linecap="butt" stroke-linejoin="miter" stroke-miterlimit="4" transform="matrix(1 0 0 1 10.488188976377948 34.58267716535433)" d="M 0 0m 5.102362 0 c -2.8154018 0 -5.102362 2.2869604 -5.102362 5.102362 c 0 2.815402 2.2869604 5.102362 5.102362 5.102362 c 2.815402 0 5.102362 -2.2869601 5.102362 -5.102362 c 0 -2.8154018 -2.2869601 -5.102362 -5.102362 -5.102362 Z "/>
                <path class="typst-shape" fill="none" stroke="#464646" stroke-width="1.1" stroke-linecap="round" stroke-linejoin="miter" stroke-miterlimit="4" transform="matrix(1 0 0 1 20.69291338582677 52.440944881889756)" d="M 0 0h 17.858267 "/>
                <path class="typst-shape" fill="#9eb5cf" fill-rule="nonzero" stroke="#76889b" stroke-width="0.7" stroke-linecap="butt" stroke-linejoin="miter" stroke-miterlimit="4" transform="matrix(1 0 0 1 10.488188976377948 47.338582677165356)" d="M 0 0m 5.102362 0 c -2.8154018 0 -5.102362 2.2869604 -5.102362 5.102362 c 0 2.815402 2.2869604 5.102362 5.102362 5.102362 c 2.815402 0 5.102362 -2.2869601 5.102362 -5.102362 c 0 -2.8154018 -2.2869601 -5.102362 -5.102362 -5.102362 Z "/>
                <path class="typst-shape" fill="none" stroke="#464646" stroke-width="1.1" stroke-linecap="round" stroke-linejoin="miter" stroke-miterlimit="4" transform="matrix(1 0 0 1 63.77952755905512 39.68503937007874)" d="M 0 0h 8.503937 "/>
                <path class="typst-shape" fill="#1e1e1e" fill-rule="nonzero" transform="matrix(1 0 0 1 69.44881889763778 36.85039370078739)" d="M 0 0m 2.8346457 0 c -1.5641122 0 -2.8346457 1.2705336 -2.8346457 2.8346457 c 0 1.5641122 1.2705336 2.8346457 2.8346457 2.8346457 c 1.5641122 0 2.8346457 -1.2705336 2.8346457 -2.8346457 c 0 -1.5641122 -1.2705336 -2.8346457 -2.8346457 -2.8346457 Z "/>
            </g>
        </g>
    </g>
</svg>
