<svg class="typst-doc" viewBox="0 0 81.37007874015748 81.37007874015748" width="81.37007874015748pt" height="81.37007874015748pt" xmlns="http://www.w3.org/2000/svg" xmlns:xlink="http://www.w3.org/1999/xlink" xmlns:h5="http://www.w3.org/1999/xhtml">
    <g>
        <g class="typst-group" transform="matrix(1 0 0 1 1 1)">
            <g>
                <path class="typst-shape" fill="#ffffff" fill-rule="nonzero" stroke="#aac4e9" stroke-width="2" stroke-linecap="butt" stroke-linejoin="miter" stroke-miterlimit="4" d="M 0 0m 39.68504 0 c -21.89757 0 -39.68504 17.78747 -39.68504 39.68504 c 0 21.897568 17.78747 39.68504 39.68504 39.68504 c 21.897568 0 39.68504 -17.787472 39.68504 -39.68504 c 0 -21.89757 -17.787472 -39.68504 -39.68504 -39.68504 Z "/>
                <path class="typst-shape" fill="#59a14f" fill-rule="nonzero" stroke="#43793b" stroke-width="0.6" stroke-linecap="butt" stroke-linejoin="miter" stroke-miterlimit="4" transform="matrix(1 0 0 1 16.440944881889763 13.606299212598426)" d="M 0 0m 6.2362204 0 c -3.4410465 0 -6.2362204 2.795174 -6.2362204 6.2362204 c 0 3.4410467 2.795174 6.2362204 6.2362204 6.2362204 c 3.4410467 0 6.2362204 -2.7951736 6.2362204 -6.2362204 c 0 -3.4410465 -2.7951736 -6.2362204 -6.2362204 -6.2362204 Z "/>
                <path class="typst-shape" fill="#e42f29" fill-rule="nonzero" stroke="#ab231f" stroke-width="0.6" stroke-linecap="butt" stroke-linejoin="miter" stroke-miterlimit="4" transform="matrix(1 0 0 1 33.44881889763779 13.606299212598426)" d="M 0 0m 6.2362204 0 c -3.4410465 0 -6.2362204 2.795174 -6.2362204 6.2362204 c 0 3.4410467 2.795174 6.2362204 6.2362204 6.2362204 c 3.4410467 0 6.2362204 -2.7951736 6.2362204 -6.2362204 c 0 -3.4410465 -2.7951736 -6.2362204 -6.2362204 -6.2362204 Z "/>
                <path class="typst-shape" fill="none" stroke="#1e1e1e" stroke-width="1.8" stroke-linecap="round" stroke-linejoin="miter" stroke-miterlimit="4" transform="matrix(1 0 0 1 34.69606299212598 9.921259842519687)" d="M 0 0h 9.977953 "/>
                <path class="typst-shape" fill="#4e79a7" fill-rule="nonzero" stroke="#3b5b7d" stroke-width="0.6" stroke-linecap="butt" stroke-linejoin="miter" stroke-miterlimit="4" transform="matrix(1 0 0 1 50.45669291338582 13.606299212598426)" d="M 0 0m 6.2362204 0 c -3.4410465 0 -6.2362204 2.795174 -6.2362204 6.2362204 c 0 3.4410467 2.795174 6.2362204 6.2362204 6.2362204 c 3.4410467 0 6.2362204 -2.7951736 6.2362204 -6.2362204 c 0 -3.4410465 -2.7951736 -6.2362204 -6.2362204 -6.2362204 Z "/>
                <path class="typst-shape" fill="#59a14f" fill-rule="nonzero" stroke="#43793b" stroke-width="0.6" stroke-linecap="butt" stroke-linejoin="miter" stroke-miterlimit="4" transform="matrix(1 0 0 1 16.440944881889763 33.44881889763779)" d="M 0 0m 6.2362204 0 c -3.4410465 0 -6.2362204 2.795174 -6.2362204 6.2362204 c 0 3.4410467 2.795174 6.2362204 6.2362204 6.2362204 c 3.4410467 0 6.2362204 -2.7951736 6.2362204 -6.2362204 c 0 -3.4410465 -2.7951736 -6.2362204 -6.2362204 -6.2362204 Z "/>
                <path class="typst-shape" fill="none" stroke="#1e1e1e" stroke-width="1.8" stroke-linecap="round" stroke-linejoin="miter" stroke-miterlimit="4" transform="matrix(1 0 0 1 17.68818897637795 29.763779527559052)" d="M 0 0h 9.977953 "/>
                <path class="typst-shape" fill="#e42f29" fill-rule="nonzero" stroke="#ab231f" stroke-width="0.6" stroke-linecap="butt" stroke-linejoin="miter" stroke-miterlimit="4" transform="matrix(1 0 0 1 33.44881889763779 33.44881889763779)" d="M 0 0m 6.2362204 0 c -3.4410465 0 -6.2362204 2.795174 -6.2362204 6.2362204 c 0 3.4410467 2.795174 6.2362204 6.2362204 6.2362204 c 3.4410467 0 6.2362204 -2.7951736 6.2362204 -6.2362204 c 0 -3.4410465 -2.7951736 -6.2362204 -6.2362204 -6.2362204 Z "/>
                <path class="typst-shape" fill="#4e79a7" fill-rule="nonzero" stroke="#3b5b7d" stroke-width="0.6" stroke-linecap="butt" stroke-linejoin="miter" stroke-miterlimit="4" transform="matrix(1 0 0 1 50.45669291338582 33.44881889763779)" d="M 0 0m 6.2362204 0 c -3.4410465 0 -6.2362204 2.795174 -6.2362204 6.2362204 c 0 3.4410467 2.795174 6.2362204 6.2362204 6.2362204 c 3.4410467 0 6.2362204 -2.7951736 6.2362204 -6.2362204 c 0 -3.4410465 -2.7951736 -6.2362204 -6.2362204 -6.2362204 Z "/>
                <path class="typst-shape" fill="none" stroke="#1e1e1e" stroke-width="1.8" stroke-linecap="round" stroke-linejoin="miter" stroke-miterlimit="4" transform="matrix(1 0 0 1 51.70393700787401 29.763779527559052)" d="M 0 0h 9.977953 "/>
                <path class="typst-shape" fill="#e42f29" fill-rule="nonzero" stroke="#ab231f" stroke-width="0.6" stroke-linecap="butt" stroke-linejoin="miter" stroke-miterlimit="4" transform="matrix(1 0 0 1 16.440944881889763 53.29133858267716)" d="M 0 0m 6.2362204 0 c -3.4410465 0 -6.2362204 2.795174 -6.2362204 6.2362204 c 0 3.4410467 2.795174 6.2362204 6.2362204 6.2362204 c 3.4410467 0 6.2362204 -2.7951736 6.2362204 -6.2362204 c 0 -3.4410465 -2.7951736 -6.2362204 -6.2362204 -6.2362204 Z "/>
                <path class="typst-shape" fill="none" stroke="#1e1e1e" stroke-width="1.8" stroke-linecap="round" stroke-linejoin="miter" stroke-miterlimit="4" transform="matrix(1 0 0 1 17.68818897637795 49.60629921259842)" d="M 0 0h 9.977953 "/>
                <path class="typst-shape" fill="#4e79a7" fill-rule="nonzero" stroke="#3b5b7d" stroke-width="0.6" stroke-linecap="butt" stroke-linejoin="miter" stroke-miterlimit="4" transform="matrix(1 0 0 1 33.44881889763779 53.29133858267716)" d="M 0 0m 6.2362204 0 c -3.4410465 0 -6.2362204 2.795174 -6.2362204 6.2362204 c 0 3.4410467 2.795174 6.2362204 6.2362204 6.2362204 c 3.4410467 0 6.2362204 -2.7951736 6.2362204 -6.2362204 c 0 -3.4410465 -2.7951736 -6.2362204 -6.2362204 -6.2362204 Z "/>
                <path class="typst-shape" fill="#59a14f" fill-rule="nonzero" stroke="#43793b" stroke-width="0.6" stroke-linecap="butt" stroke-linejoin="miter" stroke-miterlimit="4" transform="matrix(1 0 0 1 50.45669291338582 53.29133858267716)" d="M 0 0m 6.2362204 0 c -3.4410465 0 -6.2362204 2.795174 -6.2362204 6.2362204 c 0 3.4410467 2.795174 6.2362204 6.2362204 6.2362204 c 3.4410467 0 6.2362204 -2.7951736 6.2362204 -6.2362204 c 0 -3.4410465 -2.7951736 -6.2362204 -6.2362204 -6.2362204 Z "/>
                <path class="typst-shape" fill="none" stroke="#1e1e1e" stroke-width="1.8" stroke-linecap="round" stroke-linejoin="miter" stroke-miterlimit="4" transform="matrix(1 0 0 1 51.70393700787401 49.60629921259842)" d="M 0 0h 9.977953 "/>
            </g>
        </g>
    </g>
</svg>
