<svg class="typst-doc" viewBox="0 0 81.37007874015748 81.37007874015748" width="81.37007874015748pt" height="81.37007874015748pt" xmlns="http://www.w3.org/2000/svg" xmlns:xlink="http://www.w3.org/1999/xlink" xmlns:h5="http://www.w3.org/1999/xhtml">
    <g>
        <g class="typst-group" transform="matrix(1 0 0 1 1 1)">
            <g>
                <path class="typst-shape" fill="#f6f9fe" fill-rule="nonzero" stroke="#aac4e9" stroke-width="1" stroke-linecap="butt" stroke-linejoin="miter" stroke-miterlimit="4" d="M 0 0m 39.68504 0 c -21.89757 0 -39.68504 17.78747 -39.68504 39.68504 c 0 21.897568 17.78747 39.68504 39.68504 39.68504 c 21.897568 0 39.68504 -17.787472 39.68504 -39.68504 c 0 -21.89757 -17.787472 -39.68504 -39.68504 -39.68504 Z "/>
                <path class="typst-shape" fill="none" transform="matrix(1 0 0 1 12.592754213828737 21.886322742372045)" d="M 0 0h 54.18457 v 7.2509766 h -54.18457 v -7.2509766 Z "/>
                <g class="typst-group">
                    <g>
                        <g class="typst-group" transform="matrix(1 0 0 1 12.592754078740157 21.88632274015748)">
                            <g>
                                <g class="typst-text" transform="matrix(1 0 0 -1 0 5.6982421875)">
                                    <use xlink:href="#gBF29C173088C5E67B7916EAB3FD3CC24" x="0" y="0" fill="#000000" fill-rule="nonzero"/>
                                </g>
                                <g class="typst-text" transform="matrix(1 0 0 -1 4.515380859375 5.6982421875)">
                                    <use xlink:href="#g16E2523FF428E28E51F413647480892F" x="0" y="0" fill="#59a14f" fill-rule="nonzero"/>
                                </g>
                                <g class="typst-text" transform="matrix(1 0 0 -1 9.03076171875 5.6982421875)">
                                    <use xlink:href="#gB720C6EF7F13E44FDE4CAFE038D56A79" x="4.515380859375" y="0" fill="#000000" fill-rule="nonzero"/>
                                    <use xlink:href="#g8B4FBC301373B6A197A1296C0803F231" x="13.546142578125" y="0" fill="#000000" fill-rule="nonzero"/>
                                </g>
                                <g class="typst-text" transform="matrix(1 0 0 -1 27.09228515625 5.6982421875)">
                                    <use xlink:href="#g8D652407DF0CD45FB6370C82B456890F" x="0" y="0" fill="#ff4136" fill-rule="nonzero"/>
                                </g>
                                <g class="typst-text" transform="matrix(1 0 0 -1 31.607666015625 5.6982421875)">
                                    <use xlink:href="#gB720C6EF7F13E44FDE4CAFE038D56A79" x="4.515380859375" y="0" fill="#000000" fill-rule="nonzero"/>
                                </g>
                                <g class="typst-text" transform="matrix(1 0 0 -1 45.15380859375 5.6982421875)">
                                    <use xlink:href="#gA3E9521AC9886615A49B0EADB0EC548B" x="0" y="0" fill="#0074d9" fill-rule="nonzero"/>
                                </g>
                                <g class="typst-text" transform="matrix(1 0 0 -1 49.669189453125 5.6982421875)">
                                    <use xlink:href="#gA91435259657CBEF0B93C371DD348D62" x="0" y="0" fill="#000000" fill-rule="nonzero"/>
                                </g>
                            </g>
                        </g>
                    </g>
                </g>
                <path class="typst-shape" fill="none" transform="matrix(1 0 0 1 10.335063784141235 36.05955108882874)" d="M 0 0h 58.69995 v 7.2509766 h -58.69995 v -7.2509766 Z "/>
                <g class="typst-group">
                    <g>
                        <g class="typst-group" transform="matrix(1 0 0 1 10.335063685039371 36.05955108661417)">
                            <g>
                                <g class="typst-text" transform="matrix(1 0 0 -1 0 5.6982421875)">
                                    <use xlink:href="#gBF29C173088C5E67B7916EAB3FD3CC24" x="0" y="0" fill="#000000" fill-rule="nonzero"/>
                                    <use xlink:href="#g8B4FBC301373B6A197A1296C0803F231" x="4.515380859375" y="0" fill="#000000" fill-rule="nonzero"/>
                                </g>
                                <g class="typst-text" transform="matrix(1 0 0 -1 9.03076171875 5.6982421875)">
                                    <use xlink:href="#g16E2523FF428E28E51F413647480892F" x="0" y="0" fill="#59a14f" fill-rule="nonzero"/>
                                </g>
                                <g class="typst-text" transform="matrix(1 0 0 -1 13.546142578125 5.6982421875)">
                                    <use xlink:href="#gB720C6EF7F13E44FDE4CAFE038D56A79" x="4.515380859375" y="0" fill="#000000" fill-rule="nonzero"/>
                                </g>
                                <g class="typst-text" transform="matrix(1 0 0 -1 27.09228515625 5.6982421875)">
                                    <use xlink:href="#g8D652407DF0CD45FB6370C82B456890F" x="0" y="0" fill="#ff4136" fill-rule="nonzero"/>
                                </g>
                                <g class="typst-text" transform="matrix(1 0 0 -1 31.607666015625 5.6982421875)">
                                    <use xlink:href="#gB720C6EF7F13E44FDE4CAFE038D56A79" x="4.515380859375" y="0" fill="#000000" fill-rule="nonzero"/>
                                    <use xlink:href="#g8B4FBC301373B6A197A1296C0803F231" x="13.546142578125" y="0" fill="#000000" fill-rule="nonzero"/>
                                </g>
                                <g class="typst-text" transform="matrix(1 0 0 -1 49.669189453125 5.6982421875)">
                                    <use xlink:href="#gA3E9521AC9886615A49B0EADB0EC548B" x="0" y="0" fill="#0074d9" fill-rule="nonzero"/>
                                </g>
                                <g class="typst-text" transform="matrix(1 0 0 -1 54.1845703125 5.6982421875)">
                                    <use xlink:href="#gA91435259657CBEF0B93C371DD348D62" x="0" y="0" fill="#000000" fill-rule="nonzero"/>
                                </g>
                            </g>
                        </g>
                    </g>
                </g>
                <path class="typst-shape" fill="none" transform="matrix(1 0 0 1 10.335063784141235 50.23277943528543)" d="M 0 0h 58.69995 v 7.2509766 h -58.69995 v -7.2509766 Z "/>
                <g class="typst-group">
                    <g>
                        <g class="typst-group" transform="matrix(1 0 0 1 10.335063685039371 50.23277943307087)">
                            <g>
                                <g class="typst-text" transform="matrix(1 0 0 -1 0 5.6982421875)">
                                    <use xlink:href="#gBF29C173088C5E67B7916EAB3FD3CC24" x="0" y="0" fill="#000000" fill-rule="nonzero"/>
                                    <use xlink:href="#g8B4FBC301373B6A197A1296C0803F231" x="4.515380859375" y="0" fill="#000000" fill-rule="nonzero"/>
                                </g>
                                <g class="typst-text" transform="matrix(1 0 0 -1 9.03076171875 5.6982421875)">
                                    <use xlink:href="#g8D652407DF0CD45FB6370C82B456890F" x="0" y="0" fill="#ff4136" fill-rule="nonzero"/>
                                </g>
                                <g class="typst-text" transform="matrix(1 0 0 -1 13.546142578125 5.6982421875)">
                                    <use xlink:href="#gB720C6EF7F13E44FDE4CAFE038D56A79" x="4.515380859375" y="0" fill="#000000" fill-rule="nonzero"/>
                                </g>
                                <g class="typst-text" transform="matrix(1 0 0 -1 27.09228515625 5.6982421875)">
                                    <use xlink:href="#gA3E9521AC9886615A49B0EADB0EC548B" x="0" y="0" fill="#0074d9" fill-rule="nonzero"/>
                                </g>
                                <g class="typst-text" transform="matrix(1 0 0 -1 31.607666015625 5.6982421875)">
                                    <use xlink:href="#gB720C6EF7F13E44FDE4CAFE038D56A79" x="4.515380859375" y="0" fill="#000000" fill-rule="nonzero"/>
                                    <use xlink:href="#g8B4FBC301373B6A197A1296C0803F231" x="13.546142578125" y="0" fill="#000000" fill-rule="nonzero"/>
                                </g>
                                <g class="typst-text" transform="matrix(1 0 0 -1 49.669189453125 5.6982421875)">
                                    <use xlink:href="#g16E2523FF428E28E51F413647480892F" x="0" y="0" fill="#59a14f" fill-rule="nonzero"/>
                                </g>
                                <g class="typst-text" transform="matrix(1 0 0 -1 54.1845703125 5.6982421875)">
                                    <use xlink:href="#gA91435259657CBEF0B93C371DD348D62" x="0" y="0" fill="#000000" fill-rule="nonzero"/>
                                </g>
                            </g>
                        </g>
                    </g>
                </g>
            </g>
        </g>
    </g>
    <defs id="glyph">
        <symbol id="gBF29C173088C5E67B7916EAB3FD3CC24" overflow="visible">
            <path d="M 0 0m 3.383789 5.690918 q -0.48339844 -0.87524414 -0.71777344 -1.6955566 q -0.234375 -0.8203125 -0.234375 -1.640625 q 0 -0.8129883 0.234375 -1.638794 q 0.234375 -0.82580566 0.71777344 -1.7047119 h -0.83496094 q -0.5822754 0.84594727 -0.8642578 1.6680908 q -0.28198242 0.82214355 -0.28198242 1.675415 q 0 0.8496094 0.28381348 1.675415 q 0.28381348 0.82580566 0.86242676 1.6607666 h 0.83496094 Z "/>
        </symbol>
        <symbol id="g16E2523FF428E28E51F413647480892F" overflow="visible">
            <path d="M 0 0m 4.193115 4.1015625 l -1.3806152 -1.9628906 l 1.5014648 -2.1386719 h -1.2524414 l -0.80566406 1.3806152 l -0.80200195 -1.3806152 h -1.2524414 l 1.5161133 2.1386719 l -1.3952637 1.9628906 h 1.2524414 l 0.68115234 -1.2231445 l 0.68481445 1.2231445 h 1.2524414 Z "/>
        </symbol>
        <symbol id="gB720C6EF7F13E44FDE4CAFE038D56A79" overflow="visible">
            <path d="M 0 0m 3.8452148 4.3432617 l -0.9265137 -4.3432617 h -1.3220215 l -0.9301758 4.3432617 h 1.0913086 l 0.49804688 -3.2006836 l 0.49804688 3.2006836 h 1.0913086 Z "/>
        </symbol>
        <symbol id="g8B4FBC301373B6A197A1296C0803F231" overflow="visible">
            <path d="M 0 0m 0.32226563 3.2922363 h 3.8708496 v -1.9665527 h -0.87158203 v 1.0986328 h -2.9992676 v 0.8679199 Z "/>
        </symbol>
        <symbol id="g8D652407DF0CD45FB6370C82B456890F" overflow="visible">
            <path d="M 0 0m 2.6037598 -0.44311523 q -0.21606445 -0.5786133 -0.5181885 -0.8441162 q -0.30212402 -0.26550293 -0.7342529 -0.26550293 h -0.88623047 v 0.8166504 h 0.43579102 q 0.32958984 0 0.48339844 0.111694336 q 0.1538086 0.111694336 0.3112793 0.5181885 l 0.080566406 0.21972656 l -1.5600586 3.988037 h 1.1279297 l 0.9375 -2.6623535 l 0.8972168 2.6623535 h 1.1279297 l -1.7028809 -4.5446777 Z "/>
        </symbol>
        <symbol id="gA3E9521AC9886615A49B0EADB0EC548B" overflow="visible">
            <path d="M 0 0m 0.68115234 4.1015625 h 3.277588 v -0.83862305 l -2.1569824 -2.4609375 h 2.1569824 v -0.80200195 h -3.3654785 v 0.83862305 l 2.1606445 2.4609375 h -2.072754 v 0.80200195 Z "/>
        </symbol>
        <symbol id="gA91435259657CBEF0B93C371DD348D62" overflow="visible">
            <path d="M 0 0m 1.1315918 5.690918 h 0.83496094 q 0.5786133 -0.83496094 0.86242676 -1.6607666 q 0.28381348 -0.82580566 0.28381348 -1.675415 q 0 -0.8532715 -0.28198242 -1.675415 q -0.28198242 -0.82214355 -0.8642578 -1.6680908 h -0.83496094 q 0.48339844 0.87890625 0.71777344 1.7047119 q 0.234375 0.82580566 0.234375 1.638794 q 0 0.8203125 -0.234375 1.640625 q -0.234375 0.8203125 -0.71777344 1.6955566 Z "/>
        </symbol>
    </defs>
</svg>
