<svg class="typst-doc" viewBox="0 0 40.28346456692913 43.96850393700788" width="40.28346456692913pt" height="43.96850393700788pt" xmlns="http://www.w3.org/2000/svg" xmlns:xlink="http://www.w3.org/1999/xlink" xmlns:h5="http://www.w3.org/1999/xhtml">
    <g>
        <g class="typst-group" transform="matrix(1 0 0 1 2 2)">
            <g>
                <path class="typst-shape" fill="#ede7ec" fill-rule="nonzero" stroke="#8a5f7e" stroke-width="1.4" stroke-linecap="round" stroke-linejoin="round" stroke-miterlimit="4" transform="matrix(1 0 0 1 0 1.4173228346456674)" d="M 0 0m 15.590551 0 c -8.602617 0 -15.590551 8.639628 -15.590551 19.27559 c 0 10.635962 6.9879346 19.27559 15.590551 19.27559 c 8.602617 0 15.590551 -8.639629 15.590551 -19.27559 c 0 -10.6359625 -6.987934 -19.27559 -15.590551 -19.27559 Z "/>
                <path class="typst-shape" fill="#75516b" fill-rule="nonzero" stroke="#8a5f7e" stroke-width="1.4" stroke-linecap="round" stroke-linejoin="round" stroke-miterlimit="4" transform="matrix(1 0 0 1 5.669291338582679 12.755905511811022)" d="M 0 0m 3.6850393 0 c -2.0333457 0 -3.6850393 1.2705336 -3.6850393 2.8346457 c 0 1.5641122 1.6516936 2.8346457 3.6850393 2.8346457 c 2.033346 0 3.6850393 -1.2705336 3.6850393 -2.8346457 c 0 -1.5641122 -1.6516933 -2.8346457 -3.6850393 -2.8346457 Z "/>
                <path class="typst-shape" fill="#75516b" fill-rule="nonzero" stroke="#8a5f7e" stroke-width="1.4" stroke-linecap="round" stroke-linejoin="round" stroke-miterlimit="4" transform="matrix(1 0 0 1 18.141732283464567 12.755905511811022)" d="M 0 0m 3.6850393 0 c -2.0333457 0 -3.6850393 1.2705336 -3.6850393 2.8346457 c 0 1.5641122 1.6516936 2.8346457 3.6850393 2.8346457 c 2.033346 0 3.6850393 -1.2705336 3.6850393 -2.8346457 c 0 -1.5641122 -1.6516933 -2.8346457 -3.6850393 -2.8346457 Z "/>
                <path class="typst-shape" fill="none" stroke="#8a5f7e" stroke-width="1.4" stroke-linecap="round" stroke-linejoin="round" stroke-miterlimit="4" transform="matrix(1 0 0 1 9.354330708661418 25.795275590551178)" d="M 0 0c 3.4015749 6.2362204 9.070867 6.2362204 12.472441 0 "/>
                <path class="typst-shape" fill="#ffffff" fill-rule="nonzero" stroke="#59a14f" stroke-width="1.6" stroke-linecap="round" stroke-linejoin="round" stroke-miterlimit="4" transform="matrix(1 0 0 1 26.07874015748032 0)" d="M 0 0m 5.102362 0 c -2.8154018 0 -5.102362 2.2869604 -5.102362 5.102362 c 0 2.815402 2.2869604 5.102362 5.102362 5.102362 c 2.815402 0 5.102362 -2.2869601 5.102362 -5.102362 c 0 -2.8154018 -2.2869601 -5.102362 -5.102362 -5.102362 Z "/>
                <path class="typst-shape" fill="none" stroke="#59a14f" stroke-width="1.6" stroke-linecap="round" stroke-linejoin="round" stroke-miterlimit="4" transform="matrix(1 0 0 1 28.629921259842526 3.1181102362204687)" d="M 0 0m 0 1.984252 l 1.984252 1.984252 l 3.1181102 -3.968504 "/>
            </g>
        </g>
    </g>
</svg>
