<?xml version="1.0" encoding="UTF-8"?>
<svg width="800px" height="800px" viewBox="0 0 24 24" version="1.1" xmlns="http://www.w3.org/2000/svg">
    <title>agent_user_24_regular</title>
    <!-- Bot on left -->
    <g transform="translate(-4, 0)">
        <g stroke="#8a5f7e" stroke-width="0.7" stroke-linecap="round" stroke-linejoin="round" fill="none">
            <line x1="12" y1="2.4" x2="12" y2="3.6"/>
            <rect x="5.6" y="3.6" width="12.8" height="8.9" rx="2.2" ry="2.2"/>
            <path d="M 10.2 9.6 Q 12 11.0 13.8 9.6"/>
        </g>
        <path fill="#8a5f7e" stroke="#8a5f7e" stroke-width="0.7" stroke-linejoin="round"
              d="M 6.25 14 L 17.75 14 Q 20 14 20 16.25 L 20 17.15 Q 20 20.5 17 20.5 L 7 20.5 Q 4 20.5 4 17.15 L 4 16.25 Q 4 14 6.25 14 Z"/>
        <g fill="#8a5f7e" stroke="none">
            <circle cx="12" cy="2.1" r="0.4"/>
            <circle cx="9.75" cy="7.55" r="0.8"/>
            <circle cx="14.25" cy="7.55" r="0.8"/>
        </g>
    </g>

    <!-- User silhouette on right (the persona being mimicked) -->
    <g stroke="#8a5f7e" stroke-width="1.1" stroke-linecap="round" stroke-linejoin="round" fill="none">
        <circle cx="20" cy="11" r="2.0" fill="white"/>
        <path d="M 17 18.5 Q 20 13 23 18.5"/>
    </g>

    <!-- Green check stamped on user's top-right corner -->
    <g stroke="#59a14f" stroke-width="1.0" stroke-linecap="round" stroke-linejoin="round" fill="none">
        <circle cx="22.5" cy="5" r="1.4" fill="white"/>
        <polyline points="21.6,5 22.3,5.7 23.4,4"/>
    </g>
</svg>
