<svg class="typst-doc" viewBox="0 0 49.07086614173228 48.22047244094488" width="49.07086614173228pt" height="48.22047244094488pt" xmlns="http://www.w3.org/2000/svg" xmlns:xlink="http://www.w3.org/1999/xlink" xmlns:h5="http://www.w3.org/1999/xhtml">
    <g>
        <g class="typst-group" transform="matrix(1 0 0 1 2 2)">
            <g>
                <path class="typst-shape" fill="none" stroke="#ffffff" stroke-width="0.1" stroke-linecap="butt" stroke-linejoin="miter" stroke-miterlimit="4" d="M 0 0v 44.220474 h 44.220474 v -44.220474 h -44.220474 Z "/>
                <path class="typst-shape" fill="#8a5f7e" fill-rule="nonzero" transform="matrix(1 0 0 1 1.7007874015748048 14.173228346456693)" d="M 0 0m 1.7007874 0 c -0.9384673 0 -1.7007874 0.7623201 -1.7007874 1.7007874 v 12.472441 c 0 0.938467 0.7623201 1.7007875 1.7007874 1.7007875 h 13.606299 c 0.938467 0 1.7007866 -0.7623205 1.7007866 -1.7007875 v -12.472441 c 0 -0.9384673 -0.76231956 -1.7007874 -1.7007866 -1.7007874 h -13.606299 Z "/>
                <path class="typst-shape" fill="#ffffff" fill-rule="nonzero" transform="matrix(1 0 0 1 3.4015748031496096 15.874015748031498)" d="M 0 0m 0.56692916 0 c -0.31282246 0 -0.56692916 0.2541067 -0.56692916 0.56692916 v 11.338583 c 0 0.31282234 0.2541067 0.56692886 0.56692916 0.56692886 h 12.472442 c 0.31282234 0 0.56692886 -0.25410652 0.56692886 -0.56692886 v -11.338583 c 0 -0.31282246 -0.25410652 -0.56692916 -0.56692886 -0.56692916 h -12.472442 Z "/>
                <path class="typst-shape" fill="#8a5f7e" fill-rule="nonzero" transform="matrix(1 0 0 1 0.2834645669291341 20.125984251968504)" d="M 0 0m 0.42519686 0 c -0.23461683 0 -0.42519686 0.19058003 -0.42519686 0.42519686 v 3.1181102 c 0 0.23461676 0.19058003 0.4251969 0.42519686 0.4251969 h 0.70866144 c 0.23461676 0 0.42519677 -0.19058013 0.42519677 -0.4251969 v -3.1181102 c 0 -0.23461683 -0.19058001 -0.42519686 -0.42519677 -0.42519686 h -0.70866144 Z "/>
                <path class="typst-shape" fill="#8a5f7e" fill-rule="nonzero" transform="matrix(1 0 0 1 18.566929133858267 20.125984251968504)" d="M 0 0m 0.42519686 0 c -0.23461683 0 -0.42519686 0.19058003 -0.42519686 0.42519686 v 3.1181102 c 0 0.23461676 0.19058003 0.4251969 0.42519686 0.4251969 h 0.70866144 c 0.23461676 0 0.42519677 -0.19058013 0.42519677 -0.4251969 v -3.1181102 c 0 -0.23461683 -0.19058001 -0.42519686 -0.42519677 -0.42519686 h -0.70866144 Z "/>
                <path class="typst-shape" fill="#8a5f7e" fill-rule="nonzero" transform="matrix(1 0 0 1 9.496062992125983 11.338582677165354)" d="M 0 0v 2.8346457 h 1.4173229 v -2.8346457 h -1.4173229 Z "/>
                <path class="typst-shape" fill="#8a5f7e" fill-rule="nonzero" transform="matrix(1 0 0 1 8.220472440944883 7.653543307086615)" d="M 0 0m 1.984252 0 c -1.0948784 0 -1.984252 0.8893735 -1.984252 1.984252 c 0 1.0948784 0.8893735 1.984252 1.984252 1.984252 c 1.0948784 0 1.984252 -0.88937354 1.984252 -1.984252 c 0 -1.0948784 -0.88937354 -1.984252 -1.984252 -1.984252 Z "/>
                <path class="typst-shape" fill="#8a5f7e" fill-rule="nonzero" transform="matrix(1 0 0 1 5.8110236220472435 18.4251968503937)" d="M 0 0m 1.2755905 0 c -0.70385045 0 -1.2755905 1.0164268 -1.2755905 2.2677166 c 0 1.2512896 0.5717401 2.2677166 1.2755905 2.2677166 c 0.7038505 0 1.2755905 -1.016427 1.2755905 -2.2677166 c 0 -1.2512898 -0.57174003 -2.2677166 -1.2755905 -2.2677166 Z "/>
                <path class="typst-shape" fill="#8a5f7e" fill-rule="nonzero" transform="matrix(1 0 0 1 12.04724409448819 18.4251968503937)" d="M 0 0m 1.2755905 0 c -0.70385045 0 -1.2755905 1.0164268 -1.2755905 2.2677166 c 0 1.2512896 0.5717401 2.2677166 1.2755905 2.2677166 c 0.7038505 0 1.2755905 -1.016427 1.2755905 -2.2677166 c 0 -1.2512898 -0.57174003 -2.2677166 -1.2755905 -2.2677166 Z "/>
                <path class="typst-shape" fill="#8a5f7e" fill-rule="nonzero" transform="matrix(1 0 0 1 7.086614173228346 25.511811023622048)" d="M 0 0v 1.7007874 h 6.2362204 v -1.7007874 h -6.2362204 Z "/>
                <path class="typst-shape" fill="none" stroke="#8a5f7e" stroke-width="1.2" stroke-linecap="round" stroke-linejoin="round" stroke-miterlimit="4" transform="matrix(1 0 0 1 20.409448818897637 19.842519685039374)" d="M 0 0h 4.5023336 "/>
                <path class="typst-shape" fill="none" stroke="#8a5f7e" stroke-width="1.2" stroke-linecap="round" stroke-linejoin="round" stroke-miterlimit="4" transform="matrix(1 0 0 1 22.927558960629923 19.098425196850396)" d="M 0 0l 1.984252 0.7440945 l -1.984252 0.7440945 "/>
                <path class="typst-shape" fill="none" stroke="#8a5f7e" stroke-width="1.2" stroke-linecap="round" stroke-linejoin="round" stroke-miterlimit="4" transform="matrix(1 0 0 1 20.409448818897637 24.37795275590551)" d="M 0 0h 4.5023336 "/>
                <path class="typst-shape" fill="none" stroke="#8a5f7e" stroke-width="1.2" stroke-linecap="round" stroke-linejoin="round" stroke-miterlimit="4" transform="matrix(1 0 0 1 22.927558960629923 23.633858267716537)" d="M 0 0l 1.984252 0.7440945 l -1.984252 0.7440945 "/>
                <path class="typst-shape" fill="#ffffff" fill-rule="nonzero" stroke="#8a5f7e" stroke-width="1.4" stroke-linecap="round" stroke-linejoin="round" stroke-miterlimit="4" transform="matrix(1 0 0 1 31.748031496062996 12.47244094488189)" d="M 0 0m 4.5354333 0 c -2.5025797 0 -4.5354333 2.0328536 -4.5354333 4.5354333 c 0 2.5025792 2.0328536 4.5354333 4.5354333 4.5354333 c 2.5025792 0 4.5354333 -2.032854 4.5354333 -4.5354333 c 0 -2.5025797 -2.032854 -4.5354333 -4.5354333 -4.5354333 Z "/>
                <path class="typst-shape" fill="none" stroke="#8a5f7e" stroke-width="1.4" stroke-linecap="round" stroke-linejoin="round" stroke-miterlimit="4" transform="matrix(1 0 0 1 28.346456692913385 25.866141732283467)" d="M 0 0m 0 7.015748 c 3.4015749 -9.354331 12.472441 -9.354331 15.874016 0 "/>
                <path class="typst-shape" fill="#ffffff" fill-rule="nonzero" stroke="#59a14f" stroke-width="1.4" stroke-linecap="round" stroke-linejoin="round" stroke-miterlimit="4" transform="matrix(1 0 0 1 37.7007874015748 4.251968503937009)" d="M 0 0m 3.6850393 0 c -2.0333457 0 -3.6850393 1.6516936 -3.6850393 3.6850393 c 0 2.033346 1.6516936 3.6850393 3.6850393 3.6850393 c 2.033346 0 3.6850393 -1.6516933 3.6850393 -3.6850393 c 0 -2.0333457 -1.6516933 -3.6850393 -3.6850393 -3.6850393 Z "/>
                <path class="typst-shape" fill="none" stroke="#59a14f" stroke-width="1.6" stroke-linecap="round" stroke-linejoin="round" stroke-miterlimit="4" transform="matrix(1 0 0 1 39.40157480314961 6.236220472440944)" d="M 0 0m 0 1.7007874 l 1.4173229 1.4173228 l 2.8346455 -3.1181102 "/>
            </g>
        </g>
    </g>
</svg>
