<svg class="typst-doc" viewBox="0 0 47.08661417322835 34.61417322834646" width="47.08661417322835pt" height="34.61417322834646pt" xmlns="http://www.w3.org/2000/svg" xmlns:xlink="http://www.w3.org/1999/xlink" xmlns:h5="http://www.w3.org/1999/xhtml">
    <g>
        <g class="typst-group" transform="matrix(1 0 0 1 2 2)">
            <g>
                <path class="typst-shape" fill="#8a5f7e" fill-rule="nonzero" transform="matrix(1 0 0 1 1.4173228346456705 11.338582677165354)" d="M 0 0m 1.7007874 0 c -0.9384673 0 -1.7007874 0.7623201 -1.7007874 1.7007874 v 12.472441 c 0 0.938467 0.7623201 1.7007875 1.7007874 1.7007875 h 13.606299 c 0.938467 0 1.7007866 -0.7623205 1.7007866 -1.7007875 v -12.472441 c 0 -0.9384673 -0.76231956 -1.7007874 -1.7007866 -1.7007874 h -13.606299 Z "/>
                <path class="typst-shape" fill="#ffffff" fill-rule="nonzero" transform="matrix(1 0 0 1 3.1181102362204753 13.039370078740157)" d="M 0 0m 0.56692916 0 c -0.31282246 0 -0.56692916 0.2541067 -0.56692916 0.56692916 v 11.338583 c 0 0.31282234 0.2541067 0.56692886 0.56692916 0.56692886 h 12.472442 c 0.31282234 0 0.56692886 -0.25410652 0.56692886 -0.56692886 v -11.338583 c 0 -0.31282246 -0.25410652 -0.56692916 -0.56692886 -0.56692916 h -12.472442 Z "/>
                <path class="typst-shape" fill="#8a5f7e" fill-rule="nonzero" transform="matrix(1 0 0 1 0 17.29133858267717)" d="M 0 0m 0.42519686 0 c -0.23461683 0 -0.42519686 0.19058003 -0.42519686 0.42519686 v 3.1181102 c 0 0.23461676 0.19058003 0.4251969 0.42519686 0.4251969 h 0.70866144 c 0.23461676 0 0.42519677 -0.19058013 0.42519677 -0.4251969 v -3.1181102 c 0 -0.23461683 -0.19058001 -0.42519686 -0.42519677 -0.42519686 h -0.70866144 Z "/>
                <path class="typst-shape" fill="#8a5f7e" fill-rule="nonzero" transform="matrix(1 0 0 1 18.283464566929133 17.29133858267717)" d="M 0 0m 0.42519686 0 c -0.23461683 0 -0.42519686 0.19058003 -0.42519686 0.42519686 v 3.1181102 c 0 0.23461676 0.19058003 0.4251969 0.42519686 0.4251969 h 0.70866144 c 0.23461676 0 0.42519677 -0.19058013 0.42519677 -0.4251969 v -3.1181102 c 0 -0.23461683 -0.19058001 -0.42519686 -0.42519677 -0.42519686 h -0.70866144 Z "/>
                <path class="typst-shape" fill="#8a5f7e" fill-rule="nonzero" transform="matrix(1 0 0 1 9.21259842519685 8.503937007874018)" d="M 0 0v 2.8346457 h 1.4173229 v -2.8346457 h -1.4173229 Z "/>
                <path class="typst-shape" fill="#8a5f7e" fill-rule="nonzero" transform="matrix(1 0 0 1 7.937007874015749 4.818897637795277)" d="M 0 0m 1.984252 0 c -1.0948784 0 -1.984252 0.8893735 -1.984252 1.984252 c 0 1.0948784 0.8893735 1.984252 1.984252 1.984252 c 1.0948784 0 1.984252 -0.88937354 1.984252 -1.984252 c 0 -1.0948784 -0.88937354 -1.984252 -1.984252 -1.984252 Z "/>
                <path class="typst-shape" fill="#8a5f7e" fill-rule="nonzero" transform="matrix(1 0 0 1 5.527559055118108 15.590551181102365)" d="M 0 0m 1.2755905 0 c -0.70385045 0 -1.2755905 1.0164268 -1.2755905 2.2677166 c 0 1.2512896 0.5717401 2.2677166 1.2755905 2.2677166 c 0.7038505 0 1.2755905 -1.016427 1.2755905 -2.2677166 c 0 -1.2512898 -0.57174003 -2.2677166 -1.2755905 -2.2677166 Z "/>
                <path class="typst-shape" fill="#8a5f7e" fill-rule="nonzero" transform="matrix(1 0 0 1 11.763779527559057 15.590551181102365)" d="M 0 0m 1.2755905 0 c -0.70385045 0 -1.2755905 1.0164268 -1.2755905 2.2677166 c 0 1.2512896 0.5717401 2.2677166 1.2755905 2.2677166 c 0.7038505 0 1.2755905 -1.016427 1.2755905 -2.2677166 c 0 -1.2512898 -0.57174003 -2.2677166 -1.2755905 -2.2677166 Z "/>
                <path class="typst-shape" fill="#8a5f7e" fill-rule="nonzero" transform="matrix(1 0 0 1 6.803149606299213 22.677165354330707)" d="M 0 0v 1.7007874 h 6.2362204 v -1.7007874 h -6.2362204 Z "/>
                <path class="typst-shape" fill="#ffffff" fill-rule="nonzero" stroke="#8a5f7e" stroke-width="1.4" stroke-linecap="round" stroke-linejoin="round" stroke-miterlimit="4" transform="matrix(1 0 0 1 28.062992125984252 9.070866141732285)" d="M 0 0m 5.102362 0 c -2.8154018 0 -5.102362 2.2869604 -5.102362 5.102362 c 0 2.815402 2.2869604 5.102362 5.102362 5.102362 c 2.815402 0 5.102362 -2.2869601 5.102362 -5.102362 c 0 -2.8154018 -2.2869601 -5.102362 -5.102362 -5.102362 Z "/>
                <path class="typst-shape" fill="none" stroke="#8a5f7e" stroke-width="1.4" stroke-linecap="round" stroke-linejoin="round" stroke-miterlimit="4" transform="matrix(1 0 0 1 24.09448818897638 23.173228346456696)" d="M 0 0m 0 7.4409447 c 3.968504 -9.92126 14.173228 -9.92126 18.141733 0 "/>
                <path class="typst-shape" fill="#ffffff" fill-rule="nonzero" stroke="#59a14f" stroke-width="1.4" stroke-linecap="round" stroke-linejoin="round" stroke-miterlimit="4" transform="matrix(1 0 0 1 35.71653543307087 0)" d="M 0 0m 3.6850393 0 c -2.0333457 0 -3.6850393 1.6516936 -3.6850393 3.6850393 c 0 2.033346 1.6516936 3.6850393 3.6850393 3.6850393 c 2.033346 0 3.6850393 -1.6516933 3.6850393 -3.6850393 c 0 -2.0333457 -1.6516933 -3.6850393 -3.6850393 -3.6850393 Z "/>
                <path class="typst-shape" fill="none" stroke="#59a14f" stroke-width="1.6" stroke-linecap="round" stroke-linejoin="round" stroke-miterlimit="4" transform="matrix(1 0 0 1 37.41732283464567 1.9842519685039357)" d="M 0 0m 0 1.7007874 l 1.4173229 1.4173228 l 2.8346455 -3.1181102 "/>
            </g>
        </g>
    </g>
</svg>
