<svg class="typst-doc" viewBox="0 0 55.85826771653543 55.85826771653543" width="55.85826771653543pt" height="55.85826771653543pt" xmlns="http://www.w3.org/2000/svg" xmlns:xlink="http://www.w3.org/1999/xlink" xmlns:h5="http://www.w3.org/1999/xhtml">
    <g>
        <g class="typst-group" transform="matrix(1 0 0 1 1 1)">
            <g>
                <path class="typst-shape" fill="none" d="M 0 0v 53.85827 h 53.85827 v -53.85827 h -53.85827 Z "/>
                <path class="typst-shape" fill="none" stroke="#e68729" stroke-width="1.4" stroke-linecap="butt" stroke-linejoin="miter" stroke-miterlimit="4" transform="matrix(1 0 0 1 0.7398057104974519 11.338582677165352)" d="M 0 0m 0.6775171 0 c -2.809999 11.345904 3.6325648 20.435156 9.92126 17.007874 c 4.8339853 -2.6344767 2.1540766 -12.338693 8.503938 -13.322834 c 18.377464 -2.8482563 -6.707556 29.463959 8.503937 28.913387 c 11.721691 -0.424263 -7.5106354 -30.12715 9.921261 -26.078741 c 6.3418884 1.4728494 2.2324753 12.63632 8.503937 14.173227 c 5.2442474 1.2851753 8.125099 -6.0278864 5.6692886 -13.606298 "/>
                <path class="typst-shape" fill="none" stroke="#47813f" stroke-width="1.2" stroke-linecap="butt" stroke-linejoin="miter" stroke-miterlimit="4" transform="matrix(1 0 0 1 28.346456692913385 3.6850393700787403)" d="M 0 0v 30.039202 "/>
                <path class="typst-shape" fill="none" stroke="#47813f" stroke-width="1.2" stroke-linecap="butt" stroke-linejoin="miter" stroke-miterlimit="4" transform="matrix(1 0 0 1 27.070866141732285 30.3226954015748)" d="M 0 0m 2.551181 0 l -1.2755905 3.4015749 l -1.2755905 -3.4015749 "/>
                <path class="typst-shape" fill="#969696" fill-rule="nonzero" transform="matrix(1 0 0 1 9.637795275590548 26.64566929133858)" d="M 0 0m 1.7007874 0 c -0.9384673 0 -1.7007874 0.7623201 -1.7007874 1.7007874 c 0 0.93846714 0.7623201 1.7007874 1.7007874 1.7007874 c 0.93846714 0 1.7007874 -0.7623203 1.7007874 -1.7007874 c 0 -0.9384673 -0.7623203 -1.7007874 -1.7007874 -1.7007874 Z "/>
                <path class="typst-shape" fill="#969696" fill-rule="nonzero" transform="matrix(1 0 0 1 45.070866141732274 30.33070866141732)" d="M 0 0m 1.7007874 0 c -0.9384673 0 -1.7007874 0.7623201 -1.7007874 1.7007874 c 0 0.93846714 0.7623201 1.7007874 1.7007874 1.7007874 c 0.93846714 0 1.7007874 -0.7623203 1.7007874 -1.7007874 c 0 -0.9384673 -0.7623203 -1.7007874 -1.7007874 -1.7007874 Z "/>
                <path class="typst-shape" fill="#59a14f" fill-rule="nonzero" stroke="#1a1a1a" stroke-width="0.5" stroke-linecap="butt" stroke-linejoin="miter" stroke-miterlimit="4" transform="matrix(1 0 0 1 24.944881889763778 40.53543307086614)" d="M 0 0m 3.4015749 0 c -1.8769346 0 -3.4015749 1.5246402 -3.4015749 3.4015749 c 0 1.8769343 1.5246402 3.4015749 3.4015749 3.4015749 c 1.8769343 0 3.4015749 -1.5246406 3.4015749 -3.4015749 c 0 -1.8769346 -1.5246406 -3.4015749 -3.4015749 -3.4015749 Z "/>
            </g>
        </g>
    </g>
</svg>
