<svg class="typst-doc" viewBox="0 0 55.85826771653543 55.85826771653543" width="55.85826771653543pt" height="55.85826771653543pt" xmlns="http://www.w3.org/2000/svg" xmlns:xlink="http://www.w3.org/1999/xlink" xmlns:h5="http://www.w3.org/1999/xhtml">
    <g>
        <g class="typst-group" transform="matrix(1 0 0 1 1 1)">
            <g>
                <path class="typst-shape" fill="none" d="M 0 0v 53.85827 h 53.85827 v -53.85827 h -53.85827 Z "/>
                <path class="typst-shape" fill="none" stroke="#e68729" stroke-width="1.4" stroke-linecap="butt" stroke-linejoin="miter" stroke-miterlimit="4" transform="matrix(1 0 0 1 1.9842519685039357 18.032333885357296)" d="M 0 0l 0.62362206 0.43062732 l 0.62362206 0.5622256 l 0.62362206 0.71259314 l 0.62362206 0.8759835 l 0.62362194 1.0431969 l 0.6236222 1.2016904 l 0.6236222 1.3362722 l 0.62362194 1.4304171 l 0.62362194 1.4681349 l 0.62362194 1.4361744 l 0.62362194 1.3262472 l 0.6236224 1.1368647 l 0.62362146 0.8744345 l 0.6236229 0.5532923 l 0.62362194 0.19461823 l 0.62362194 -0.17569542 l 0.62362194 -0.52988815 l 0.62362194 -0.84142494 l 0.62362194 -1.0878334 l 0.62362194 -1.25282 l 0.62362194 -1.3273735 l 0.62362194 -1.3097763 l 0.6236229 -1.2046652 l 0.62362194 -1.0214415 l 0.62362194 -0.7724457 l 0.623621 -0.471303 l 0.6236229 -0.13173151 l 0.6236229 0.23300791 l 0.623621 0.61005545 l 0.6236229 0.98643637 l 0.623621 1.3483753 l 0.6236229 1.6807518 l 0.623621 1.9669609 l 0.6236229 2.1894016 l 0.623621 2.3306227 l 0.6236229 2.3750334 l 0.6236229 2.3109665 l 0.623621 2.1327343 l 0.6236229 1.8423214 l 0.623621 1.4503613 l 0.6236229 0.9761505 l 0.623621 0.4466095 l 0.6236229 -0.10573959 l 0.623621 -0.64551544 l 0.6236229 -1.1376343 l 0.6236229 -1.5503674 l 0.623621 -1.8580227 l 0.6236229 -2.04286 l 0.623621 -2.09618 l 0.6236229 -2.0185108 l 0.623621 -1.8190699 l 0.623621 -1.5147419 l 0.6236229 -1.128705 l 0.6236229 -0.68894386 l 0.6236229 -0.2266922 l 0.6236229 0.22521782 l 0.6236191 0.6341629 l 0.6236229 0.96975136 l 0.6236229 1.2060585 l 0.6236229 1.3239412 l 0.6236191 1.3131418 l 0.6236229 1.1738529 l 0.6236229 0.9173317 l 0.6236229 0.5653 l 0.6236229 0.14801979 l 0.6236191 -0.29880524 l 0.6236229 -0.7379303 l 0.6236229 -1.1346722 l 0.6236229 -1.4606295 l 0.6236191 -1.696393 l 0.6236229 -1.832942 l 0.6236229 -1.8715296 l 0.6236229 -1.8222561 l 0.6236229 -1.7016821 l 0.6236191 -1.5299597 l 0.6236229 -1.3279943 l 0.6236229 -1.115041 l 0.6236229 -0.9070157 l 0.6236191 -0.7155998 l 0.6236229 -0.54809093 "/>
                <path class="typst-shape" fill="none" stroke="#47813f" stroke-width="1.2" stroke-linecap="butt" stroke-linejoin="miter" stroke-miterlimit="4" transform="matrix(1 0 0 1 28.346456692913385 2.834645669291338)" d="M 0 0v 32.914078 "/>
                <path class="typst-shape" fill="none" stroke="#47813f" stroke-width="1.2" stroke-linecap="butt" stroke-linejoin="miter" stroke-miterlimit="4" transform="matrix(1 0 0 1 27.070866141732285 32.347176377952756)" d="M 0 0m 2.551181 0 l -1.2755905 3.4015749 l -1.2755905 -3.4015749 "/>
                <path class="typst-shape" fill="#969696" fill-rule="nonzero" transform="matrix(1 0 0 1 9.637795275590548 30.91431830220848)" d="M 0 0m 1.7007874 0 c -0.9384673 0 -1.7007874 0.7623201 -1.7007874 1.7007874 c 0 0.93846714 0.7623201 1.7007874 1.7007874 1.7007874 c 0.93846714 0 1.7007874 -0.7623203 1.7007874 -1.7007874 c 0 -0.9384673 -0.7623203 -1.7007874 -1.7007874 -1.7007874 Z "/>
                <path class="typst-shape" fill="#969696" fill-rule="nonzero" transform="matrix(1 0 0 1 40.818897637795274 35.31150455071707)" d="M 0 0m 1.7007874 0 c -0.9384673 0 -1.7007874 0.7623201 -1.7007874 1.7007874 c 0 0.93846714 0.7623201 1.7007874 1.7007874 1.7007874 c 0.93846714 0 1.7007874 -0.7623203 1.7007874 -1.7007874 c 0 -0.9384673 -0.7623203 -1.7007874 -1.7007874 -1.7007874 Z "/>
                <path class="typst-shape" fill="#59a14f" fill-rule="nonzero" stroke="#1a1a1a" stroke-width="0.5" stroke-linecap="butt" stroke-linejoin="miter" stroke-miterlimit="4" transform="matrix(1 0 0 1 24.944881889763778 41.99298500657784)" d="M 0 0m 3.4015749 0 c -1.8769346 0 -3.4015749 1.5246402 -3.4015749 3.4015749 c 0 1.8769343 1.5246402 3.4015749 3.4015749 3.4015749 c 1.8769343 0 3.4015749 -1.5246406 3.4015749 -3.4015749 c 0 -1.8769346 -1.5246406 -3.4015749 -3.4015749 -3.4015749 Z "/>
            </g>
        </g>
    </g>
</svg>
