<svg class="typst-doc" viewBox="0 0 81.37007874015748 81.37007874015748" width="81.37007874015748pt" height="81.37007874015748pt" xmlns="http://www.w3.org/2000/svg" xmlns:xlink="http://www.w3.org/1999/xlink" xmlns:h5="http://www.w3.org/1999/xhtml">
    <g>
        <g class="typst-group" transform="matrix(1 0 0 1 1 1)">
            <g>
                <path class="typst-shape" fill="#ffffff" fill-rule="nonzero" stroke="#aac4e9" stroke-width="2" stroke-linecap="butt" stroke-linejoin="miter" stroke-miterlimit="4" d="M 0 0m 39.68504 0 c -21.89757 0 -39.68504 17.78747 -39.68504 39.68504 c 0 21.897568 17.78747 39.68504 39.68504 39.68504 c 21.897568 0 39.68504 -17.787472 39.68504 -39.68504 c 0 -21.89757 -17.787472 -39.68504 -39.68504 -39.68504 Z "/>
                <path class="typst-shape" fill="none" stroke="#1a1a1a" stroke-width="1.1" stroke-linecap="round" stroke-linejoin="round" stroke-miterlimit="4" transform="matrix(1 0 0 1 10.771653543307083 19.275590551181104)" d="M 0 0v 40.818897 h 13.606299 v -40.818897 "/>
                <path class="typst-shape" fill="#466d96" fill-rule="nonzero" stroke="#385778" stroke-width="0.5" stroke-linecap="butt" stroke-linejoin="miter" stroke-miterlimit="4" transform="matrix(1 0 0 1 11.480314960629919 35.29133858267716)" d="M 0 0m 1.2755905 0 c -0.70385045 0 -1.2755905 0.5717401 -1.2755905 1.2755905 v 21.543306 c 0 0.7038517 0.5717401 1.2755909 1.2755905 1.2755909 h 9.6377945 c 0.70385075 0 1.2755909 -0.5717392 1.2755909 -1.2755909 v -21.543306 c 0 -0.70385045 -0.57174015 -1.2755905 -1.2755909 -1.2755905 h -9.6377945 Z "/>
                <path class="typst-shape" fill="#a7bcd3" fill-rule="nonzero" stroke="#8596a9" stroke-width="0.5" stroke-linecap="butt" stroke-linejoin="miter" stroke-miterlimit="4" transform="matrix(1 0 0 1 11.480314960629919 19.984251968503937)" d="M 0 0m 1.2755905 0 c -0.70385045 0 -1.2755905 0.5717401 -1.2755905 1.2755905 v 11.338582 c 0 0.70385075 0.5717401 1.2755909 1.2755905 1.2755909 h 9.6377945 c 0.70385075 0 1.2755909 -0.57174015 1.2755909 -1.2755909 v -11.338582 c 0 -0.70385045 -0.57174015 -1.2755905 -1.2755909 -1.2755905 h -9.6377945 Z "/>
                <path class="typst-shape" fill="none" stroke="#1a1a1a" stroke-width="1.1" stroke-linecap="round" stroke-linejoin="round" stroke-miterlimit="4" transform="matrix(1 0 0 1 32.881889763779526 19.275590551181104)" d="M 0 0v 40.818897 h 13.606299 v -40.818897 "/>
                <path class="typst-shape" fill="#7194b9" fill-rule="nonzero" stroke="#5b7694" stroke-width="0.5" stroke-linecap="butt" stroke-linejoin="miter" stroke-miterlimit="4" transform="matrix(1 0 0 1 33.590551181102356 40.39370078740157)" d="M 0 0m 1.2755905 0 c -0.70385045 0 -1.2755905 0.5717401 -1.2755905 1.2755905 v 16.440945 c 0 0.7038498 0.5717401 1.2755909 1.2755905 1.2755909 h 9.6377945 c 0.70385075 0 1.2755909 -0.5717411 1.2755909 -1.2755909 v -16.440945 c 0 -0.70385045 -0.57174015 -1.2755905 -1.2755909 -1.2755905 h -9.6377945 Z "/>
                <path class="typst-shape" fill="#8ca8c6" fill-rule="nonzero" stroke="#70869e" stroke-width="0.5" stroke-linecap="butt" stroke-linejoin="miter" stroke-miterlimit="4" transform="matrix(1 0 0 1 33.590551181102356 25.086614173228345)" d="M 0 0m 1.2755905 0 c -0.70385045 0 -1.2755905 0.5717401 -1.2755905 1.2755905 v 11.338582 c 0 0.70385075 0.5717401 1.2755909 1.2755905 1.2755909 h 9.6377945 c 0.70385075 0 1.2755909 -0.57174015 1.2755909 -1.2755909 v -11.338582 c 0 -0.70385045 -0.57174015 -1.2755905 -1.2755909 -1.2755905 h -9.6377945 Z "/>
                <path class="typst-shape" fill="#466d96" fill-rule="nonzero" stroke="#385778" stroke-width="0.5" stroke-linecap="butt" stroke-linejoin="miter" stroke-miterlimit="4" transform="matrix(1 0 0 1 33.590551181102356 19.984251968503937)" d="M 0 0m 1.2755905 0 c -0.70385045 0 -1.2755905 0.5717401 -1.2755905 1.2755905 v 1.1338583 c 0 0.7038505 0.5717401 1.2755904 1.2755905 1.2755904 h 9.6377945 c 0.70385075 0 1.2755909 -0.5717399 1.2755909 -1.2755904 v -1.1338583 c 0 -0.70385045 -0.57174015 -1.2755905 -1.2755909 -1.2755905 h -9.6377945 Z "/>
                <path class="typst-shape" fill="none" stroke="#1a1a1a" stroke-width="1.1" stroke-linecap="round" stroke-linejoin="round" stroke-miterlimit="4" transform="matrix(1 0 0 1 54.99212598425197 19.275590551181104)" d="M 0 0v 40.818897 h 13.606299 v -40.818897 "/>
                <path class="typst-shape" fill="#466d96" fill-rule="nonzero" stroke="#385778" stroke-width="0.5" stroke-linecap="butt" stroke-linejoin="miter" stroke-miterlimit="4" transform="matrix(1 0 0 1 55.70078740157479 45.49606299212598)" d="M 0 0m 1.2755905 0 c -0.70385045 0 -1.2755905 0.5717401 -1.2755905 1.2755905 v 11.338582 c 0 0.70385075 0.5717401 1.2755909 1.2755905 1.2755909 h 9.6377945 c 0.70385075 0 1.2755909 -0.57174015 1.2755909 -1.2755909 v -11.338582 c 0 -0.70385045 -0.57174015 -1.2755905 -1.2755909 -1.2755905 h -9.6377945 Z "/>
                <path class="typst-shape" fill="#a7bcd3" fill-rule="nonzero" stroke="#8596a9" stroke-width="0.5" stroke-linecap="butt" stroke-linejoin="miter" stroke-miterlimit="4" transform="matrix(1 0 0 1 55.70078740157479 35.29133858267716)" d="M 0 0m 1.2755905 0 c -0.70385045 0 -1.2755905 0.5717401 -1.2755905 1.2755905 v 6.236221 c 0 0.7038498 0.5717401 1.27559 1.2755905 1.27559 h 9.6377945 c 0.70385075 0 1.2755909 -0.57174015 1.2755909 -1.27559 v -6.236221 c 0 -0.70385045 -0.57174015 -1.2755905 -1.2755909 -1.2755905 h -9.6377945 Z "/>
            </g>
        </g>
    </g>
</svg>
