<svg class="typst-doc" viewBox="0 0 81.37007874015748 81.37007874015748" width="81.37007874015748pt" height="81.37007874015748pt" xmlns="http://www.w3.org/2000/svg" xmlns:xlink="http://www.w3.org/1999/xlink" xmlns:h5="http://www.w3.org/1999/xhtml">
    <g>
        <g class="typst-group" transform="matrix(1 0 0 1 1 1)">
            <g>
                <path class="typst-shape" fill="#ffffff" fill-rule="nonzero" stroke="#aac4e9" stroke-width="2" stroke-linecap="butt" stroke-linejoin="miter" stroke-miterlimit="4" d="M 0 0m 39.68504 0 c -21.89757 0 -39.68504 17.78747 -39.68504 39.68504 c 0 21.897568 17.78747 39.68504 39.68504 39.68504 c 21.897568 0 39.68504 -17.787472 39.68504 -39.68504 c 0 -21.89757 -17.787472 -39.68504 -39.68504 -39.68504 Z "/>
                <path class="typst-shape" fill="none" stroke="#1a1a1a" stroke-width="1" stroke-linecap="butt" stroke-linejoin="miter" stroke-miterlimit="4" transform="matrix(1 0 0 1 10.204724409448815 19.842519685039367)" d="M 0 0v 43.937008 "/>
                <path class="typst-shape" fill="none" stroke="#1a1a1a" stroke-width="1" stroke-linecap="butt" stroke-linejoin="miter" stroke-miterlimit="4" transform="matrix(1 0 0 1 10.204724409448815 63.77952755905512)" d="M 0 0h 13.606299 "/>
                <path class="typst-shape" fill="none" stroke="#1a1a1a" stroke-width="1" stroke-linecap="butt" stroke-linejoin="miter" stroke-miterlimit="4" transform="matrix(1 0 0 1 23.81102362204724 19.842519685039367)" d="M 0 0m 0 43.937008 v -43.937008 "/>
                <path class="typst-shape" fill="#83379d" fill-rule="nonzero" stroke="#404040" stroke-width="0.5" stroke-linecap="butt" stroke-linejoin="miter" stroke-miterlimit="4" transform="matrix(1 0 0 1 10.913385826771648 44.07874015748032)" d="M 0 0m 1.2755905 0 c -0.70385045 0 -1.2755905 0.5717401 -1.2755905 1.2755905 v 16.440945 c 0 0.7038498 0.5717401 1.2755909 1.2755905 1.2755909 h 9.6377945 c 0.70385075 0 1.2755909 -0.5717411 1.2755909 -1.2755909 v -16.440945 c 0 -0.70385045 -0.57174015 -1.2755905 -1.2755909 -1.2755905 h -9.6377945 Z "/>
                <path class="typst-shape" fill="#59a14f" fill-rule="nonzero" stroke="#404040" stroke-width="0.5" stroke-linecap="butt" stroke-linejoin="miter" stroke-miterlimit="4" transform="matrix(1 0 0 1 10.913385826771648 13.464566929133854)" d="M 0 0m 1.2755905 0 c -0.70385045 0 -1.2755905 0.5717401 -1.2755905 1.2755905 v 26.645668 c 0 0.7038517 0.5717401 1.2755909 1.2755905 1.2755909 h 9.6377945 c 0.70385075 0 1.2755909 -0.5717392 1.2755909 -1.2755909 v -26.645668 c 0 -0.70385045 -0.57174015 -1.2755905 -1.2755909 -1.2755905 h -9.6377945 Z "/>
                <path class="typst-shape" fill="none" stroke="#1a1a1a" stroke-width="1" stroke-linecap="butt" stroke-linejoin="miter" stroke-miterlimit="4" transform="matrix(1 0 0 1 32.881889763779526 19.842519685039367)" d="M 0 0v 43.937008 "/>
                <path class="typst-shape" fill="none" stroke="#1a1a1a" stroke-width="1" stroke-linecap="butt" stroke-linejoin="miter" stroke-miterlimit="4" transform="matrix(1 0 0 1 32.881889763779526 63.77952755905512)" d="M 0 0h 13.606299 "/>
                <path class="typst-shape" fill="none" stroke="#1a1a1a" stroke-width="1" stroke-linecap="butt" stroke-linejoin="miter" stroke-miterlimit="4" transform="matrix(1 0 0 1 46.488188976377955 19.842519685039367)" d="M 0 0m 0 43.937008 v -43.937008 "/>
                <path class="typst-shape" fill="#e42f29" fill-rule="nonzero" stroke="#404040" stroke-width="0.5" stroke-linecap="butt" stroke-linejoin="miter" stroke-miterlimit="4" transform="matrix(1 0 0 1 33.590551181102356 49.181102362204726)" d="M 0 0m 1.2755905 0 c -0.70385045 0 -1.2755905 0.5717401 -1.2755905 1.2755905 v 11.338582 c 0 0.70385075 0.5717401 1.2755909 1.2755905 1.2755909 h 9.6377945 c 0.70385075 0 1.2755909 -0.57174015 1.2755909 -1.2755909 v -11.338582 c 0 -0.70385045 -0.57174015 -1.2755905 -1.2755909 -1.2755905 h -9.6377945 Z "/>
                <path class="typst-shape" fill="#f1c40f" fill-rule="nonzero" stroke="#404040" stroke-width="0.5" stroke-linecap="butt" stroke-linejoin="miter" stroke-miterlimit="4" transform="matrix(1 0 0 1 33.590551181102356 23.669291338582678)" d="M 0 0m 1.2755905 0 c -0.70385045 0 -1.2755905 0.5717401 -1.2755905 1.2755905 v 21.543306 c 0 0.7038517 0.5717401 1.2755909 1.2755905 1.2755909 h 9.6377945 c 0.70385075 0 1.2755909 -0.5717392 1.2755909 -1.2755909 v -21.543306 c 0 -0.70385045 -0.57174015 -1.2755905 -1.2755909 -1.2755905 h -9.6377945 Z "/>
                <path class="typst-shape" fill="none" stroke="#1a1a1a" stroke-width="1" stroke-linecap="butt" stroke-linejoin="miter" stroke-miterlimit="4" transform="matrix(1 0 0 1 55.55905511811024 19.842519685039367)" d="M 0 0v 43.937008 "/>
                <path class="typst-shape" fill="none" stroke="#1a1a1a" stroke-width="1" stroke-linecap="butt" stroke-linejoin="miter" stroke-miterlimit="4" transform="matrix(1 0 0 1 55.55905511811024 63.77952755905512)" d="M 0 0h 13.606299 "/>
                <path class="typst-shape" fill="none" stroke="#1a1a1a" stroke-width="1" stroke-linecap="butt" stroke-linejoin="miter" stroke-miterlimit="4" transform="matrix(1 0 0 1 69.16535433070867 19.842519685039367)" d="M 0 0m 0 43.937008 v -43.937008 "/>
                <path class="typst-shape" fill="#4ab39c" fill-rule="nonzero" stroke="#404040" stroke-width="0.5" stroke-linecap="butt" stroke-linejoin="miter" stroke-miterlimit="4" transform="matrix(1 0 0 1 56.267716535433074 33.87401574803149)" d="M 0 0m 1.2755905 0 c -0.70385045 0 -1.2755905 0.5717401 -1.2755905 1.2755905 v 26.645668 c 0 0.7038517 0.5717401 1.2755909 1.2755905 1.2755909 h 9.6377945 c 0.70385075 0 1.2755909 -0.5717392 1.2755909 -1.2755909 v -26.645668 c 0 -0.70385045 -0.57174015 -1.2755905 -1.2755909 -1.2755905 h -9.6377945 Z "/>
                <path class="typst-shape" fill="#9aa0a6" fill-rule="nonzero" stroke="#404040" stroke-width="0.5" stroke-linecap="butt" stroke-linejoin="miter" stroke-miterlimit="4" transform="matrix(1 0 0 1 56.267716535433074 23.669291338582678)" d="M 0 0m 1.2755905 0 c -0.70385045 0 -1.2755905 0.5717401 -1.2755905 1.2755905 v 6.236221 c 0 0.7038498 0.5717401 1.27559 1.2755905 1.27559 h 9.6377945 c 0.70385075 0 1.2755909 -0.57174015 1.2755909 -1.27559 v -6.236221 c 0 -0.70385045 -0.57174015 -1.2755905 -1.2755909 -1.2755905 h -9.6377945 Z "/>
                <path class="typst-shape" fill="#4e79a7" fill-rule="nonzero" stroke="#404040" stroke-width="0.5" stroke-linecap="butt" stroke-linejoin="miter" stroke-miterlimit="4" transform="matrix(1 0 0 1 56.267716535433074 13.46456692913386)" d="M 0 0m 1.2755905 0 c -0.70385045 0 -1.2755905 0.5717401 -1.2755905 1.2755905 v 6.236221 c 0 0.7038498 0.5717401 1.27559 1.2755905 1.27559 h 9.6377945 c 0.70385075 0 1.2755909 -0.57174015 1.2755909 -1.27559 v -6.236221 c 0 -0.70385045 -0.57174015 -1.2755905 -1.2755909 -1.2755905 h -9.6377945 Z "/>
            </g>
        </g>
    </g>
</svg>
