<?xml version="1.0" encoding="UTF-8" standalone="no"?>
<!DOCTYPE svg PUBLIC "-//W3C//DTD SVG 1.1//EN" "http://www.w3.org/Graphics/SVG/1.1/DTD/svg11.dtd">
<svg width="100%" height="100%" viewBox="0 0 176 225" version="1.1" xmlns="http://www.w3.org/2000/svg" xmlns:xlink="http://www.w3.org/1999/xlink" xml:space="preserve" xmlns:serif="http://www.serif.com/" style="fill-rule:evenodd;clip-rule:evenodd;stroke-linejoin:round;stroke-miterlimit:2;">
    <g transform="matrix(1,0,0,1,-1155.755058,-1694.973222)">
        <g transform="matrix(1,0,0,1,1135,1679)">
            <path d="M130.891,80.678C127.381,85.217 128.998,85.759 128.24,91.447C127.011,100.677 122.056,108.009 121.197,109.28C117.581,114.631 112.663,116.16 114.326,118.596C122.882,131.125 139.59,124.344 149.943,149.335C157.555,167.708 153.277,171.583 158.492,171.649C187.005,172.011 195.532,169.067 196.086,178.506C196.188,180.251 191.896,196.873 191.678,197.547C189.008,205.804 185.705,234.772 179.616,238.658C175.248,241.446 173.03,239.854 109.499,240.626C93.96,240.814 94.044,239.983 78.5,239.488C73.765,239.337 74.104,237.622 70.493,237.625C35.365,237.652 20.143,236.259 20.774,205.507C20.931,197.83 24.642,157.15 32.914,142.74C41.778,127.298 63.769,124.433 67.438,117.454C70.352,111.911 71.821,112.87 72.143,111.209C73.025,106.653 73.05,91.984 69.538,91.391C68.181,91.162 59.646,89.719 58.112,78.527C57.177,71.702 62.073,72.211 60.694,65.454C55.721,41.082 61.217,34.213 70.359,31.058C74.315,29.692 74.613,12.14 106.446,16.74C106.927,16.809 114.545,19.998 117.272,21.85C122.897,25.67 121.188,27.841 127.43,30.654C133.144,33.228 130.074,36.888 131.722,41.415C137.743,57.955 127.208,65.076 129.76,68.383C133.259,72.919 133.143,73.34 131.568,79.521C131.542,79.625 131.518,79.607 130.891,80.678Z" style="fill:rgb(67,70,63);"/>
            <path d="M101.642,142.564C102.186,139.64 102.151,139.651 102.23,139.406C102.364,138.986 103.089,137.483 107.225,141.745C111.422,146.071 114.348,147.355 115.374,141.46C116.339,135.914 116.773,136.079 116.847,135.601C117.941,128.533 117.624,125.121 119.48,126.588C120.045,127.034 122.549,128.122 123.452,128.584C143.542,138.86 146.906,141.422 152.602,169.485C152.545,170.123 152.487,170.76 152.43,171.398C146.956,171.583 147.009,171.603 141.493,171.565C136.689,171.533 140.2,160.611 138.249,159.788C134.801,158.332 136.581,161.342 136.33,170.454C136.273,172.53 124.694,171.37 117.504,171.597C109.359,171.853 109.395,175.945 103.142,209.436C101.413,218.697 102.001,218.783 101.715,219.549C101.518,220.08 100.505,219.969 100.307,220.5C100.696,216.947 99.596,217.07 99.758,213.569C100.236,203.235 100.947,202.33 101.547,201.566C104.108,198.306 99.111,190.475 97.382,194.448C96.833,195.711 96.862,199.652 96.839,210.514C96.835,212.343 98.133,215.846 95.503,213.467C94.52,212.578 88.569,207.193 79.449,209.366C76.667,210.029 73.376,214.242 70.299,211.757C66.924,209.033 54.777,205.482 54.807,202.443C54.993,183.993 58.071,160.131 53.551,163.575C52.345,164.494 53.268,164.9 52.48,182.5C52.199,188.781 52.814,202.449 51.549,202.604C51.116,202.657 47.716,200.39 40.468,201.305C35.607,201.918 34.66,206.147 37.47,205.297C41.968,203.936 42.106,202.879 51.496,205.507C52.823,205.878 52.656,206.238 67.07,212.852C67.07,212.852 68.069,213.558 68.156,213.619C67.669,214.033 68.27,214.255 67.816,214.641C67.743,214.703 67.489,214.92 66.646,214.904C64.439,214.862 63.901,213.899 60.537,217.538C51.068,227.782 59.219,234.338 53.489,234.285C25.895,234.028 23.713,220.721 23.537,209.5C23.362,198.348 28.217,168.015 28.353,167.47C32.337,151.511 31.902,140.696 50.669,130.895C61.011,125.494 60.954,125.417 61.857,124.957C65.07,123.318 66.282,121.119 67.415,124.531C68.046,126.432 71.903,138.045 79.637,146.379C83.499,150.541 90.977,136.242 93.095,139.773C95.657,144.046 96.482,143.743 96.905,148.648C96.882,149.021 96.649,152.808 97.639,153.254C99.258,153.983 100.014,150.769 100.082,150.481C100.541,149.574 102.864,147.882 101.642,142.564Z" style="fill:rgb(94,132,116);"/>
            <path d="M137.504,174.28C149.137,174.819 149.13,173.573 157.516,174.991C161.252,175.623 191.238,173.313 192.656,176.406C193.676,178.631 193.379,178.787 187.034,206.484C184.03,219.596 183.648,219.426 180.677,232.53C179.33,238.469 176.27,237.347 143.5,237.372C102.327,237.404 99.772,238.895 100.295,235.476C101.731,226.097 103.676,226.495 104.174,217.478C104.337,214.546 105.32,214.758 111.487,181.498C113.503,170.623 119.481,176.263 137.504,174.28Z" style="fill:rgb(131,132,134);"/>
            <path d="M110.424,81.458L111.553,82.204C120.146,90.741 123.586,83.508 125.502,86.498C127.195,89.14 121.857,102.149 121.327,103.441C118.331,110.741 104.485,127.501 84.315,109.765C82.539,108.203 80.806,110.284 82.828,112.203C95.277,124.022 106.725,118.329 106.819,121.417C106.96,126.073 101.072,131.519 100.333,132.202C99.954,132.527 99.575,132.852 99.196,133.177C98.654,133.028 98.112,132.879 97.57,132.73C96.843,133.057 96.115,133.385 95.387,133.712L94.546,133.339C65.392,119.518 78.944,110.032 75.495,98.502C73.074,90.41 75.014,87.042 70.457,88.413C66.234,89.683 61.363,83.218 60.974,79.418C59.766,67.628 69.247,67.986 71.538,73.477C71.647,73.737 73.969,79.302 74.879,74.613C75.385,72.005 76.166,72.382 80.524,72.247C84.186,72.133 82.958,73.901 83.368,77.527C84.57,88.15 101.229,90.836 103.967,77.649C104.575,74.717 106.585,75.075 106.823,77.383C106.891,78.033 107.315,82.138 108.885,85.277C111.195,89.898 109.646,90.178 107.385,91.348C105.956,92.087 106.988,94.881 109.392,94.033C116.368,91.574 110.94,84.597 110.424,81.458Z" style="fill:rgb(248,223,199);"/>
            <path d="M74.812,37.477C77.252,42.94 79.985,43.567 79.468,45.514C78.082,50.732 81.163,52.93 77.898,59.706C73.197,69.461 72.946,69.643 72.434,69.368C71.964,69.114 71.652,68.164 68.795,67.18C65.74,66.127 64.425,67.67 63.666,64.492C58.58,43.199 65.45,31.72 74.498,34.109C77.465,34.893 71.978,28.944 81.712,22.865C90.217,17.554 110.713,15.649 120.402,29.56C124.749,35.801 127.224,32.571 128.345,34.5C129.035,35.686 125.277,35.775 123.8,37.57C121.306,40.604 119.069,43.766 109.542,45.847C103.531,47.16 103.517,48.714 92.6,46.151C87.328,44.913 87.762,43.652 82.41,42.647C80.939,42.37 77.899,38.278 77.75,38.093C75.879,35.776 75.108,37.494 74.812,37.477Z" style="fill:rgb(65,66,65);"/>
            <path d="M125.821,61.543L124.538,62.646C113.245,59.564 113.168,64.121 113.468,64.516C113.838,65.003 127.057,64.304 125.576,67.524C124.543,69.77 116.439,63.308 109.418,71.419C105.773,75.63 102.429,67.95 98.481,67.604C86.222,66.53 86.444,68.974 83.456,69.165C79.289,69.431 76.58,69.647 77.513,67.505C79.507,62.93 79.881,63.198 81.712,58.572C83.573,53.871 80.131,43.849 85.397,46.705C98.546,53.837 113.139,48.844 118.203,46.026C123.183,43.255 123.97,46.961 125.821,61.543Z" style="fill:rgb(243,221,200);"/>
            <path d="M94.43,227.645C90.568,222.522 84.626,219.118 83.63,219.803C81.315,221.395 87.55,223.881 91.113,227.782C94.332,231.306 89.781,231.363 87.716,229.274C87.147,228.697 81.435,222.916 78.644,224.755C74.829,227.269 83.313,227.183 84.399,229.501C86.365,233.697 77.995,226.229 72.809,231.783C66.889,238.121 62.971,232.754 62.828,231.461C62.084,224.722 64.294,217.594 81.55,211.818C87.321,209.885 99.262,217.77 98.331,220.474C97.198,223.765 89.985,214.494 86.618,214.792C81.772,215.221 95.272,222.115 96.367,225.53C96.924,227.267 96.283,227.332 94.43,227.645Z" style="fill:rgb(242,224,202);"/>
            <path d="M91.364,136.332C83.589,140.722 84.93,142.634 82.47,143.417C80.114,144.166 77.368,138.332 77.025,137.796C67.415,122.747 69.684,118.913 70.729,116.64C72.887,111.949 70.699,123.233 88.452,133.59C90.238,134.632 90.009,134.795 91.364,136.332Z" style="fill:rgb(209,215,212);"/>
            <path d="M85.831,72.624C88.267,70.502 88.083,70.197 89.607,69.901C108.512,66.229 101.833,86.899 91.538,83.406C84.759,81.106 85.857,73.823 85.831,72.624Z" style="fill:rgb(235,221,202);"/>
            <path d="M125.641,81.572C115.277,91.279 104.574,69.372 118.5,69.829C123.798,70.002 125.671,69.172 125.933,74.489C126.111,78.092 126.447,78.06 125.641,81.572Z" style="fill:rgb(234,220,205);"/>
            <path d="M102.419,134.531C102.624,134.242 109.271,127.414 110.09,121.34C110.79,116.143 114.977,124.08 115.012,125.559C115.157,131.619 112.867,143.205 110.55,141.412C106.289,138.117 106.744,137.653 102.419,134.531Z" style="fill:rgb(197,204,197);"/>
            <path d="M154.599,208.518C151.252,220.764 134.967,210.992 144.557,202.561C145.882,201.395 148.82,200.205 151.513,201.477C155.396,203.31 154.62,204.191 154.599,208.518Z" style="fill:rgb(248,250,251);"/>
            <path d="M102.451,103.765C101.924,103.566 96.085,101.372 96.813,99.547C97.901,96.821 99.988,100.748 103.502,100.6C110.167,100.319 110.153,100.305 110.512,100.32C110.761,100.33 114.136,101.745 109.457,103.249C106.482,102.512 106.4,102.257 102.451,103.765Z" style="fill:rgb(101,75,54);"/>
            <path d="M86.989,66.045C80.354,61.618 101.681,60.038 98.399,64.432C96.948,66.375 95.173,62.555 86.989,66.045Z" style="fill:rgb(67,51,39);"/>
            <path d="M61.642,219.681L62.58,220.48C61.169,224.963 60.353,224.73 60.317,229.495C60.314,229.868 60.245,239.004 58.243,233.663C55.86,227.305 60.947,220.598 61.642,219.681Z" style="fill:rgb(114,133,119);"/>
            <path d="M97.216,179.5C97.651,176.877 97.17,176.494 98.345,176.189C101.994,175.24 101.207,186.873 98.512,186.439C96.315,186.084 97.447,185.079 97.216,179.5Z" style="fill:rgb(14,43,28);"/>
            <path d="M66.969,80.488C66.772,78.596 67.353,78.359 65.938,77.032C65.775,76.879 64.097,75.304 64.617,74.573C66.879,71.396 70.747,78.157 69.654,82.563C68.439,87.46 67.025,80.754 66.969,80.488Z" style="fill:rgb(110,88,67);"/>
            <path d="M100.475,163.5C100.46,163.901 100.209,170.73 97.48,167.515C96.012,165.785 97.366,156.795 100.107,160.658C100.24,160.845 100.134,160.867 100.475,163.5Z" style="fill:rgb(20,43,31);"/>
            <path d="M97.57,132.73C97.574,132.864 97.609,134.401 97.609,134.401C98.024,134.774 98.164,134.096 98.577,134.467C99.023,135.08 98.887,135.101 99.395,135.59C101.137,137.266 97.911,143.429 95.846,139.342C94.522,136.72 96.794,136.339 95.387,133.712C96.115,133.385 96.843,133.057 97.57,132.73Z" style="fill:rgb(226,222,207);"/>
            <path d="M92.151,76.575C92.15,76.488 91.355,71.573 94.561,72.345C97.453,73.041 95.397,83.95 92.151,76.575Z" style="fill:rgb(40,28,16);"/>
            <path d="M120.14,76.387C116.508,82.717 114.165,73.888 117.565,72.802C120.296,71.93 120.152,76.034 120.14,76.387Z" style="fill:rgb(58,43,28);"/>
            <path d="M101.642,142.564C102.864,147.882 100.541,149.574 100.082,150.481C99.786,149.912 99.49,149.343 99.194,148.773C99.246,146.953 98.495,145.264 98.636,144.572C99.068,142.455 101.469,142.628 101.642,142.564Z" style="fill:rgb(72,100,86);"/>
            <path d="M102.451,103.765C106.4,102.257 106.482,102.512 109.457,103.249C108.988,105.825 108.582,105.625 107.833,106.728C107.821,106.724 106.897,104.398 104.425,105.483C104.1,105.625 104.146,106.215 103.821,106.358C102.798,105.236 102.815,105.298 102.451,103.765Z" style="fill:rgb(193,169,148);"/>
            <path d="M96.905,148.648C97.18,148.674 97.032,148.347 97.361,148.378C97.511,148.392 97.497,148.407 99.194,148.773C99.49,149.343 99.786,149.912 100.082,150.481C100.014,150.769 99.258,153.983 97.639,153.254C96.649,152.808 96.882,149.021 96.905,148.648Z" style="fill:rgb(11,41,27);"/>
            <path d="M128.529,71.545L129.495,71.676C131.439,77.336 129.259,77.132 128.544,78.458C128.078,74.01 128.2,74.031 128.529,71.545Z" style="fill:rgb(181,177,170);"/>
            <path d="M100.369,222.565C100.683,225.612 100.624,225.603 99.543,228.703C98.868,226.735 98.831,226.757 98.814,226.577C98.583,224.128 98.169,223.665 100.369,222.565Z" style="fill:rgb(116,116,111);"/>
            <path d="M103.821,106.358C104.146,106.215 104.1,105.625 104.425,105.483C106.897,104.398 107.821,106.724 107.833,106.728C105.883,107.844 105.693,107.68 103.821,106.358Z" style="fill:rgb(134,109,86);"/>
            <path d="M61.642,219.681C64.766,215.796 65.81,217.1 65.633,217.422C65.467,217.725 65.383,217.607 62.58,220.48L61.642,219.681Z" style="fill:rgb(84,105,89);"/>
            <path d="M97.57,132.73C98.112,132.879 98.654,133.028 99.196,133.177C98.99,133.607 98.783,134.037 98.577,134.467C98.164,134.096 98.024,134.774 97.609,134.401C97.609,134.401 97.574,132.864 97.57,132.73Z" style="fill:rgb(173,156,132);"/>
            <path d="M110.424,81.458C111.222,80.669 111.121,79.346 111.5,80.394C111.549,80.53 111.504,80.528 111.553,82.204L110.424,81.458Z" style="fill:rgb(133,117,102);"/>
            <path d="M152.602,169.485C153.271,171.05 153.421,171.062 153.322,171.17C153.115,171.396 152.638,171.172 152.43,171.398C152.487,170.76 152.545,170.123 152.602,169.485Z" style="fill:rgb(85,111,102);"/>
            <path d="M125.821,61.543C125.711,62.57 125.515,62.488 124.538,62.646L125.821,61.543Z" style="fill:rgb(150,142,133);"/>
        </g>
    </g>
</svg>
