<svg class="typst-doc" viewBox="0 0 56.425196850393704 56.425196850393704" width="56.425196850393704pt" height="56.425196850393704pt" xmlns="http://www.w3.org/2000/svg" xmlns:xlink="http://www.w3.org/1999/xlink" xmlns:h5="http://www.w3.org/1999/xhtml">
    <g>
        <g class="typst-group" transform="matrix(1 0 0 1 1 1)">
            <g>
                <path class="typst-shape" fill="none" transform="matrix(1 0 0 1 0.2834645669291341 0.2834645669291341)" d="M 0 0v 53.85827 h 53.85827 v -53.85827 h -53.85827 Z "/>
                <path class="typst-shape" fill="none" stroke="#e1e1e1" stroke-width="0.4" stroke-linecap="butt" stroke-linejoin="miter" stroke-miterlimit="4" transform="matrix(1 0 0 1 0 0.2834645669291341)" d="M 0 0m 0 53.85827 v -53.85827 "/>
                <path class="typst-shape" fill="none" stroke="#e1e1e1" stroke-width="0.4" stroke-linecap="butt" stroke-linejoin="miter" stroke-miterlimit="4" transform="matrix(1 0 0 1 0.2834645669291341 54.425196850393704)" d="M 0 0h 53.85827 "/>
                <path class="typst-shape" fill="none" stroke="#e1e1e1" stroke-width="0.4" stroke-linecap="butt" stroke-linejoin="miter" stroke-miterlimit="4" transform="matrix(1 0 0 1 9.070866141732282 0.2834645669291341)" d="M 0 0m 0 53.85827 v -53.85827 "/>
                <path class="typst-shape" fill="none" stroke="#e1e1e1" stroke-width="0.4" stroke-linecap="butt" stroke-linejoin="miter" stroke-miterlimit="4" transform="matrix(1 0 0 1 0.2834645669291341 45.354330708661415)" d="M 0 0h 53.85827 "/>
                <path class="typst-shape" fill="none" stroke="#e1e1e1" stroke-width="0.4" stroke-linecap="butt" stroke-linejoin="miter" stroke-miterlimit="4" transform="matrix(1 0 0 1 18.141732283464563 0.2834645669291341)" d="M 0 0m 0 53.85827 v -53.85827 "/>
                <path class="typst-shape" fill="none" stroke="#e1e1e1" stroke-width="0.4" stroke-linecap="butt" stroke-linejoin="miter" stroke-miterlimit="4" transform="matrix(1 0 0 1 0.2834645669291341 36.28346456692913)" d="M 0 0h 53.85827 "/>
                <path class="typst-shape" fill="none" stroke="#e1e1e1" stroke-width="0.4" stroke-linecap="butt" stroke-linejoin="miter" stroke-miterlimit="4" transform="matrix(1 0 0 1 27.212598425196852 0.2834645669291341)" d="M 0 0m 0 53.85827 v -53.85827 "/>
                <path class="typst-shape" fill="none" stroke="#e1e1e1" stroke-width="0.4" stroke-linecap="butt" stroke-linejoin="miter" stroke-miterlimit="4" transform="matrix(1 0 0 1 0.2834645669291341 27.212598425196852)" d="M 0 0h 53.85827 "/>
                <path class="typst-shape" fill="none" stroke="#e1e1e1" stroke-width="0.4" stroke-linecap="butt" stroke-linejoin="miter" stroke-miterlimit="4" transform="matrix(1 0 0 1 36.28346456692913 0.2834645669291341)" d="M 0 0m 0 53.85827 v -53.85827 "/>
                <path class="typst-shape" fill="none" stroke="#e1e1e1" stroke-width="0.4" stroke-linecap="butt" stroke-linejoin="miter" stroke-miterlimit="4" transform="matrix(1 0 0 1 0.2834645669291341 18.141732283464563)" d="M 0 0h 53.85827 "/>
                <path class="typst-shape" fill="none" stroke="#e1e1e1" stroke-width="0.4" stroke-linecap="butt" stroke-linejoin="miter" stroke-miterlimit="4" transform="matrix(1 0 0 1 45.354330708661415 0.2834645669291341)" d="M 0 0m 0 53.85827 v -53.85827 "/>
                <path class="typst-shape" fill="none" stroke="#e1e1e1" stroke-width="0.4" stroke-linecap="butt" stroke-linejoin="miter" stroke-miterlimit="4" transform="matrix(1 0 0 1 0.2834645669291341 9.070866141732282)" d="M 0 0h 53.85827 "/>
                <path class="typst-shape" fill="none" stroke="#e1e1e1" stroke-width="0.4" stroke-linecap="butt" stroke-linejoin="miter" stroke-miterlimit="4" transform="matrix(1 0 0 1 54.425196850393704 0.2834645669291341)" d="M 0 0m 0 53.85827 v -53.85827 "/>
                <path class="typst-shape" fill="none" stroke="#e1e1e1" stroke-width="0.4" stroke-linecap="butt" stroke-linejoin="miter" stroke-miterlimit="4" transform="matrix(1 0 0 1 0.2834645669291341 0)" d="M 0 0h 53.85827 "/>
                <path class="typst-shape" fill="#dee1e4" fill-rule="nonzero" stroke="#566372" stroke-width="1.2" stroke-linecap="butt" stroke-linejoin="miter" stroke-miterlimit="4" transform="matrix(1 0 0 1 4.535433070866139 4.535433070866139)" d="M 0 0m 0 31.181103 l 11.338583 -29.76378 l 26.929132 -1.4173229 l 9.921261 21.259842 l -15.590549 24.09449 l -32.598427 -14.173229 Z "/>
                <path class="typst-shape" fill="#404040" fill-rule="nonzero" transform="matrix(1 0 0 1 16.58267716535433 34.724409448818896)" d="M 0 0m 1.5590551 0 c -0.8602616 0 -1.5590551 0.6987935 -1.5590551 1.5590551 c 0 0.8602617 0.6987935 1.5590551 1.5590551 1.5590551 c 0.8602617 0 1.5590551 -0.6987934 1.5590551 -1.5590551 c 0 -0.8602616 -0.6987934 -1.5590551 -1.5590551 -1.5590551 Z "/>
                <path class="typst-shape" fill="#404040" fill-rule="nonzero" transform="matrix(1 0 0 1 25.65354330708661 34.724409448818896)" d="M 0 0m 1.5590551 0 c -0.8602616 0 -1.5590551 0.6987935 -1.5590551 1.5590551 c 0 0.8602617 0.6987935 1.5590551 1.5590551 1.5590551 c 0.8602617 0 1.5590551 -0.6987934 1.5590551 -1.5590551 c 0 -0.8602616 -0.6987934 -1.5590551 -1.5590551 -1.5590551 Z "/>
                <path class="typst-shape" fill="#404040" fill-rule="nonzero" transform="matrix(1 0 0 1 34.724409448818896 34.724409448818896)" d="M 0 0m 1.5590551 0 c -0.8602616 0 -1.5590551 0.6987935 -1.5590551 1.5590551 c 0 0.8602617 0.6987935 1.5590551 1.5590551 1.5590551 c 0.8602617 0 1.5590551 -0.6987934 1.5590551 -1.5590551 c 0 -0.8602616 -0.6987934 -1.5590551 -1.5590551 -1.5590551 Z "/>
                <path class="typst-shape" fill="#404040" fill-rule="nonzero" transform="matrix(1 0 0 1 16.58267716535433 25.65354330708661)" d="M 0 0m 1.5590551 0 c -0.8602616 0 -1.5590551 0.6987935 -1.5590551 1.5590551 c 0 0.8602617 0.6987935 1.5590551 1.5590551 1.5590551 c 0.8602617 0 1.5590551 -0.6987934 1.5590551 -1.5590551 c 0 -0.8602616 -0.6987934 -1.5590551 -1.5590551 -1.5590551 Z "/>
                <path class="typst-shape" fill="#404040" fill-rule="nonzero" transform="matrix(1 0 0 1 25.65354330708661 25.65354330708661)" d="M 0 0m 1.5590551 0 c -0.8602616 0 -1.5590551 0.6987935 -1.5590551 1.5590551 c 0 0.8602617 0.6987935 1.5590551 1.5590551 1.5590551 c 0.8602617 0 1.5590551 -0.6987934 1.5590551 -1.5590551 c 0 -0.8602616 -0.6987934 -1.5590551 -1.5590551 -1.5590551 Z "/>
                <path class="typst-shape" fill="#404040" fill-rule="nonzero" transform="matrix(1 0 0 1 34.724409448818896 25.65354330708661)" d="M 0 0m 1.5590551 0 c -0.8602616 0 -1.5590551 0.6987935 -1.5590551 1.5590551 c 0 0.8602617 0.6987935 1.5590551 1.5590551 1.5590551 c 0.8602617 0 1.5590551 -0.6987934 1.5590551 -1.5590551 c 0 -0.8602616 -0.6987934 -1.5590551 -1.5590551 -1.5590551 Z "/>
                <path class="typst-shape" fill="#404040" fill-rule="nonzero" transform="matrix(1 0 0 1 43.79527559055118 25.65354330708661)" d="M 0 0m 1.5590551 0 c -0.8602616 0 -1.5590551 0.6987935 -1.5590551 1.5590551 c 0 0.8602617 0.6987935 1.5590551 1.5590551 1.5590551 c 0.8602617 0 1.5590551 -0.6987934 1.5590551 -1.5590551 c 0 -0.8602616 -0.6987934 -1.5590551 -1.5590551 -1.5590551 Z "/>
                <path class="typst-shape" fill="#404040" fill-rule="nonzero" transform="matrix(1 0 0 1 16.58267716535433 16.58267716535433)" d="M 0 0m 1.5590551 0 c -0.8602616 0 -1.5590551 0.6987935 -1.5590551 1.5590551 c 0 0.8602617 0.6987935 1.5590551 1.5590551 1.5590551 c 0.8602617 0 1.5590551 -0.6987934 1.5590551 -1.5590551 c 0 -0.8602616 -0.6987934 -1.5590551 -1.5590551 -1.5590551 Z "/>
                <path class="typst-shape" fill="#404040" fill-rule="nonzero" transform="matrix(1 0 0 1 25.65354330708661 16.58267716535433)" d="M 0 0m 1.5590551 0 c -0.8602616 0 -1.5590551 0.6987935 -1.5590551 1.5590551 c 0 0.8602617 0.6987935 1.5590551 1.5590551 1.5590551 c 0.8602617 0 1.5590551 -0.6987934 1.5590551 -1.5590551 c 0 -0.8602616 -0.6987934 -1.5590551 -1.5590551 -1.5590551 Z "/>
                <path class="typst-shape" fill="#404040" fill-rule="nonzero" transform="matrix(1 0 0 1 34.724409448818896 16.58267716535433)" d="M 0 0m 1.5590551 0 c -0.8602616 0 -1.5590551 0.6987935 -1.5590551 1.5590551 c 0 0.8602617 0.6987935 1.5590551 1.5590551 1.5590551 c 0.8602617 0 1.5590551 -0.6987934 1.5590551 -1.5590551 c 0 -0.8602616 -0.6987934 -1.5590551 -1.5590551 -1.5590551 Z "/>
                <path class="typst-shape" fill="#404040" fill-rule="nonzero" transform="matrix(1 0 0 1 25.65354330708661 7.511811023622045)" d="M 0 0m 1.5590551 0 c -0.8602616 0 -1.5590551 0.6987935 -1.5590551 1.5590551 c 0 0.8602617 0.6987935 1.5590551 1.5590551 1.5590551 c 0.8602617 0 1.5590551 -0.6987934 1.5590551 -1.5590551 c 0 -0.8602616 -0.6987934 -1.5590551 -1.5590551 -1.5590551 Z "/>
                <path class="typst-shape" fill="none" stroke="#47813f" stroke-width="1.2" stroke-linecap="butt" stroke-linejoin="miter" stroke-miterlimit="4" transform="matrix(1 0 0 1 7.3700787401574805 8.322846968908852)" d="M 0 0m 0 24.559042 l 36.565685 -24.559042 "/>
                <path class="typst-shape" fill="none" stroke="#47813f" stroke-width="1.2" stroke-linecap="butt" stroke-linejoin="miter" stroke-miterlimit="4" transform="matrix(1 0 0 1 40.4007941111811 8.322831212598425)" d="M 0 0m 0 0.8376513 l 3.5349941 -0.8376513 l -2.1125674 2.9554868 "/>
                <path class="typst-shape" fill="#59a14f" fill-rule="nonzero" stroke="#1a1a1a" stroke-width="0.5" stroke-linecap="butt" stroke-linejoin="miter" stroke-miterlimit="4" transform="matrix(1 0 0 1 42.51968503937008 15.307086614173226)" d="M 0 0m 2.8346457 0 c -1.5641122 0 -2.8346457 1.2705336 -2.8346457 2.8346457 c 0 1.5641122 1.2705336 2.8346457 2.8346457 2.8346457 c 1.5641122 0 2.8346457 -1.2705336 2.8346457 -2.8346457 c 0 -1.5641122 -1.2705336 -2.8346457 -2.8346457 -2.8346457 Z "/>
            </g>
        </g>
    </g>
</svg>
