<svg class="typst-doc" viewBox="0 0 44.09448818897638 46.22047244094488" width="44.09448818897638pt" height="46.22047244094488pt" xmlns="http://www.w3.org/2000/svg" xmlns:xlink="http://www.w3.org/1999/xlink" xmlns:h5="http://www.w3.org/1999/xhtml">
    <g>
        <g class="typst-group" transform="matrix(1 0 0 1 1 1)">
            <g>
                <path class="typst-shape" fill="#fdebd9" fill-rule="nonzero" stroke="#f28e2b" stroke-width="1" stroke-linecap="butt" stroke-linejoin="miter" stroke-miterlimit="4" transform="matrix(1 0 0 1 1.120251968503937 0)" d="M 0 0m 38.29493 11.055119 l -19.147465 -11.055119 l -19.147465 11.055119 v 22.110237 l 19.147465 11.055119 l 19.147465 -11.055119 v -22.110237 Z "/>
                <path class="typst-shape" fill="#aaaaaa" fill-rule="nonzero" transform="matrix(1 0 0 1 0.8503937007873992 38.976377952755904)" d="M 0 0m 1.2755905 0 c -0.70385045 0 -1.2755905 0.5717401 -1.2755905 1.2755905 c 0 0.7038505 0.5717401 1.2755905 1.2755905 1.2755905 c 0.7038505 0 1.2755905 -0.57174003 1.2755905 -1.2755905 c 0 -0.70385045 -0.57174003 -1.2755905 -1.2755905 -1.2755905 Z "/>
                <path class="typst-shape" fill="#4e79a7" fill-rule="nonzero" stroke="#1a1a1a" stroke-width="0.4" stroke-linecap="butt" stroke-linejoin="miter" stroke-miterlimit="4" transform="matrix(1 0 0 1 0 29.05511811023622)" d="M 0 0m 2.1259842 0 c -1.173084 0 -2.1259842 0.9529002 -2.1259842 2.1259842 c 0 1.1730843 0.9529002 2.1259842 2.1259842 2.1259842 c 1.1730843 0 2.1259842 -0.95289993 2.1259842 -2.1259842 c 0 -1.173084 -0.95289993 -2.1259842 -2.1259842 -2.1259842 Z "/>
                <path class="typst-shape" fill="#4e79a7" fill-rule="nonzero" stroke="#1a1a1a" stroke-width="0.4" stroke-linecap="butt" stroke-linejoin="miter" stroke-miterlimit="4" transform="matrix(1 0 0 1 0 19.98425196850394)" d="M 0 0m 2.1259842 0 c -1.173084 0 -2.1259842 0.9529002 -2.1259842 2.1259842 c 0 1.1730843 0.9529002 2.1259842 2.1259842 2.1259842 c 1.1730843 0 2.1259842 -0.95289993 2.1259842 -2.1259842 c 0 -1.173084 -0.95289993 -2.1259842 -2.1259842 -2.1259842 Z "/>
                <path class="typst-shape" fill="#4e79a7" fill-rule="nonzero" stroke="#1a1a1a" stroke-width="0.4" stroke-linecap="butt" stroke-linejoin="miter" stroke-miterlimit="4" transform="matrix(1 0 0 1 0 10.913385826771654)" d="M 0 0m 2.1259842 0 c -1.173084 0 -2.1259842 0.9529002 -2.1259842 2.1259842 c 0 1.1730843 0.9529002 2.1259842 2.1259842 2.1259842 c 1.1730843 0 2.1259842 -0.95289993 2.1259842 -2.1259842 c 0 -1.173084 -0.95289993 -2.1259842 -2.1259842 -2.1259842 Z "/>
                <path class="typst-shape" fill="#aaaaaa" fill-rule="nonzero" transform="matrix(1 0 0 1 0.8503937007873992 2.692913385826771)" d="M 0 0m 1.2755905 0 c -0.70385045 0 -1.2755905 0.5717401 -1.2755905 1.2755905 c 0 0.7038505 0.5717401 1.2755905 1.2755905 1.2755905 c 0.7038505 0 1.2755905 -0.57174003 1.2755905 -1.2755905 c 0 -0.70385045 -0.57174003 -1.2755905 -1.2755905 -1.2755905 Z "/>
                <path class="typst-shape" fill="#aaaaaa" fill-rule="nonzero" transform="matrix(1 0 0 1 9.921259842519685 38.976377952755904)" d="M 0 0m 1.2755905 0 c -0.70385045 0 -1.2755905 0.5717401 -1.2755905 1.2755905 c 0 0.7038505 0.5717401 1.2755905 1.2755905 1.2755905 c 0.7038505 0 1.2755905 -0.57174003 1.2755905 -1.2755905 c 0 -0.70385045 -0.57174003 -1.2755905 -1.2755905 -1.2755905 Z "/>
                <path class="typst-shape" fill="#4e79a7" fill-rule="nonzero" stroke="#1a1a1a" stroke-width="0.4" stroke-linecap="butt" stroke-linejoin="miter" stroke-miterlimit="4" transform="matrix(1 0 0 1 9.070866141732282 29.05511811023622)" d="M 0 0m 2.1259842 0 c -1.173084 0 -2.1259842 0.9529002 -2.1259842 2.1259842 c 0 1.1730843 0.9529002 2.1259842 2.1259842 2.1259842 c 1.1730843 0 2.1259842 -0.95289993 2.1259842 -2.1259842 c 0 -1.173084 -0.95289993 -2.1259842 -2.1259842 -2.1259842 Z "/>
                <path class="typst-shape" fill="#4e79a7" fill-rule="nonzero" stroke="#1a1a1a" stroke-width="0.4" stroke-linecap="butt" stroke-linejoin="miter" stroke-miterlimit="4" transform="matrix(1 0 0 1 9.070866141732282 19.98425196850394)" d="M 0 0m 2.1259842 0 c -1.173084 0 -2.1259842 0.9529002 -2.1259842 2.1259842 c 0 1.1730843 0.9529002 2.1259842 2.1259842 2.1259842 c 1.1730843 0 2.1259842 -0.95289993 2.1259842 -2.1259842 c 0 -1.173084 -0.95289993 -2.1259842 -2.1259842 -2.1259842 Z "/>
                <path class="typst-shape" fill="#4e79a7" fill-rule="nonzero" stroke="#1a1a1a" stroke-width="0.4" stroke-linecap="butt" stroke-linejoin="miter" stroke-miterlimit="4" transform="matrix(1 0 0 1 9.070866141732282 10.913385826771654)" d="M 0 0m 2.1259842 0 c -1.173084 0 -2.1259842 0.9529002 -2.1259842 2.1259842 c 0 1.1730843 0.9529002 2.1259842 2.1259842 2.1259842 c 1.1730843 0 2.1259842 -0.95289993 2.1259842 -2.1259842 c 0 -1.173084 -0.95289993 -2.1259842 -2.1259842 -2.1259842 Z "/>
                <path class="typst-shape" fill="#aaaaaa" fill-rule="nonzero" transform="matrix(1 0 0 1 9.921259842519685 2.692913385826771)" d="M 0 0m 1.2755905 0 c -0.70385045 0 -1.2755905 0.5717401 -1.2755905 1.2755905 c 0 0.7038505 0.5717401 1.2755905 1.2755905 1.2755905 c 0.7038505 0 1.2755905 -0.57174003 1.2755905 -1.2755905 c 0 -0.70385045 -0.57174003 -1.2755905 -1.2755905 -1.2755905 Z "/>
                <path class="typst-shape" fill="#4e79a7" fill-rule="nonzero" stroke="#1a1a1a" stroke-width="0.4" stroke-linecap="butt" stroke-linejoin="miter" stroke-miterlimit="4" transform="matrix(1 0 0 1 18.141732283464567 38.12598425196851)" d="M 0 0m 2.1259842 0 c -1.173084 0 -2.1259842 0.9529002 -2.1259842 2.1259842 c 0 1.1730843 0.9529002 2.1259842 2.1259842 2.1259842 c 1.1730843 0 2.1259842 -0.95289993 2.1259842 -2.1259842 c 0 -1.173084 -0.95289993 -2.1259842 -2.1259842 -2.1259842 Z "/>
                <path class="typst-shape" fill="#4e79a7" fill-rule="nonzero" stroke="#1a1a1a" stroke-width="0.4" stroke-linecap="butt" stroke-linejoin="miter" stroke-miterlimit="4" transform="matrix(1 0 0 1 18.141732283464567 29.05511811023622)" d="M 0 0m 2.1259842 0 c -1.173084 0 -2.1259842 0.9529002 -2.1259842 2.1259842 c 0 1.1730843 0.9529002 2.1259842 2.1259842 2.1259842 c 1.1730843 0 2.1259842 -0.95289993 2.1259842 -2.1259842 c 0 -1.173084 -0.95289993 -2.1259842 -2.1259842 -2.1259842 Z "/>
                <path class="typst-shape" fill="#4e79a7" fill-rule="nonzero" stroke="#1a1a1a" stroke-width="0.4" stroke-linecap="butt" stroke-linejoin="miter" stroke-miterlimit="4" transform="matrix(1 0 0 1 18.141732283464567 19.98425196850394)" d="M 0 0m 2.1259842 0 c -1.173084 0 -2.1259842 0.9529002 -2.1259842 2.1259842 c 0 1.1730843 0.9529002 2.1259842 2.1259842 2.1259842 c 1.1730843 0 2.1259842 -0.95289993 2.1259842 -2.1259842 c 0 -1.173084 -0.95289993 -2.1259842 -2.1259842 -2.1259842 Z "/>
                <path class="typst-shape" fill="#4e79a7" fill-rule="nonzero" stroke="#1a1a1a" stroke-width="0.4" stroke-linecap="butt" stroke-linejoin="miter" stroke-miterlimit="4" transform="matrix(1 0 0 1 18.141732283464567 10.913385826771654)" d="M 0 0m 2.1259842 0 c -1.173084 0 -2.1259842 0.9529002 -2.1259842 2.1259842 c 0 1.1730843 0.9529002 2.1259842 2.1259842 2.1259842 c 1.1730843 0 2.1259842 -0.95289993 2.1259842 -2.1259842 c 0 -1.173084 -0.95289993 -2.1259842 -2.1259842 -2.1259842 Z "/>
                <path class="typst-shape" fill="#4e79a7" fill-rule="nonzero" stroke="#1a1a1a" stroke-width="0.4" stroke-linecap="butt" stroke-linejoin="miter" stroke-miterlimit="4" transform="matrix(1 0 0 1 18.141732283464567 1.8425196850393717)" d="M 0 0m 2.1259842 0 c -1.173084 0 -2.1259842 0.9529002 -2.1259842 2.1259842 c 0 1.1730843 0.9529002 2.1259842 2.1259842 2.1259842 c 1.1730843 0 2.1259842 -0.95289993 2.1259842 -2.1259842 c 0 -1.173084 -0.95289993 -2.1259842 -2.1259842 -2.1259842 Z "/>
                <path class="typst-shape" fill="#aaaaaa" fill-rule="nonzero" transform="matrix(1 0 0 1 28.062992125984252 38.976377952755904)" d="M 0 0m 1.2755905 0 c -0.70385045 0 -1.2755905 0.5717401 -1.2755905 1.2755905 c 0 0.7038505 0.5717401 1.2755905 1.2755905 1.2755905 c 0.7038505 0 1.2755905 -0.57174003 1.2755905 -1.2755905 c 0 -0.70385045 -0.57174003 -1.2755905 -1.2755905 -1.2755905 Z "/>
                <path class="typst-shape" fill="#4e79a7" fill-rule="nonzero" stroke="#1a1a1a" stroke-width="0.4" stroke-linecap="butt" stroke-linejoin="miter" stroke-miterlimit="4" transform="matrix(1 0 0 1 27.212598425196852 29.05511811023622)" d="M 0 0m 2.1259842 0 c -1.173084 0 -2.1259842 0.9529002 -2.1259842 2.1259842 c 0 1.1730843 0.9529002 2.1259842 2.1259842 2.1259842 c 1.1730843 0 2.1259842 -0.95289993 2.1259842 -2.1259842 c 0 -1.173084 -0.95289993 -2.1259842 -2.1259842 -2.1259842 Z "/>
                <path class="typst-shape" fill="#4e79a7" fill-rule="nonzero" stroke="#1a1a1a" stroke-width="0.4" stroke-linecap="butt" stroke-linejoin="miter" stroke-miterlimit="4" transform="matrix(1 0 0 1 27.212598425196852 19.98425196850394)" d="M 0 0m 2.1259842 0 c -1.173084 0 -2.1259842 0.9529002 -2.1259842 2.1259842 c 0 1.1730843 0.9529002 2.1259842 2.1259842 2.1259842 c 1.1730843 0 2.1259842 -0.95289993 2.1259842 -2.1259842 c 0 -1.173084 -0.95289993 -2.1259842 -2.1259842 -2.1259842 Z "/>
                <path class="typst-shape" fill="#4e79a7" fill-rule="nonzero" stroke="#1a1a1a" stroke-width="0.4" stroke-linecap="butt" stroke-linejoin="miter" stroke-miterlimit="4" transform="matrix(1 0 0 1 27.212598425196852 10.913385826771654)" d="M 0 0m 2.1259842 0 c -1.173084 0 -2.1259842 0.9529002 -2.1259842 2.1259842 c 0 1.1730843 0.9529002 2.1259842 2.1259842 2.1259842 c 1.1730843 0 2.1259842 -0.95289993 2.1259842 -2.1259842 c 0 -1.173084 -0.95289993 -2.1259842 -2.1259842 -2.1259842 Z "/>
                <path class="typst-shape" fill="#aaaaaa" fill-rule="nonzero" transform="matrix(1 0 0 1 28.062992125984252 2.692913385826771)" d="M 0 0m 1.2755905 0 c -0.70385045 0 -1.2755905 0.5717401 -1.2755905 1.2755905 c 0 0.7038505 0.5717401 1.2755905 1.2755905 1.2755905 c 0.7038505 0 1.2755905 -0.57174003 1.2755905 -1.2755905 c 0 -0.70385045 -0.57174003 -1.2755905 -1.2755905 -1.2755905 Z "/>
                <path class="typst-shape" fill="#aaaaaa" fill-rule="nonzero" transform="matrix(1 0 0 1 37.13385826771653 38.976377952755904)" d="M 0 0m 1.2755905 0 c -0.70385045 0 -1.2755905 0.5717401 -1.2755905 1.2755905 c 0 0.7038505 0.5717401 1.2755905 1.2755905 1.2755905 c 0.7038505 0 1.2755905 -0.57174003 1.2755905 -1.2755905 c 0 -0.70385045 -0.57174003 -1.2755905 -1.2755905 -1.2755905 Z "/>
                <path class="typst-shape" fill="#4e79a7" fill-rule="nonzero" stroke="#1a1a1a" stroke-width="0.4" stroke-linecap="butt" stroke-linejoin="miter" stroke-miterlimit="4" transform="matrix(1 0 0 1 36.28346456692913 29.05511811023622)" d="M 0 0m 2.1259842 0 c -1.173084 0 -2.1259842 0.9529002 -2.1259842 2.1259842 c 0 1.1730843 0.9529002 2.1259842 2.1259842 2.1259842 c 1.1730843 0 2.1259842 -0.95289993 2.1259842 -2.1259842 c 0 -1.173084 -0.95289993 -2.1259842 -2.1259842 -2.1259842 Z "/>
                <path class="typst-shape" fill="#4e79a7" fill-rule="nonzero" stroke="#1a1a1a" stroke-width="0.4" stroke-linecap="butt" stroke-linejoin="miter" stroke-miterlimit="4" transform="matrix(1 0 0 1 36.28346456692913 19.98425196850394)" d="M 0 0m 2.1259842 0 c -1.173084 0 -2.1259842 0.9529002 -2.1259842 2.1259842 c 0 1.1730843 0.9529002 2.1259842 2.1259842 2.1259842 c 1.1730843 0 2.1259842 -0.95289993 2.1259842 -2.1259842 c 0 -1.173084 -0.95289993 -2.1259842 -2.1259842 -2.1259842 Z "/>
                <path class="typst-shape" fill="#59a14f" fill-rule="nonzero" stroke="#1a1a1a" stroke-width="0.5" stroke-linecap="butt" stroke-linejoin="miter" stroke-miterlimit="4" transform="matrix(1 0 0 1 34.724409448818896 9.354330708661417)" d="M 0 0m 3.6850393 0 c -2.0333457 0 -3.6850393 1.6516936 -3.6850393 3.6850393 c 0 2.033346 1.6516936 3.6850393 3.6850393 3.6850393 c 2.033346 0 3.6850393 -1.6516933 3.6850393 -3.6850393 c 0 -2.0333457 -1.6516933 -3.6850393 -3.6850393 -3.6850393 Z "/>
                <path class="typst-shape" fill="#aaaaaa" fill-rule="nonzero" transform="matrix(1 0 0 1 37.13385826771653 2.692913385826771)" d="M 0 0m 1.2755905 0 c -0.70385045 0 -1.2755905 0.5717401 -1.2755905 1.2755905 c 0 0.7038505 0.5717401 1.2755905 1.2755905 1.2755905 c 0.7038505 0 1.2755905 -0.57174003 1.2755905 -1.2755905 c 0 -0.70385045 -0.57174003 -1.2755905 -1.2755905 -1.2755905 Z "/>
                <path class="typst-shape" fill="none" stroke="#4c8943" stroke-width="1" stroke-linecap="butt" stroke-linejoin="miter" stroke-miterlimit="4" transform="matrix(1 0 0 1 4.677165354330707 25.951822431535078)" d="M 0 0m 0 11.748965 l 11.748965 -11.748965 "/>
                <path class="typst-shape" fill="none" stroke="#4c8943" stroke-width="1" stroke-linecap="butt" stroke-linejoin="miter" stroke-miterlimit="4" transform="matrix(1 0 0 1 13.670104188188976 25.951802456692914)" d="M 0 0m 0 1.2527483 l 2.756046 -1.2527483 l -1.2527481 2.756046 "/>
            </g>
        </g>
    </g>
</svg>
