<svg class="typst-doc" viewBox="0 0 56.425196850393704 56.425196850393704" width="56.425196850393704pt" height="56.425196850393704pt" xmlns="http://www.w3.org/2000/svg" xmlns:xlink="http://www.w3.org/1999/xlink" xmlns:h5="http://www.w3.org/1999/xhtml">
    <g>
        <g class="typst-group" transform="matrix(1 0 0 1 1 1)">
            <g>
                <path class="typst-shape" fill="none" stroke="#e1e1e1" stroke-width="0.4" stroke-linecap="butt" stroke-linejoin="miter" stroke-miterlimit="4" transform="matrix(1 0 0 1 0 0.2834645669291341)" d="M 0 0m 0 53.85827 v -53.85827 "/>
                <path class="typst-shape" fill="none" stroke="#e1e1e1" stroke-width="0.4" stroke-linecap="butt" stroke-linejoin="miter" stroke-miterlimit="4" transform="matrix(1 0 0 1 0.2834645669291341 54.425196850393704)" d="M 0 0h 53.85827 "/>
                <path class="typst-shape" fill="none" stroke="#e1e1e1" stroke-width="0.4" stroke-linecap="butt" stroke-linejoin="miter" stroke-miterlimit="4" transform="matrix(1 0 0 1 9.070866141732282 0.2834645669291341)" d="M 0 0m 0 53.85827 v -53.85827 "/>
                <path class="typst-shape" fill="none" stroke="#e1e1e1" stroke-width="0.4" stroke-linecap="butt" stroke-linejoin="miter" stroke-miterlimit="4" transform="matrix(1 0 0 1 0.2834645669291341 45.354330708661415)" d="M 0 0h 53.85827 "/>
                <path class="typst-shape" fill="none" stroke="#e1e1e1" stroke-width="0.4" stroke-linecap="butt" stroke-linejoin="miter" stroke-miterlimit="4" transform="matrix(1 0 0 1 18.141732283464563 0.2834645669291341)" d="M 0 0m 0 53.85827 v -53.85827 "/>
                <path class="typst-shape" fill="none" stroke="#e1e1e1" stroke-width="0.4" stroke-linecap="butt" stroke-linejoin="miter" stroke-miterlimit="4" transform="matrix(1 0 0 1 0.2834645669291341 36.28346456692913)" d="M 0 0h 53.85827 "/>
                <path class="typst-shape" fill="none" stroke="#e1e1e1" stroke-width="0.4" stroke-linecap="butt" stroke-linejoin="miter" stroke-miterlimit="4" transform="matrix(1 0 0 1 27.212598425196852 0.2834645669291341)" d="M 0 0m 0 53.85827 v -53.85827 "/>
                <path class="typst-shape" fill="none" stroke="#e1e1e1" stroke-width="0.4" stroke-linecap="butt" stroke-linejoin="miter" stroke-miterlimit="4" transform="matrix(1 0 0 1 0.2834645669291341 27.212598425196852)" d="M 0 0h 53.85827 "/>
                <path class="typst-shape" fill="none" stroke="#e1e1e1" stroke-width="0.4" stroke-linecap="butt" stroke-linejoin="miter" stroke-miterlimit="4" transform="matrix(1 0 0 1 36.28346456692913 0.2834645669291341)" d="M 0 0m 0 53.85827 v -53.85827 "/>
                <path class="typst-shape" fill="none" stroke="#e1e1e1" stroke-width="0.4" stroke-linecap="butt" stroke-linejoin="miter" stroke-miterlimit="4" transform="matrix(1 0 0 1 0.2834645669291341 18.141732283464563)" d="M 0 0h 53.85827 "/>
                <path class="typst-shape" fill="none" stroke="#e1e1e1" stroke-width="0.4" stroke-linecap="butt" stroke-linejoin="miter" stroke-miterlimit="4" transform="matrix(1 0 0 1 45.354330708661415 0.2834645669291341)" d="M 0 0m 0 53.85827 v -53.85827 "/>
                <path class="typst-shape" fill="none" stroke="#e1e1e1" stroke-width="0.4" stroke-linecap="butt" stroke-linejoin="miter" stroke-miterlimit="4" transform="matrix(1 0 0 1 0.2834645669291341 9.070866141732282)" d="M 0 0h 53.85827 "/>
                <path class="typst-shape" fill="none" stroke="#e1e1e1" stroke-width="0.4" stroke-linecap="butt" stroke-linejoin="miter" stroke-miterlimit="4" transform="matrix(1 0 0 1 54.425196850393704 0.2834645669291341)" d="M 0 0m 0 53.85827 v -53.85827 "/>
                <path class="typst-shape" fill="none" stroke="#e1e1e1" stroke-width="0.4" stroke-linecap="butt" stroke-linejoin="miter" stroke-miterlimit="4" transform="matrix(1 0 0 1 0.2834645669291341 0)" d="M 0 0h 53.85827 "/>
                <path class="typst-shape" fill="#fce8d5" fill-rule="nonzero" stroke="#e68729" stroke-width="1.2" stroke-linecap="butt" stroke-linejoin="miter" stroke-miterlimit="4" transform="matrix(1 0 0 1 4.535433070866139 4.535433070866139)" d="M 0 0m 0 31.181103 l 11.338583 -29.76378 l 26.929132 -1.4173229 l 9.921261 21.259842 l -15.590549 24.09449 l -32.598427 -14.173229 Z "/>
                <path class="typst-shape" fill="#404040" fill-rule="nonzero" transform="matrix(1 0 0 1 16.58267716535433 34.724409448818896)" d="M 0 0m 1.5590551 0 c -0.8602616 0 -1.5590551 0.6987935 -1.5590551 1.5590551 c 0 0.8602617 0.6987935 1.5590551 1.5590551 1.5590551 c 0.8602617 0 1.5590551 -0.6987934 1.5590551 -1.5590551 c 0 -0.8602616 -0.6987934 -1.5590551 -1.5590551 -1.5590551 Z "/>
                <path class="typst-shape" fill="#404040" fill-rule="nonzero" transform="matrix(1 0 0 1 25.65354330708661 34.724409448818896)" d="M 0 0m 1.5590551 0 c -0.8602616 0 -1.5590551 0.6987935 -1.5590551 1.5590551 c 0 0.8602617 0.6987935 1.5590551 1.5590551 1.5590551 c 0.8602617 0 1.5590551 -0.6987934 1.5590551 -1.5590551 c 0 -0.8602616 -0.6987934 -1.5590551 -1.5590551 -1.5590551 Z "/>
                <path class="typst-shape" fill="#404040" fill-rule="nonzero" transform="matrix(1 0 0 1 34.724409448818896 34.724409448818896)" d="M 0 0m 1.5590551 0 c -0.8602616 0 -1.5590551 0.6987935 -1.5590551 1.5590551 c 0 0.8602617 0.6987935 1.5590551 1.5590551 1.5590551 c 0.8602617 0 1.5590551 -0.6987934 1.5590551 -1.5590551 c 0 -0.8602616 -0.6987934 -1.5590551 -1.5590551 -1.5590551 Z "/>
                <path class="typst-shape" fill="#404040" fill-rule="nonzero" transform="matrix(1 0 0 1 16.58267716535433 25.65354330708661)" d="M 0 0m 1.5590551 0 c -0.8602616 0 -1.5590551 0.6987935 -1.5590551 1.5590551 c 0 0.8602617 0.6987935 1.5590551 1.5590551 1.5590551 c 0.8602617 0 1.5590551 -0.6987934 1.5590551 -1.5590551 c 0 -0.8602616 -0.6987934 -1.5590551 -1.5590551 -1.5590551 Z "/>
                <path class="typst-shape" fill="#404040" fill-rule="nonzero" transform="matrix(1 0 0 1 25.65354330708661 25.65354330708661)" d="M 0 0m 1.5590551 0 c -0.8602616 0 -1.5590551 0.6987935 -1.5590551 1.5590551 c 0 0.8602617 0.6987935 1.5590551 1.5590551 1.5590551 c 0.8602617 0 1.5590551 -0.6987934 1.5590551 -1.5590551 c 0 -0.8602616 -0.6987934 -1.5590551 -1.5590551 -1.5590551 Z "/>
                <path class="typst-shape" fill="#404040" fill-rule="nonzero" transform="matrix(1 0 0 1 34.724409448818896 25.65354330708661)" d="M 0 0m 1.5590551 0 c -0.8602616 0 -1.5590551 0.6987935 -1.5590551 1.5590551 c 0 0.8602617 0.6987935 1.5590551 1.5590551 1.5590551 c 0.8602617 0 1.5590551 -0.6987934 1.5590551 -1.5590551 c 0 -0.8602616 -0.6987934 -1.5590551 -1.5590551 -1.5590551 Z "/>
                <path class="typst-shape" fill="#404040" fill-rule="nonzero" transform="matrix(1 0 0 1 43.79527559055118 25.65354330708661)" d="M 0 0m 1.5590551 0 c -0.8602616 0 -1.5590551 0.6987935 -1.5590551 1.5590551 c 0 0.8602617 0.6987935 1.5590551 1.5590551 1.5590551 c 0.8602617 0 1.5590551 -0.6987934 1.5590551 -1.5590551 c 0 -0.8602616 -0.6987934 -1.5590551 -1.5590551 -1.5590551 Z "/>
                <path class="typst-shape" fill="#404040" fill-rule="nonzero" transform="matrix(1 0 0 1 16.58267716535433 16.58267716535433)" d="M 0 0m 1.5590551 0 c -0.8602616 0 -1.5590551 0.6987935 -1.5590551 1.5590551 c 0 0.8602617 0.6987935 1.5590551 1.5590551 1.5590551 c 0.8602617 0 1.5590551 -0.6987934 1.5590551 -1.5590551 c 0 -0.8602616 -0.6987934 -1.5590551 -1.5590551 -1.5590551 Z "/>
                <path class="typst-shape" fill="#404040" fill-rule="nonzero" transform="matrix(1 0 0 1 25.65354330708661 16.58267716535433)" d="M 0 0m 1.5590551 0 c -0.8602616 0 -1.5590551 0.6987935 -1.5590551 1.5590551 c 0 0.8602617 0.6987935 1.5590551 1.5590551 1.5590551 c 0.8602617 0 1.5590551 -0.6987934 1.5590551 -1.5590551 c 0 -0.8602616 -0.6987934 -1.5590551 -1.5590551 -1.5590551 Z "/>
                <path class="typst-shape" fill="#404040" fill-rule="nonzero" transform="matrix(1 0 0 1 34.724409448818896 16.58267716535433)" d="M 0 0m 1.5590551 0 c -0.8602616 0 -1.5590551 0.6987935 -1.5590551 1.5590551 c 0 0.8602617 0.6987935 1.5590551 1.5590551 1.5590551 c 0.8602617 0 1.5590551 -0.6987934 1.5590551 -1.5590551 c 0 -0.8602616 -0.6987934 -1.5590551 -1.5590551 -1.5590551 Z "/>
                <path class="typst-shape" fill="#404040" fill-rule="nonzero" transform="matrix(1 0 0 1 25.65354330708661 7.511811023622045)" d="M 0 0m 1.5590551 0 c -0.8602616 0 -1.5590551 0.6987935 -1.5590551 1.5590551 c 0 0.8602617 0.6987935 1.5590551 1.5590551 1.5590551 c 0.8602617 0 1.5590551 -0.6987934 1.5590551 -1.5590551 c 0 -0.8602616 -0.6987934 -1.5590551 -1.5590551 -1.5590551 Z "/>
                <path class="typst-shape" fill="#59a14f" fill-rule="nonzero" stroke="#1a1a1a" stroke-width="0.5" stroke-linecap="butt" stroke-linejoin="miter" stroke-miterlimit="4" transform="matrix(1 0 0 1 41.669291338582674 14.456692913385826)" d="M 0 0m 3.6850393 0 c -2.0333457 0 -3.6850393 1.6516936 -3.6850393 3.6850393 c 0 2.033346 1.6516936 3.6850393 3.6850393 3.6850393 c 2.033346 0 3.6850393 -1.6516933 3.6850393 -3.6850393 c 0 -2.0333457 -1.6516933 -3.6850393 -3.6850393 -3.6850393 Z "/>
                <path class="typst-shape" fill="none" stroke="#47813f" stroke-width="1" stroke-linecap="butt" stroke-linejoin="miter" stroke-miterlimit="4" transform="matrix(1 0 0 1 11.622047244094487 33.888830305550826)" d="M 0 0m 0 8.914319 l 8.914319 -8.914319 "/>
                <path class="typst-shape" fill="none" stroke="#47813f" stroke-width="1" stroke-linecap="butt" stroke-linejoin="miter" stroke-miterlimit="4" transform="matrix(1 0 0 1 17.780340408661417 33.888810330708665)" d="M 0 0m 0 1.2527483 l 2.756046 -1.2527483 l -1.2527481 2.756046 "/>
            </g>
        </g>
    </g>
</svg>
