<svg class="typst-doc" viewBox="0 0 81.37007874015748 81.37007874015748" width="81.37007874015748pt" height="81.37007874015748pt" xmlns="http://www.w3.org/2000/svg" xmlns:xlink="http://www.w3.org/1999/xlink" xmlns:h5="http://www.w3.org/1999/xhtml">
    <g>
        <g class="typst-group" transform="matrix(1 0 0 1 1 1)">
            <g>
                <path class="typst-shape" fill="#ffffff" fill-rule="nonzero" stroke="#aac4e9" stroke-width="2" stroke-linecap="butt" stroke-linejoin="miter" stroke-miterlimit="4" d="M 0 0m 39.68504 0 c -21.89757 0 -39.68504 17.78747 -39.68504 39.68504 c 0 21.897568 17.78747 39.68504 39.68504 39.68504 c 21.897568 0 39.68504 -17.787472 39.68504 -39.68504 c 0 -21.89757 -17.787472 -39.68504 -39.68504 -39.68504 Z "/>
                <path class="typst-shape" fill="none" stroke="#333333" stroke-width="0.8" stroke-linecap="butt" stroke-linejoin="miter" stroke-miterlimit="4" transform="matrix(1 0 0 1 39.68503937007874 15.590551181102361)" d="M 0 0l 22.913858 16.649292 "/>
                <path class="typst-shape" fill="none" stroke="#333333" stroke-width="0.8" stroke-linecap="butt" stroke-linejoin="miter" stroke-miterlimit="4" transform="matrix(1 0 0 1 53.852598425196845 32.239842519685034)" d="M 0 0m 8.746299 0 l -8.746299 26.937637 "/>
                <path class="typst-shape" fill="none" stroke="#333333" stroke-width="0.8" stroke-linecap="butt" stroke-linejoin="miter" stroke-miterlimit="4" transform="matrix(1 0 0 1 25.51748031496063 59.17748031496063)" d="M 0 0m 28.335117 0 h -28.335117 "/>
                <path class="typst-shape" fill="none" stroke="#333333" stroke-width="0.8" stroke-linecap="butt" stroke-linejoin="miter" stroke-miterlimit="4" transform="matrix(1 0 0 1 16.771181102362206 32.239842519685034)" d="M 0 0m 8.746299 26.937637 l -8.746299 -26.937637 "/>
                <path class="typst-shape" fill="none" stroke="#333333" stroke-width="0.8" stroke-linecap="butt" stroke-linejoin="miter" stroke-miterlimit="4" transform="matrix(1 0 0 1 16.771181102362206 15.590551181102361)" d="M 0 0m 0 16.649292 l 22.913858 -16.649292 "/>
                <path class="typst-shape" fill="#42678e" fill-rule="nonzero" stroke="#324d6a" stroke-width="0.5" stroke-linecap="butt" stroke-linejoin="miter" stroke-miterlimit="4" transform="matrix(1 0 0 1 35.43307086614173 11.338582677165352)" d="M 0 0m 4.2519684 0 c -2.346168 0 -4.2519684 1.9058003 -4.2519684 4.2519684 c 0 2.3461685 1.9058003 4.2519684 4.2519684 4.2519684 c 2.3461685 0 4.2519684 -1.9057999 4.2519684 -4.2519684 c 0 -2.346168 -1.9057999 -4.2519684 -4.2519684 -4.2519684 Z "/>
                <path class="typst-shape" fill="#4e79a7" fill-rule="nonzero" stroke="#3b5b7d" stroke-width="0.5" stroke-linecap="butt" stroke-linejoin="miter" stroke-miterlimit="4" transform="matrix(1 0 0 1 58.34692913385826 27.98787401574803)" d="M 0 0m 4.2519684 0 c -2.346168 0 -4.2519684 1.9058003 -4.2519684 4.2519684 c 0 2.3461685 1.9058003 4.2519684 4.2519684 4.2519684 c 2.3461685 0 4.2519684 -1.9057999 4.2519684 -4.2519684 c 0 -2.346168 -1.9057999 -4.2519684 -4.2519684 -4.2519684 Z "/>
                <path class="typst-shape" fill="#42678e" fill-rule="nonzero" stroke="#324d6a" stroke-width="0.5" stroke-linecap="butt" stroke-linejoin="miter" stroke-miterlimit="4" transform="matrix(1 0 0 1 49.60062992125984 54.92551181102362)" d="M 0 0m 4.2519684 0 c -2.346168 0 -4.2519684 1.9058003 -4.2519684 4.2519684 c 0 2.3461685 1.9058003 4.2519684 4.2519684 4.2519684 c 2.3461685 0 4.2519684 -1.9057999 4.2519684 -4.2519684 c 0 -2.346168 -1.9057999 -4.2519684 -4.2519684 -4.2519684 Z "/>
                <path class="typst-shape" fill="#4e79a7" fill-rule="nonzero" stroke="#3b5b7d" stroke-width="0.5" stroke-linecap="butt" stroke-linejoin="miter" stroke-miterlimit="4" transform="matrix(1 0 0 1 21.26551181102362 54.92551181102362)" d="M 0 0m 4.2519684 0 c -2.346168 0 -4.2519684 1.9058003 -4.2519684 4.2519684 c 0 2.3461685 1.9058003 4.2519684 4.2519684 4.2519684 c 2.3461685 0 4.2519684 -1.9057999 4.2519684 -4.2519684 c 0 -2.346168 -1.9057999 -4.2519684 -4.2519684 -4.2519684 Z "/>
                <path class="typst-shape" fill="#9eb5cf" fill-rule="nonzero" stroke="#76889b" stroke-width="0.5" stroke-linecap="butt" stroke-linejoin="miter" stroke-miterlimit="4" transform="matrix(1 0 0 1 12.519212598425197 27.98787401574803)" d="M 0 0m 4.2519684 0 c -2.346168 0 -4.2519684 1.9058003 -4.2519684 4.2519684 c 0 2.3461685 1.9058003 4.2519684 4.2519684 4.2519684 c 2.3461685 0 4.2519684 -1.9057999 4.2519684 -4.2519684 c 0 -2.346168 -1.9057999 -4.2519684 -4.2519684 -4.2519684 Z "/>
            </g>
        </g>
    </g>
</svg>
