<svg class="typst-doc" viewBox="0 0 81.37007874015748 81.37007874015748" width="81.37007874015748pt" height="81.37007874015748pt" xmlns="http://www.w3.org/2000/svg" xmlns:xlink="http://www.w3.org/1999/xlink" xmlns:h5="http://www.w3.org/1999/xhtml">
    <g>
        <g class="typst-group" transform="matrix(1 0 0 1 1 1)">
            <g>
                <path class="typst-shape" fill="#ffffff" fill-rule="nonzero" stroke="#aac4e9" stroke-width="2" stroke-linecap="butt" stroke-linejoin="miter" stroke-miterlimit="4" d="M 0 0m 39.68504 0 c -21.89757 0 -39.68504 17.78747 -39.68504 39.68504 c 0 21.897568 17.78747 39.68504 39.68504 39.68504 c 21.897568 0 39.68504 -17.787472 39.68504 -39.68504 c 0 -21.89757 -17.787472 -39.68504 -39.68504 -39.68504 Z "/>
                <path class="typst-shape" fill="none" stroke="#333333" stroke-width="0.8" stroke-linecap="butt" stroke-linejoin="miter" stroke-miterlimit="4" transform="matrix(1 0 0 1 39.68503937007874 21.259842519685037)" d="M 0 0l 17.522362 12.731811 "/>
                <path class="typst-shape" fill="none" stroke="#333333" stroke-width="0.8" stroke-linecap="butt" stroke-linejoin="miter" stroke-miterlimit="4" transform="matrix(1 0 0 1 50.51905511811024 33.99165354330708)" d="M 0 0m 6.6883464 0 l -6.6883464 20.599371 "/>
                <path class="typst-shape" fill="none" stroke="#333333" stroke-width="0.8" stroke-linecap="butt" stroke-linejoin="miter" stroke-miterlimit="4" transform="matrix(1 0 0 1 28.85102362204724 54.591023622047246)" d="M 0 0m 21.668032 0 h -21.668032 "/>
                <path class="typst-shape" fill="none" stroke="#333333" stroke-width="0.8" stroke-linecap="butt" stroke-linejoin="miter" stroke-miterlimit="4" transform="matrix(1 0 0 1 22.162677165354328 33.99165354330708)" d="M 0 0m 6.6883464 20.599371 l -6.6883464 -20.599371 "/>
                <path class="typst-shape" fill="none" stroke="#333333" stroke-width="0.8" stroke-linecap="butt" stroke-linejoin="miter" stroke-miterlimit="4" transform="matrix(1 0 0 1 22.162677165354328 21.259842519685037)" d="M 0 0m 0 12.731811 l 17.522362 -12.731811 "/>
                <path class="typst-shape" fill="#4e79a7" fill-rule="nonzero" stroke="#3b5b7d" stroke-width="0.5" stroke-linecap="butt" stroke-linejoin="miter" stroke-miterlimit="4" transform="matrix(1 0 0 1 36 17.574803149606296)" d="M 0 0m 3.6850393 0 c -2.0333457 0 -3.6850393 1.6516936 -3.6850393 3.6850393 c 0 2.033346 1.6516936 3.6850393 3.6850393 3.6850393 c 2.033346 0 3.6850393 -1.6516933 3.6850393 -3.6850393 c 0 -2.0333457 -1.6516933 -3.6850393 -3.6850393 -3.6850393 Z "/>
                <path class="typst-shape" fill="#f28e2b" fill-rule="nonzero" stroke="#b66a20" stroke-width="0.5" stroke-linecap="butt" stroke-linejoin="miter" stroke-miterlimit="4" transform="matrix(1 0 0 1 53.52236220472441 30.306614173228347)" d="M 0 0m 3.6850393 0 c -2.0333457 0 -3.6850393 1.6516936 -3.6850393 3.6850393 c 0 2.033346 1.6516936 3.6850393 3.6850393 3.6850393 c 2.033346 0 3.6850393 -1.6516933 3.6850393 -3.6850393 c 0 -2.0333457 -1.6516933 -3.6850393 -3.6850393 -3.6850393 Z "/>
                <path class="typst-shape" fill="#4e79a7" fill-rule="nonzero" stroke="#3b5b7d" stroke-width="0.5" stroke-linecap="butt" stroke-linejoin="miter" stroke-miterlimit="4" transform="matrix(1 0 0 1 46.83401574803149 50.9059842519685)" d="M 0 0m 3.6850393 0 c -2.0333457 0 -3.6850393 1.6516936 -3.6850393 3.6850393 c 0 2.033346 1.6516936 3.6850393 3.6850393 3.6850393 c 2.033346 0 3.6850393 -1.6516933 3.6850393 -3.6850393 c 0 -2.0333457 -1.6516933 -3.6850393 -3.6850393 -3.6850393 Z "/>
                <path class="typst-shape" fill="#f28e2b" fill-rule="nonzero" stroke="#b66a20" stroke-width="0.5" stroke-linecap="butt" stroke-linejoin="miter" stroke-miterlimit="4" transform="matrix(1 0 0 1 25.165984251968503 50.9059842519685)" d="M 0 0m 3.6850393 0 c -2.0333457 0 -3.6850393 1.6516936 -3.6850393 3.6850393 c 0 2.033346 1.6516936 3.6850393 3.6850393 3.6850393 c 2.033346 0 3.6850393 -1.6516933 3.6850393 -3.6850393 c 0 -2.0333457 -1.6516933 -3.6850393 -3.6850393 -3.6850393 Z "/>
                <path class="typst-shape" fill="#aaaaaa" fill-rule="nonzero" stroke="#808080" stroke-width="0.5" stroke-linecap="butt" stroke-linejoin="miter" stroke-miterlimit="4" transform="matrix(1 0 0 1 18.47763779527559 30.306614173228347)" d="M 0 0m 3.6850393 0 c -2.0333457 0 -3.6850393 1.6516936 -3.6850393 3.6850393 c 0 2.033346 1.6516936 3.6850393 3.6850393 3.6850393 c 2.033346 0 3.6850393 -1.6516933 3.6850393 -3.6850393 c 0 -2.0333457 -1.6516933 -3.6850393 -3.6850393 -3.6850393 Z "/>
                <path class="typst-shape" fill="none" transform="matrix(1 0 0 1 23.098150481189847 64.5138188976378)" d="M 0 0h 33.17378 v 9.87 h -33.17378 v -9.87 Z "/>
                <g class="typst-group">
                    <g>
                        <g class="typst-group" transform="matrix(1 0 0 1 23.098150346456695 64.5138188503937)">
                            <g>
                                <g class="typst-text" transform="matrix(1 0 0 -1 0 9.562)">
                                    <use xlink:href="#g32EB16F4D3B99734709C01D84194EA1A" x="0" y="0" fill="#282828" fill-rule="nonzero"/>
                                </g>
                                <g class="typst-text" transform="matrix(1 0 0 -1 11.392888888888889 9.562)">
                                    <use xlink:href="#g2A4084421414AE051DDEC66D9D529DF" x="0" y="0" fill="#282828" fill-rule="nonzero"/>
                                </g>
                                <g class="typst-text" transform="matrix(1 0 0 -1 26.173777777777776 9.562)">
                                    <use xlink:href="#gE48A488784DC16939779F7392AAA3F2C" x="0" y="0" fill="#282828" fill-rule="nonzero"/>
                                </g>
                            </g>
                        </g>
                    </g>
                </g>
            </g>
        </g>
    </g>
    <defs id="glyph">
        <symbol id="g32EB16F4D3B99734709C01D84194EA1A" overflow="visible">
            <path d="M 0 0m 5.7260003 4.9420004 c 0 -0.36400032 0.1960001 -0.5460005 0.5739999 -0.5460005 c 0.49000025 0 0.8119998 0.43400002 0.8119998 0.9100003 c 0 0.546 -0.44799995 0.9239998 -0.99399996 0.9239998 c -0.62999964 0 -1.302 -0.42000008 -2.0439997 -1.2459998 c -0.57400036 -0.6300001 -1.0360003 -1.036 -1.4140003 -1.2180002 l 1.4140003 5.7400007 c -0.028000355 0.12599945 -0.056000233 0.21000004 -0.23800015 0.21000004 c -0.4480002 0 -1.5120001 -0.1260004 -1.6800001 -0.14000034 c -0.21000004 -0.027999878 -0.3080001 -0.12599945 -0.3080001 -0.3359995 c 0 -0.14000034 0.12600005 -0.21000004 0.37800002 -0.21000004 c 0.26600003 0 0.6300001 0.013999939 0.6300001 -0.18200016 l -2.0300002 -8.246 c -0.041999996 -0.15399998 -0.055999994 -0.25199997 -0.055999994 -0.308 c 0 -0.294 0.15399998 -0.448 0.448 -0.448 c 0.23800004 0 0.41999996 0.111999996 0.518 0.32200003 c 0.07000005 0.12599999 0.32200003 1.12 0.77 2.996 c 0.72800016 -0.06999993 1.4980001 -0.41999984 1.4980001 -1.1199999 c 0 -0.21000004 -0.09800005 -0.6300001 -0.09800005 -0.7700001 c 0 -0.79800004 0.5180001 -1.4280001 1.316 -1.4280001 c 0.8120003 0 1.3580003 0.728 1.638 2.184 c 0 0.12600017 -0.069999695 0.1960001 -0.21000004 0.1960001 c -0.12599993 0 -0.21000004 -0.09800005 -0.25199986 -0.29400003 c -0.3080001 -1.106 -0.6859999 -1.666 -1.1480002 -1.666 c -0.25199986 0 -0.37799978 0.19600001 -0.37799978 0.58800006 c 0 0.22400004 0.16799974 0.9800001 0.16799974 1.204 c 0 0.7980001 -0.64400005 1.2880001 -1.9459999 1.484 c 0.32200003 0.22399998 0.6860001 0.54600024 1.0779998 0.9660003 c 0.3920002 0.4199996 0.6720004 0.6859999 0.8540001 0.8399997 c 0.37800026 0.3080001 0.7420001 0.4619999 1.0640001 0.4619999 c 0.13999987 0 0.25199986 -0.027999878 0.33599997 -0.083999634 c -0.37799978 -0.07000017 -0.6999998 -0.42000008 -0.6999998 -0.7839999 Z "/>
        </symbol>
        <symbol id="g2A4084421414AE051DDEC66D9D529DF" overflow="visible">
            <path d="M 0 0m 9.772 5.138 h -8.652 c -0.22399998 0 -0.33599997 -0.11199999 -0.33599997 -0.32200003 c 0 -0.21000004 0.11199999 -0.32200003 0.33599997 -0.32200003 h 8.652 c 0.22399998 0 0.33600044 0.11199999 0.33600044 0.32200003 c 0 0.16800022 -0.15400028 0.32200003 -0.33600044 0.32200003 Z m 0 -2.632 h -8.652 c -0.22399998 0 -0.33599997 -0.11199999 -0.33599997 -0.32200003 c 0 -0.20999992 0.11199999 -0.3219999 0.33599997 -0.3219999 h 8.652 c 0.22399998 0 0.33600044 0.11199999 0.33600044 0.3219999 c 0 0.18200016 -0.15400028 0.32200003 -0.33600044 0.32200003 Z "/>
        </symbol>
        <symbol id="gE48A488784DC16939779F7392AAA3F2C" overflow="visible">
            <path d="M 0 0m 4.242 4.9420004 c 0.92400026 0.3499999 1.7920003 1.2319999 1.7920003 2.422 c 0 0.60199976 -0.29400015 1.092 -0.86800003 1.4700003 c -0.5040002 0.32199955 -1.0780001 0.48999977 -1.7220004 0.48999977 c -0.6299999 0 -1.1759999 -0.16800022 -1.666 -0.48999977 c -0.546 -0.36400032 -0.826 -0.84000015 -0.826 -1.4420004 c 0 -0.4619999 0.30799997 -0.7839999 0.75600004 -0.7839999 c 0.44800007 0 0.7559999 0.32200003 0.7559999 0.77 c 0 0.4619999 -0.26600003 0.71399975 -0.798 0.7419996 c 0.36399996 0.49000072 0.9380001 0.7420006 1.722 0.7420006 c 0.84000015 0 1.2600002 -0.48999977 1.2600002 -1.4840002 c 0 -0.5879998 -0.11199999 -1.0780001 -0.32200003 -1.4840002 c -0.37800002 -0.67199993 -0.89600015 -0.79799986 -1.7640002 -0.79799986 c -0.16799998 -0.027999878 -0.25199986 -0.09800005 -0.25199986 -0.22399998 c 0 -0.21000004 0.09799981 -0.21000004 0.37800002 -0.21000004 h 0.602 c 1.05 0 1.582 -0.7420001 1.582 -2.24 c 0 -1.1900002 -0.43400002 -2.226 -1.4980001 -2.226 c -0.9100001 0 -1.582 0.308 -1.988 0.924 c 0.49 -0.013999939 0.854 0.35000002 0.854 0.8260001 c 0 0.47600007 -0.3499999 0.826 -0.826 0.826 c -0.546 0 -0.82600003 -0.27999997 -0.82600003 -0.854 c 0 -0.6860001 0.30800003 -1.2320001 0.9240001 -1.6660001 c 0.546 -0.37800002 1.19 -0.56 1.904 -0.56 c 0.7980001 0 1.484 0.266 2.0860002 0.78400004 c 0.60199976 0.518 0.8959999 1.162 0.8959999 1.9460001 c 0 1.316 -1.0360003 2.226 -2.1560001 2.5200002 Z "/>
        </symbol>
    </defs>
</svg>
