<svg class="typst-doc" viewBox="0 0 81.37007874015748 81.37007874015748" width="81.37007874015748pt" height="81.37007874015748pt" xmlns="http://www.w3.org/2000/svg" xmlns:xlink="http://www.w3.org/1999/xlink" xmlns:h5="http://www.w3.org/1999/xhtml">
    <g>
        <g class="typst-group" transform="matrix(1 0 0 1 1 1)">
            <g>
                <path class="typst-shape" fill="#ffffff" fill-rule="nonzero" stroke="#aac4e9" stroke-width="2" stroke-linecap="butt" stroke-linejoin="miter" stroke-miterlimit="4" d="M 0 0m 39.68504 0 c -21.89757 0 -39.68504 17.78747 -39.68504 39.68504 c 0 21.897568 17.78747 39.68504 39.68504 39.68504 c 21.897568 0 39.68504 -17.787472 39.68504 -39.68504 c 0 -21.89757 -17.787472 -39.68504 -39.68504 -39.68504 Z "/>
                <path class="typst-shape" fill="none" stroke="#333333" stroke-width="0.8" stroke-linecap="butt" stroke-linejoin="miter" stroke-miterlimit="4" transform="matrix(1 0 0 1 39.68503937007874 12.755905511811022)" d="M 0 0l 25.609606 18.608032 "/>
                <path class="typst-shape" fill="none" stroke="#333333" stroke-width="0.8" stroke-linecap="butt" stroke-linejoin="miter" stroke-miterlimit="4" transform="matrix(1 0 0 1 55.51937007874016 31.363937007874014)" d="M 0 0m 9.775275 0 l -9.775275 30.106771 "/>
                <path class="typst-shape" fill="none" stroke="#333333" stroke-width="0.8" stroke-linecap="butt" stroke-linejoin="miter" stroke-miterlimit="4" transform="matrix(1 0 0 1 23.85070866141732 61.47070866141731)" d="M 0 0m 31.668661 0 h -31.668661 "/>
                <path class="typst-shape" fill="none" stroke="#333333" stroke-width="0.8" stroke-linecap="butt" stroke-linejoin="miter" stroke-miterlimit="4" transform="matrix(1 0 0 1 14.075433070866143 31.363937007874014)" d="M 0 0m 9.775275 30.106771 l -9.775275 -30.106771 "/>
                <path class="typst-shape" fill="none" stroke="#333333" stroke-width="0.8" stroke-linecap="butt" stroke-linejoin="miter" stroke-miterlimit="4" transform="matrix(1 0 0 1 14.075433070866143 12.755905511811022)" d="M 0 0m 0 18.608032 l 25.609606 -18.608032 "/>
                <path class="typst-shape" fill="none" stroke="#333333" stroke-width="0.8" stroke-linecap="butt" stroke-linejoin="miter" stroke-miterlimit="4" transform="matrix(1 0 0 1 39.68503937007874 12.755905511811022)" d="M 0 0m 0 26.929134 v -26.929134 "/>
                <path class="typst-shape" fill="none" stroke="#333333" stroke-width="0.8" stroke-linecap="butt" stroke-linejoin="miter" stroke-miterlimit="4" transform="matrix(1 0 0 1 39.68503937007874 31.363937007874014)" d="M 0 0m 0 8.321102 l 25.609606 -8.321102 "/>
                <path class="typst-shape" fill="none" stroke="#333333" stroke-width="0.8" stroke-linecap="butt" stroke-linejoin="miter" stroke-miterlimit="4" transform="matrix(1 0 0 1 39.68503937007874 39.68503937007874)" d="M 0 0l 15.834331 21.78567 "/>
                <path class="typst-shape" fill="none" stroke="#333333" stroke-width="0.8" stroke-linecap="butt" stroke-linejoin="miter" stroke-miterlimit="4" transform="matrix(1 0 0 1 23.85070866141732 39.68503937007874)" d="M 0 0m 15.834331 0 l -15.834331 21.78567 "/>
                <path class="typst-shape" fill="none" stroke="#333333" stroke-width="0.8" stroke-linecap="butt" stroke-linejoin="miter" stroke-miterlimit="4" transform="matrix(1 0 0 1 14.075433070866143 31.363937007874014)" d="M 0 0m 25.609606 8.321102 l -25.609606 -8.321102 "/>
                <path class="typst-shape" fill="#f1c40f" fill-rule="nonzero" stroke="#333333" stroke-width="0.5" stroke-linecap="butt" stroke-linejoin="miter" stroke-miterlimit="4" transform="matrix(1 0 0 1 36 9.070866141732278)" d="M 0 0m 3.6850393 0 c -2.0333457 0 -3.6850393 1.6516936 -3.6850393 3.6850393 c 0 2.033346 1.6516936 3.6850393 3.6850393 3.6850393 c 2.033346 0 3.6850393 -1.6516933 3.6850393 -3.6850393 c 0 -2.0333457 -1.6516933 -3.6850393 -3.6850393 -3.6850393 Z "/>
                <path class="typst-shape" fill="#59a14f" fill-rule="nonzero" stroke="#333333" stroke-width="0.5" stroke-linecap="butt" stroke-linejoin="miter" stroke-miterlimit="4" transform="matrix(1 0 0 1 61.609606299212594 27.678897637795274)" d="M 0 0m 3.6850393 0 c -2.0333457 0 -3.6850393 1.6516936 -3.6850393 3.6850393 c 0 2.033346 1.6516936 3.6850393 3.6850393 3.6850393 c 2.033346 0 3.6850393 -1.6516933 3.6850393 -3.6850393 c 0 -2.0333457 -1.6516933 -3.6850393 -3.6850393 -3.6850393 Z "/>
                <path class="typst-shape" fill="#9b59b6" fill-rule="nonzero" stroke="#333333" stroke-width="0.5" stroke-linecap="butt" stroke-linejoin="miter" stroke-miterlimit="4" transform="matrix(1 0 0 1 51.83433070866141 57.78566929133858)" d="M 0 0m 3.6850393 0 c -2.0333457 0 -3.6850393 1.6516936 -3.6850393 3.6850393 c 0 2.033346 1.6516936 3.6850393 3.6850393 3.6850393 c 2.033346 0 3.6850393 -1.6516933 3.6850393 -3.6850393 c 0 -2.0333457 -1.6516933 -3.6850393 -3.6850393 -3.6850393 Z "/>
                <path class="typst-shape" fill="#4e79a7" fill-rule="nonzero" stroke="#333333" stroke-width="0.5" stroke-linecap="butt" stroke-linejoin="miter" stroke-miterlimit="4" transform="matrix(1 0 0 1 20.165669291338578 57.78566929133858)" d="M 0 0m 3.6850393 0 c -2.0333457 0 -3.6850393 1.6516936 -3.6850393 3.6850393 c 0 2.033346 1.6516936 3.6850393 3.6850393 3.6850393 c 2.033346 0 3.6850393 -1.6516933 3.6850393 -3.6850393 c 0 -2.0333457 -1.6516933 -3.6850393 -3.6850393 -3.6850393 Z "/>
                <path class="typst-shape" fill="#e42f29" fill-rule="nonzero" stroke="#333333" stroke-width="0.5" stroke-linecap="butt" stroke-linejoin="miter" stroke-miterlimit="4" transform="matrix(1 0 0 1 10.390393700787406 27.678897637795274)" d="M 0 0m 3.6850393 0 c -2.0333457 0 -3.6850393 1.6516936 -3.6850393 3.6850393 c 0 2.033346 1.6516936 3.6850393 3.6850393 3.6850393 c 2.033346 0 3.6850393 -1.6516933 3.6850393 -3.6850393 c 0 -2.0333457 -1.6516933 -3.6850393 -3.6850393 -3.6850393 Z "/>
                <path class="typst-shape" fill="#f28e2b" fill-rule="nonzero" stroke="#333333" stroke-width="0.5" stroke-linecap="butt" stroke-linejoin="miter" stroke-miterlimit="4" transform="matrix(1 0 0 1 36 36)" d="M 0 0m 3.6850393 0 c -2.0333457 0 -3.6850393 1.6516936 -3.6850393 3.6850393 c 0 2.033346 1.6516936 3.6850393 3.6850393 3.6850393 c 2.033346 0 3.6850393 -1.6516933 3.6850393 -3.6850393 c 0 -2.0333457 -1.6516933 -3.6850393 -3.6850393 -3.6850393 Z "/>
            </g>
        </g>
    </g>
</svg>
