<svg class="typst-doc" viewBox="0 0 81.37007874015748 81.37007874015748" width="81.37007874015748pt" height="81.37007874015748pt" xmlns="http://www.w3.org/2000/svg" xmlns:xlink="http://www.w3.org/1999/xlink" xmlns:h5="http://www.w3.org/1999/xhtml">
    <g>
        <g class="typst-group" transform="matrix(1 0 0 1 1 1)">
            <g>
                <path class="typst-shape" fill="#f6f9fe" fill-rule="nonzero" stroke="#aac4e9" stroke-width="1" stroke-linecap="butt" stroke-linejoin="miter" stroke-miterlimit="4" d="M 0 0m 39.68504 0 c -21.89757 0 -39.68504 17.78747 -39.68504 39.68504 c 0 21.897568 17.78747 39.68504 39.68504 39.68504 c 21.897568 0 39.68504 -17.787472 39.68504 -39.68504 c 0 -21.89757 -17.787472 -39.68504 -39.68504 -39.68504 Z "/>
                <path class="typst-shape" fill="#e42f29" fill-rule="nonzero" stroke="#000000" stroke-width="0.5" stroke-linecap="butt" stroke-linejoin="miter" stroke-miterlimit="4" transform="matrix(1 0 0 1 25.511811023622045 11.338582677165352)" d="M 0 0m 2.8346457 0 c -1.5641122 0 -2.8346457 1.2705336 -2.8346457 2.8346457 c 0 1.5641122 1.2705336 2.8346457 2.8346457 2.8346457 c 1.5641122 0 2.8346457 -1.2705336 2.8346457 -2.8346457 c 0 -1.5641122 -1.2705336 -2.8346457 -2.8346457 -2.8346457 Z "/>
                <path class="typst-shape" fill="#e42f29" fill-rule="nonzero" stroke="#000000" stroke-width="0.5" stroke-linecap="butt" stroke-linejoin="miter" stroke-miterlimit="4" transform="matrix(1 0 0 1 11.338582677165352 25.511811023622045)" d="M 0 0m 2.8346457 0 c -1.5641122 0 -2.8346457 1.2705336 -2.8346457 2.8346457 c 0 1.5641122 1.2705336 2.8346457 2.8346457 2.8346457 c 1.5641122 0 2.8346457 -1.2705336 2.8346457 -2.8346457 c 0 -1.5641122 -1.2705336 -2.8346457 -2.8346457 -2.8346457 Z "/>
                <path class="typst-shape" fill="#e42f29" fill-rule="nonzero" stroke="#000000" stroke-width="0.5" stroke-linecap="butt" stroke-linejoin="miter" stroke-miterlimit="4" transform="matrix(1 0 0 1 22.677165354330704 39.68503937007874)" d="M 0 0m 2.8346457 0 c -1.5641122 0 -2.8346457 1.2705336 -2.8346457 2.8346457 c 0 1.5641122 1.2705336 2.8346457 2.8346457 2.8346457 c 1.5641122 0 2.8346457 -1.2705336 2.8346457 -2.8346457 c 0 -1.5641122 -1.2705336 -2.8346457 -2.8346457 -2.8346457 Z "/>
                <path class="typst-shape" fill="#e42f29" fill-rule="nonzero" stroke="#000000" stroke-width="0.5" stroke-linecap="butt" stroke-linejoin="miter" stroke-miterlimit="4" transform="matrix(1 0 0 1 17.007874015748033 53.85826771653543)" d="M 0 0m 2.8346457 0 c -1.5641122 0 -2.8346457 1.2705336 -2.8346457 2.8346457 c 0 1.5641122 1.2705336 2.8346457 2.8346457 2.8346457 c 1.5641122 0 2.8346457 -1.2705336 2.8346457 -2.8346457 c 0 -1.5641122 -1.2705336 -2.8346457 -2.8346457 -2.8346457 Z "/>
                <path class="typst-shape" fill="#4e79a7" fill-rule="nonzero" stroke="#000000" stroke-width="0.5" stroke-linecap="butt" stroke-linejoin="miter" stroke-miterlimit="4" transform="matrix(1 0 0 1 53.85826771653543 22.677165354330704)" d="M 0 0m 2.8346457 0 c -1.5641122 0 -2.8346457 1.2705336 -2.8346457 2.8346457 c 0 1.5641122 1.2705336 2.8346457 2.8346457 2.8346457 c 1.5641122 0 2.8346457 -1.2705336 2.8346457 -2.8346457 c 0 -1.5641122 -1.2705336 -2.8346457 -2.8346457 -2.8346457 Z "/>
                <path class="typst-shape" fill="#4e79a7" fill-rule="nonzero" stroke="#000000" stroke-width="0.5" stroke-linecap="butt" stroke-linejoin="miter" stroke-miterlimit="4" transform="matrix(1 0 0 1 60.94488188976378 39.68503937007874)" d="M 0 0m 2.8346457 0 c -1.5641122 0 -2.8346457 1.2705336 -2.8346457 2.8346457 c 0 1.5641122 1.2705336 2.8346457 2.8346457 2.8346457 c 1.5641122 0 2.8346457 -1.2705336 2.8346457 -2.8346457 c 0 -1.5641122 -1.2705336 -2.8346457 -2.8346457 -2.8346457 Z "/>
                <path class="typst-shape" fill="#4e79a7" fill-rule="nonzero" stroke="#000000" stroke-width="0.5" stroke-linecap="butt" stroke-linejoin="miter" stroke-miterlimit="4" transform="matrix(1 0 0 1 51.02362204724409 56.69291338582677)" d="M 0 0m 2.8346457 0 c -1.5641122 0 -2.8346457 1.2705336 -2.8346457 2.8346457 c 0 1.5641122 1.2705336 2.8346457 2.8346457 2.8346457 c 1.5641122 0 2.8346457 -1.2705336 2.8346457 -2.8346457 c 0 -1.5641122 -1.2705336 -2.8346457 -2.8346457 -2.8346457 Z "/>
                <path class="typst-shape" fill="none" stroke="#333333" stroke-width="0.8" stroke-linecap="butt" stroke-linejoin="miter" stroke-miterlimit="4" stroke-dashoffset="0" stroke-dasharray="3 2" transform="matrix(1 0 0 1 30.978697838391504 15.226124804647942)" d="M 0 0l 23.081974 9.23279 "/>
                <path class="typst-shape" fill="none" stroke="#333333" stroke-width="0.8" stroke-linecap="butt" stroke-linejoin="miter" stroke-miterlimit="4" stroke-dashoffset="0" stroke-dasharray="3 2" transform="matrix(1 0 0 1 30.559461087386655 15.943631862035305)" d="M 0 0l 31.007063 24.805649 "/>
                <path class="typst-shape" fill="none" stroke="#333333" stroke-width="0.8" stroke-linecap="butt" stroke-linejoin="miter" stroke-miterlimit="4" stroke-dashoffset="0" stroke-dasharray="3 2" transform="matrix(1 0 0 1 16.89927959351588 29.12532847778744)" d="M 0 0l 44.154198 12.615485 "/>
                <path class="typst-shape" fill="none" stroke="#333333" stroke-width="0.8" stroke-linecap="butt" stroke-linejoin="miter" stroke-miterlimit="4" stroke-dashoffset="0" stroke-dasharray="3 2" transform="matrix(1 0 0 1 28.00031643765573 26.86917761309496)" d="M 0 0m 0 14.29314 l 26.204092 -14.29314 "/>
                <path class="typst-shape" fill="none" stroke="#333333" stroke-width="0.8" stroke-linecap="butt" stroke-linejoin="miter" stroke-miterlimit="4" stroke-dashoffset="0" stroke-dasharray="3 2" transform="matrix(1 0 0 1 22.540729648449968 43.39007535014769)" d="M 0 0m 0 12.432447 l 38.54059 -12.432447 "/>
                <path class="typst-shape" fill="none" stroke="#333333" stroke-width="0.8" stroke-linecap="butt" stroke-linejoin="miter" stroke-miterlimit="4" stroke-dashoffset="0" stroke-dasharray="3 2" transform="matrix(1 0 0 1 22.66750282190013 56.92832864723184)" d="M 0 0l 28.365782 2.363815 "/>
                <path class="typst-shape" fill="none" stroke="#333333" stroke-width="0.8" stroke-linecap="butt" stroke-linejoin="miter" stroke-miterlimit="4" transform="matrix(1 0 0 1 16.17709322834646 16.177093228346454)" d="M 0 0m 10.165499 0 l -10.165499 10.165499 "/>
                <path class="typst-shape" fill="none" stroke="#333333" stroke-width="0.8" stroke-linecap="butt" stroke-linejoin="miter" stroke-miterlimit="4" transform="matrix(1 0 0 1 15.943631862035309 30.559461087386655)" d="M 0 0m 7.7977757 9.747219 l -7.7977757 -9.747219 "/>
                <path class="typst-shape" fill="none" stroke="#333333" stroke-width="0.8" stroke-linecap="butt" stroke-linejoin="miter" stroke-miterlimit="4" transform="matrix(1 0 0 1 20.89541614323062 45.1519261848482)" d="M 0 0m 3.5634985 0 l -3.5634985 8.908746 "/>
                <path class="typst-shape" fill="none" stroke="#333333" stroke-width="0.8" stroke-linecap="butt" stroke-linejoin="miter" stroke-miterlimit="4" transform="matrix(1 0 0 1 57.78328830232813 28.128710823225305)" d="M 0 0l 4.9058642 11.774075 "/>
                <path class="typst-shape" fill="none" stroke="#333333" stroke-width="0.8" stroke-linecap="butt" stroke-linejoin="miter" stroke-miterlimit="4" transform="matrix(1 0 0 1 55.2864980603426 44.96807991446809)" d="M 0 0m 7.0647993 0 l -7.0647993 12.111084 "/>
            </g>
        </g>
    </g>
</svg>
