<svg class="typst-doc" viewBox="0 0 81.37007874015748 81.37007874015748" width="81.37007874015748pt" height="81.37007874015748pt" xmlns="http://www.w3.org/2000/svg" xmlns:xlink="http://www.w3.org/1999/xlink" xmlns:h5="http://www.w3.org/1999/xhtml">
    <g>
        <g class="typst-group" transform="matrix(1 0 0 1 1 1)">
            <g>
                <path class="typst-shape" fill="#ffffff" fill-rule="nonzero" stroke="#aac4e9" stroke-width="2" stroke-linecap="butt" stroke-linejoin="miter" stroke-miterlimit="4" d="M 0 0m 39.68504 0 c -21.89757 0 -39.68504 17.78747 -39.68504 39.68504 c 0 21.897568 17.78747 39.68504 39.68504 39.68504 c 21.897568 0 39.68504 -17.787472 39.68504 -39.68504 c 0 -21.89757 -17.787472 -39.68504 -39.68504 -39.68504 Z "/>
                <path class="typst-shape" fill="none" stroke="#333333" stroke-width="0.9" stroke-linecap="round" stroke-linejoin="miter" stroke-miterlimit="4" transform="matrix(1 0 0 1 14.173228346456689 21.259842519685037)" d="M 0 0m 9.92126 0 l -9.92126 17.007874 "/>
                <path class="typst-shape" fill="none" stroke="#333333" stroke-width="0.9" stroke-linecap="round" stroke-linejoin="miter" stroke-miterlimit="4" transform="matrix(1 0 0 1 14.173228346456689 38.26771653543307)" d="M 0 0l 12.755905 17.007874 "/>
                <path class="typst-shape" fill="none" stroke="#333333" stroke-width="0.9" stroke-linecap="round" stroke-linejoin="miter" stroke-miterlimit="4" transform="matrix(1 0 0 1 53.85826771653543 19.84251968503937)" d="M 0 0l 9.92126 19.84252 "/>
                <path class="typst-shape" fill="none" stroke="#333333" stroke-width="0.9" stroke-linecap="round" stroke-linejoin="miter" stroke-miterlimit="4" transform="matrix(1 0 0 1 55.275590551181104 39.68503937007874)" d="M 0 0m 8.503937 0 l -8.503937 15.590551 "/>
                <path class="typst-shape" fill="none" stroke="#333333" stroke-width="0.9" stroke-linecap="round" stroke-linejoin="miter" stroke-miterlimit="4" transform="matrix(1 0 0 1 24.094488188976374 19.84251968503937)" d="M 0 0m 0 1.4173229 l 29.763779 -1.4173229 "/>
                <path class="typst-shape" fill="none" stroke="#333333" stroke-width="0.9" stroke-linecap="round" stroke-linejoin="miter" stroke-miterlimit="4" transform="matrix(1 0 0 1 24.094488188976374 21.259842519685037)" d="M 0 0l 39.68504 18.425198 "/>
                <path class="typst-shape" fill="none" stroke="#333333" stroke-width="0.9" stroke-linecap="round" stroke-linejoin="miter" stroke-miterlimit="4" transform="matrix(1 0 0 1 14.173228346456689 38.26771653543307)" d="M 0 0l 49.6063 1.4173229 "/>
                <path class="typst-shape" fill="none" stroke="#333333" stroke-width="0.9" stroke-linecap="round" stroke-linejoin="miter" stroke-miterlimit="4" transform="matrix(1 0 0 1 26.929133858267715 55.275590551181104)" d="M 0 0h 28.346457 "/>
                <path class="typst-shape" fill="none" stroke="#333333" stroke-width="0.9" stroke-linecap="round" stroke-linejoin="miter" stroke-miterlimit="4" transform="matrix(1 0 0 1 26.929133858267715 39.68503937007874)" d="M 0 0m 0 15.590551 l 36.850395 -15.590551 "/>
                <path class="typst-shape" fill="#e42f29" fill-rule="nonzero" stroke="#ab231f" stroke-width="0.6" stroke-linecap="butt" stroke-linejoin="miter" stroke-miterlimit="4" transform="matrix(1 0 0 1 20.1259842519685 17.291338582677163)" d="M 0 0m 3.968504 0 c -2.1897569 0 -3.968504 1.778747 -3.968504 3.968504 c 0 2.1897569 1.778747 3.968504 3.968504 3.968504 c 2.1897569 0 3.968504 -1.7787471 3.968504 -3.968504 c 0 -2.1897569 -1.7787471 -3.968504 -3.968504 -3.968504 Z "/>
                <path class="typst-shape" fill="#e42f29" fill-rule="nonzero" stroke="#ab231f" stroke-width="0.6" stroke-linecap="butt" stroke-linejoin="miter" stroke-miterlimit="4" transform="matrix(1 0 0 1 10.204724409448815 34.2992125984252)" d="M 0 0m 3.968504 0 c -2.1897569 0 -3.968504 1.778747 -3.968504 3.968504 c 0 2.1897569 1.778747 3.968504 3.968504 3.968504 c 2.1897569 0 3.968504 -1.7787471 3.968504 -3.968504 c 0 -2.1897569 -1.7787471 -3.968504 -3.968504 -3.968504 Z "/>
                <path class="typst-shape" fill="#e42f29" fill-rule="nonzero" stroke="#ab231f" stroke-width="0.6" stroke-linecap="butt" stroke-linejoin="miter" stroke-miterlimit="4" transform="matrix(1 0 0 1 22.960629921259837 51.30708661417323)" d="M 0 0m 3.968504 0 c -2.1897569 0 -3.968504 1.778747 -3.968504 3.968504 c 0 2.1897569 1.778747 3.968504 3.968504 3.968504 c 2.1897569 0 3.968504 -1.7787471 3.968504 -3.968504 c 0 -2.1897569 -1.7787471 -3.968504 -3.968504 -3.968504 Z "/>
                <path class="typst-shape" fill="#4e79a7" fill-rule="nonzero" stroke="#3b5b7d" stroke-width="0.6" stroke-linecap="butt" stroke-linejoin="miter" stroke-miterlimit="4" transform="matrix(1 0 0 1 49.88976377952755 15.874015748031495)" d="M 0 0m 3.968504 0 c -2.1897569 0 -3.968504 1.778747 -3.968504 3.968504 c 0 2.1897569 1.778747 3.968504 3.968504 3.968504 c 2.1897569 0 3.968504 -1.7787471 3.968504 -3.968504 c 0 -2.1897569 -1.7787471 -3.968504 -3.968504 -3.968504 Z "/>
                <path class="typst-shape" fill="#4e79a7" fill-rule="nonzero" stroke="#3b5b7d" stroke-width="0.6" stroke-linecap="butt" stroke-linejoin="miter" stroke-miterlimit="4" transform="matrix(1 0 0 1 59.811023622047244 35.71653543307086)" d="M 0 0m 3.968504 0 c -2.1897569 0 -3.968504 1.778747 -3.968504 3.968504 c 0 2.1897569 1.778747 3.968504 3.968504 3.968504 c 2.1897569 0 3.968504 -1.7787471 3.968504 -3.968504 c 0 -2.1897569 -1.7787471 -3.968504 -3.968504 -3.968504 Z "/>
                <path class="typst-shape" fill="#4e79a7" fill-rule="nonzero" stroke="#3b5b7d" stroke-width="0.6" stroke-linecap="butt" stroke-linejoin="miter" stroke-miterlimit="4" transform="matrix(1 0 0 1 51.30708661417323 51.30708661417323)" d="M 0 0m 3.968504 0 c -2.1897569 0 -3.968504 1.778747 -3.968504 3.968504 c 0 2.1897569 1.778747 3.968504 3.968504 3.968504 c 2.1897569 0 3.968504 -1.7787471 3.968504 -3.968504 c 0 -2.1897569 -1.7787471 -3.968504 -3.968504 -3.968504 Z "/>
                <path class="typst-shape" fill="none" stroke="#e68729" stroke-width="1.1" stroke-linecap="round" stroke-linejoin="miter" stroke-miterlimit="4" stroke-dashoffset="0" stroke-dasharray="3 2" transform="matrix(1 0 0 1 35.793705204250756 8.50393700787401)" d="M 0 0m 5.308657 0 c -3.2985177 4.7688355 -6.5732265 10.131077 -4.8188977 15.590551 c 1.7234155 5.3632717 8.091348 8.419266 8.503937 14.173227 c 0.38908005 5.4261093 -4.7755284 9.16177 -6.519685 14.173229 c -2.1700182 6.2350807 1.0227597 12.620293 4.2519684 18.425198 "/>
            </g>
        </g>
    </g>
</svg>
