<svg class="typst-doc" viewBox="0 0 81.37007874015748 81.37007874015748" width="81.37007874015748pt" height="81.37007874015748pt" xmlns="http://www.w3.org/2000/svg" xmlns:xlink="http://www.w3.org/1999/xlink" xmlns:h5="http://www.w3.org/1999/xhtml">
    <g>
        <g class="typst-group" transform="matrix(1 0 0 1 1 1)">
            <g>
                <path class="typst-shape" fill="#ffffff" fill-rule="nonzero" stroke="#aac4e9" stroke-width="2" stroke-linecap="butt" stroke-linejoin="miter" stroke-miterlimit="4" d="M 0 0m 39.68504 0 c -21.89757 0 -39.68504 17.78747 -39.68504 39.68504 c 0 21.897568 17.78747 39.68504 39.68504 39.68504 c 21.897568 0 39.68504 -17.787472 39.68504 -39.68504 c 0 -21.89757 -17.787472 -39.68504 -39.68504 -39.68504 Z "/>
                <path class="typst-shape" fill="#e1e1e1" fill-rule="nonzero" stroke="#1a1a1a" stroke-width="0.7" stroke-linecap="butt" stroke-linejoin="miter" stroke-miterlimit="4" transform="matrix(1 0 0 1 5.669291338582676 15.023622047244093)" d="M 0 0m 1.1338583 0 c -0.6256449 0 -1.1338583 0.5082134 -1.1338583 1.1338583 v 7.3700786 c 0 0.6256447 0.5082134 1.1338587 1.1338583 1.1338587 h 14.740157 c 0.6256447 0 1.1338577 -0.508214 1.1338577 -1.1338587 v -7.3700786 c 0 -0.6256449 -0.50821304 -1.1338583 -1.1338577 -1.1338583 h -14.740157 Z "/>
                <path class="typst-shape" fill="#e1e1e1" fill-rule="nonzero" stroke="#1a1a1a" stroke-width="0.7" stroke-linecap="butt" stroke-linejoin="miter" stroke-miterlimit="4" transform="matrix(1 0 0 1 22.677165354330704 15.023622047244093)" d="M 0 0m 1.1338583 0 c -0.6256449 0 -1.1338583 0.5082134 -1.1338583 1.1338583 v 7.3700786 c 0 0.6256447 0.5082134 1.1338587 1.1338583 1.1338587 h 7.9370084 c 0.6256447 0 1.1338577 -0.508214 1.1338577 -1.1338587 v -7.3700786 c 0 -0.6256449 -0.50821304 -1.1338583 -1.1338577 -1.1338583 h -7.9370084 Z "/>
                <path class="typst-shape" fill="#e1e1e1" fill-rule="nonzero" stroke="#1a1a1a" stroke-width="0.7" stroke-linecap="butt" stroke-linejoin="miter" stroke-miterlimit="4" transform="matrix(1 0 0 1 32.881889763779526 15.023622047244093)" d="M 0 0m 1.1338583 0 c -0.6256449 0 -1.1338583 0.5082134 -1.1338583 1.1338583 v 7.3700786 c 0 0.6256447 0.5082134 1.1338587 1.1338583 1.1338587 h 11.338582 c 0.6256447 0 1.1338587 -0.508214 1.1338587 -1.1338587 v -7.3700786 c 0 -0.6256449 -0.508214 -1.1338583 -1.1338587 -1.1338583 h -11.338582 Z "/>
                <path class="typst-shape" fill="#e1e1e1" fill-rule="nonzero" stroke="#1a1a1a" stroke-width="0.7" stroke-linecap="butt" stroke-linejoin="miter" stroke-miterlimit="4" transform="matrix(1 0 0 1 46.488188976377955 15.023622047244093)" d="M 0 0m 1.1338583 0 c -0.6256449 0 -1.1338583 0.5082134 -1.1338583 1.1338583 v 7.3700786 c 0 0.6256447 0.5082134 1.1338587 1.1338583 1.1338587 h 4.5354333 c 0.6256447 0 1.1338582 -0.508214 1.1338582 -1.1338587 v -7.3700786 c 0 -0.6256449 -0.5082135 -1.1338583 -1.1338582 -1.1338583 h -4.5354333 Z "/>
                <path class="typst-shape" fill="#e1e1e1" fill-rule="nonzero" stroke="#1a1a1a" stroke-width="0.7" stroke-linecap="butt" stroke-linejoin="miter" stroke-miterlimit="4" transform="matrix(1 0 0 1 53.29133858267716 15.023622047244093)" d="M 0 0m 1.1338583 0 c -0.6256449 0 -1.1338583 0.5082134 -1.1338583 1.1338583 v 7.3700786 c 0 0.6256447 0.5082134 1.1338587 1.1338583 1.1338587 h 18.141733 c 0.6256447 0 1.1338577 -0.508214 1.1338577 -1.1338587 v -7.3700786 c 0 -0.6256449 -0.50821304 -1.1338583 -1.1338577 -1.1338583 h -18.141733 Z "/>
                <path class="typst-shape" fill="none" stroke="#333333" stroke-width="0.9" stroke-linecap="round" stroke-linejoin="miter" stroke-miterlimit="4" transform="matrix(1 0 0 1 39.68503937007874 28.34645669291338)" d="M 0 0v 11.474277 "/>
                <path class="typst-shape" fill="none" stroke="#333333" stroke-width="0.9" stroke-linecap="round" stroke-linejoin="miter" stroke-miterlimit="4" transform="matrix(1 0 0 1 38.62204724409448 36.98611596850394)" d="M 0 0m 2.1259842 0 l -1.0629921 2.8346457 l -1.0629921 -2.8346457 "/>
                <path class="typst-shape" fill="#8ca8c6" fill-rule="nonzero" stroke="#1a1a1a" stroke-width="0.7" stroke-linecap="butt" stroke-linejoin="miter" stroke-miterlimit="4" transform="matrix(1 0 0 1 2.834645669291335 53.29133858267716)" d="M 0 0m 1.1338583 0 c -0.6256449 0 -1.1338583 0.5082134 -1.1338583 1.1338583 v 7.3700786 c 0 0.6256447 0.5082134 1.1338587 1.1338583 1.1338587 h 11.338582 c 0.6256447 0 1.1338587 -0.508214 1.1338587 -1.1338587 v -7.3700786 c 0 -0.6256449 -0.508214 -1.1338583 -1.1338587 -1.1338583 h -11.338582 Z "/>
                <path class="typst-shape" fill="#8ca8c6" fill-rule="nonzero" stroke="#1a1a1a" stroke-width="0.7" stroke-linecap="butt" stroke-linejoin="miter" stroke-miterlimit="4" transform="matrix(1 0 0 1 16.44094488188976 53.29133858267716)" d="M 0 0m 1.1338583 0 c -0.6256449 0 -1.1338583 0.5082134 -1.1338583 1.1338583 v 7.3700786 c 0 0.6256447 0.5082134 1.1338587 1.1338583 1.1338587 h 18.141733 c 0.6256447 0 1.1338577 -0.508214 1.1338577 -1.1338587 v -7.3700786 c 0 -0.6256449 -0.50821304 -1.1338583 -1.1338577 -1.1338583 h -18.141733 Z "/>
                <path class="typst-shape" fill="#c1d0e0" fill-rule="nonzero" stroke="#1a1a1a" stroke-width="0.7" stroke-linecap="butt" stroke-linejoin="miter" stroke-miterlimit="4" transform="matrix(1 0 0 1 42.51968503937008 53.29133858267716)" d="M 0 0m 1.1338583 0 c -0.6256449 0 -1.1338583 0.5082134 -1.1338583 1.1338583 v 7.3700786 c 0 0.6256447 0.5082134 1.1338587 1.1338583 1.1338587 h 14.740157 c 0.6256447 0 1.1338577 -0.508214 1.1338577 -1.1338587 v -7.3700786 c 0 -0.6256449 -0.50821304 -1.1338583 -1.1338577 -1.1338583 h -14.740157 Z "/>
                <path class="typst-shape" fill="#c1d0e0" fill-rule="nonzero" stroke="#1a1a1a" stroke-width="0.7" stroke-linecap="butt" stroke-linejoin="miter" stroke-miterlimit="4" transform="matrix(1 0 0 1 59.527559055118104 53.29133858267716)" d="M 0 0m 1.1338583 0 c -0.6256449 0 -1.1338583 0.5082134 -1.1338583 1.1338583 v 7.3700786 c 0 0.6256447 0.5082134 1.1338587 1.1338583 1.1338587 h 7.9370084 c 0.6256447 0 1.1338577 -0.508214 1.1338577 -1.1338587 v -7.3700786 c 0 -0.6256449 -0.50821304 -1.1338583 -1.1338577 -1.1338583 h -7.9370084 Z "/>
                <path class="typst-shape" fill="#c1d0e0" fill-rule="nonzero" stroke="#1a1a1a" stroke-width="0.7" stroke-linecap="butt" stroke-linejoin="miter" stroke-miterlimit="4" transform="matrix(1 0 0 1 69.73228346456693 53.29133858267716)" d="M 0 0m 1.1338583 0 c -0.6256449 0 -1.1338583 0.5082134 -1.1338583 1.1338583 v 7.3700786 c 0 0.6256447 0.5082134 1.1338587 1.1338583 1.1338587 h 4.5354333 c 0.6256447 0 1.1338582 -0.508214 1.1338582 -1.1338587 v -7.3700786 c 0 -0.6256449 -0.5082135 -1.1338583 -1.1338582 -1.1338583 h -4.5354333 Z "/>
            </g>
        </g>
    </g>
</svg>
