<svg class="typst-doc" viewBox="0 0 94.97637795275591 81.37007874015748" width="94.97637795275591pt" height="81.37007874015748pt" xmlns="http://www.w3.org/2000/svg" xmlns:xlink="http://www.w3.org/1999/xlink" xmlns:h5="http://www.w3.org/1999/xhtml">
    <g>
        <g class="typst-group" transform="matrix(1 0 0 1 1 1)">
            <g>
                <path class="typst-shape" fill="#ffffff" fill-rule="nonzero" stroke="#aac4e9" stroke-width="2" stroke-linecap="butt" stroke-linejoin="miter" stroke-miterlimit="4" transform="matrix(1 0 0 1 6.803149606299219 0)" d="M 0 0m 39.68504 0 c -21.89757 0 -39.68504 17.78747 -39.68504 39.68504 c 0 21.897568 17.78747 39.68504 39.68504 39.68504 c 21.897568 0 39.68504 -17.787472 39.68504 -39.68504 c 0 -21.89757 -17.787472 -39.68504 -39.68504 -39.68504 Z "/>
                <path class="typst-shape" fill="#b4b4b4" fill-rule="nonzero" stroke="#1a1a1a" stroke-width="0.7" stroke-linecap="butt" stroke-linejoin="miter" stroke-miterlimit="4" transform="matrix(1 0 0 1 17.007874015748037 15.023622047244093)" d="M 0 0m 1.1338583 0 c -0.6256449 0 -1.1338583 0.5082134 -1.1338583 1.1338583 v 7.3700786 c 0 0.6256447 0.5082134 1.1338587 1.1338583 1.1338587 h 1.4173228 c 0.6256449 0 1.1338582 -0.508214 1.1338582 -1.1338587 v -7.3700786 c 0 -0.6256449 -0.5082133 -1.1338583 -1.1338582 -1.1338583 h -1.4173228 Z "/>
                <path class="typst-shape" fill="#a0a0a0" fill-rule="nonzero" stroke="#1a1a1a" stroke-width="0.7" stroke-linecap="butt" stroke-linejoin="miter" stroke-miterlimit="4" transform="matrix(1 0 0 1 20.692913385826774 15.023622047244093)" d="M 0 0m 1.1338583 0 c -0.6256449 0 -1.1338583 0.5082134 -1.1338583 1.1338583 v 7.3700786 c 0 0.6256447 0.5082134 1.1338587 1.1338583 1.1338587 h 1.4173228 c 0.6256449 0 1.1338582 -0.508214 1.1338582 -1.1338587 v -7.3700786 c 0 -0.6256449 -0.5082133 -1.1338583 -1.1338582 -1.1338583 h -1.4173228 Z "/>
                <path class="typst-shape" fill="#b4b4b4" fill-rule="nonzero" stroke="#1a1a1a" stroke-width="0.7" stroke-linecap="butt" stroke-linejoin="miter" stroke-miterlimit="4" transform="matrix(1 0 0 1 24.377952755905515 15.023622047244093)" d="M 0 0m 1.1338583 0 c -0.6256449 0 -1.1338583 0.5082134 -1.1338583 1.1338583 v 7.3700786 c 0 0.6256447 0.5082134 1.1338587 1.1338583 1.1338587 h 16.15748 c 0.6256447 0 1.1338596 -0.508214 1.1338596 -1.1338587 v -7.3700786 c 0 -0.6256449 -0.50821495 -1.1338583 -1.1338596 -1.1338583 h -16.15748 Z "/>
                <path class="typst-shape" fill="#a0a0a0" fill-rule="nonzero" stroke="#1a1a1a" stroke-width="0.7" stroke-linecap="butt" stroke-linejoin="miter" stroke-miterlimit="4" transform="matrix(1 0 0 1 42.80314960629922 15.023622047244093)" d="M 0 0m 1.1338583 0 c -0.6256449 0 -1.1338583 0.5082134 -1.1338583 1.1338583 v 7.3700786 c 0 0.6256447 0.5082134 1.1338587 1.1338583 1.1338587 h 5.102362 c 0.62564516 0 1.1338582 -0.508214 1.1338582 -1.1338587 v -7.3700786 c 0 -0.6256449 -0.50821304 -1.1338583 -1.1338582 -1.1338583 h -5.102362 Z "/>
                <path class="typst-shape" fill="#b4b4b4" fill-rule="nonzero" stroke="#1a1a1a" stroke-width="0.7" stroke-linecap="butt" stroke-linejoin="miter" stroke-miterlimit="4" transform="matrix(1 0 0 1 50.173228346456696 15.023622047244093)" d="M 0 0m 1.1338583 0 c -0.6256449 0 -1.1338583 0.5082134 -1.1338583 1.1338583 v 7.3700786 c 0 0.6256447 0.5082134 1.1338587 1.1338583 1.1338587 h 8.787401 c 0.6256447 0 1.1338587 -0.508214 1.1338587 -1.1338587 v -7.3700786 c 0 -0.6256449 -0.508214 -1.1338583 -1.1338587 -1.1338583 h -8.787401 Z "/>
                <path class="typst-shape" fill="#a0a0a0" fill-rule="nonzero" stroke="#1a1a1a" stroke-width="0.7" stroke-linecap="butt" stroke-linejoin="miter" stroke-miterlimit="4" transform="matrix(1 0 0 1 61.22834645669292 15.023622047244093)" d="M 0 0m 1.1338583 0 c -0.6256449 0 -1.1338583 0.5082134 -1.1338583 1.1338583 v 7.3700786 c 0 0.6256447 0.5082134 1.1338587 1.1338583 1.1338587 h 12.472441 c 0.6256447 0 1.1338577 -0.508214 1.1338577 -1.1338587 v -7.3700786 c 0 -0.6256449 -0.50821304 -1.1338583 -1.1338577 -1.1338583 h -12.472441 Z "/>
                <path class="typst-shape" fill="none" stroke="#333333" stroke-width="0.9" stroke-linecap="round" stroke-linejoin="miter" stroke-miterlimit="4" transform="matrix(1 0 0 1 46.488188976377955 28.34645669291338)" d="M 0 0v 11.474277 "/>
                <path class="typst-shape" fill="none" stroke="#333333" stroke-width="0.9" stroke-linecap="round" stroke-linejoin="miter" stroke-miterlimit="4" transform="matrix(1 0 0 1 45.425196850393704 36.98611596850394)" d="M 0 0m 2.1259842 0 l -1.0629921 2.8346457 l -1.0629921 -2.8346457 "/>
                <path class="typst-shape" fill="#9eb5cf" fill-rule="nonzero" stroke="#1a1a1a" stroke-width="0.7" stroke-linecap="butt" stroke-linejoin="miter" stroke-miterlimit="4" transform="matrix(1 0 0 1 0 53.29133858267716)" d="M 0 0m 1.1338583 0 c -0.6256449 0 -1.1338583 0.5082134 -1.1338583 1.1338583 v 7.3700786 c 0 0.6256447 0.5082134 1.1338587 1.1338583 1.1338587 h 12.472441 c 0.6256447 0 1.1338577 -0.508214 1.1338577 -1.1338587 v -7.3700786 c 0 -0.6256449 -0.50821304 -1.1338583 -1.1338577 -1.1338583 h -12.472441 Z "/>
                <path class="typst-shape" fill="#b8c9dc" fill-rule="nonzero" stroke="#1a1a1a" stroke-width="0.7" stroke-linecap="butt" stroke-linejoin="miter" stroke-miterlimit="4" transform="matrix(1 0 0 1 14.740157480314961 53.29133858267716)" d="M 0 0m 1.1338583 0 c -0.6256449 0 -1.1338583 0.5082134 -1.1338583 1.1338583 v 7.3700786 c 0 0.6256447 0.5082134 1.1338587 1.1338583 1.1338587 h 1.4173228 c 0.6256449 0 1.1338582 -0.508214 1.1338582 -1.1338587 v -7.3700786 c 0 -0.6256449 -0.5082133 -1.1338583 -1.1338582 -1.1338583 h -1.4173228 Z "/>
                <path class="typst-shape" fill="#7a9abd" fill-rule="nonzero" stroke="#1a1a1a" stroke-width="0.7" stroke-linecap="butt" stroke-linejoin="miter" stroke-miterlimit="4" transform="matrix(1 0 0 1 18.4251968503937 53.29133858267716)" d="M 0 0m 1.1338583 0 c -0.6256449 0 -1.1338583 0.5082134 -1.1338583 1.1338583 v 7.3700786 c 0 0.6256447 0.5082134 1.1338587 1.1338583 1.1338587 h 8.787401 c 0.6256447 0 1.1338587 -0.508214 1.1338587 -1.1338587 v -7.3700786 c 0 -0.6256449 -0.508214 -1.1338583 -1.1338587 -1.1338583 h -8.787401 Z "/>
                <path class="typst-shape" fill="#f08d89" fill-rule="nonzero" stroke="#1a1a1a" stroke-width="0.7" stroke-linecap="butt" stroke-linejoin="miter" stroke-miterlimit="4" transform="matrix(1 0 0 1 63.49606299212599 53.29133858267716)" d="M 0 0m 1.1338583 0 c -0.6256449 0 -1.1338583 0.5082134 -1.1338583 1.1338583 v 7.3700786 c 0 0.6256447 0.5082134 1.1338587 1.1338583 1.1338587 h 5.102362 c 0.62564516 0 1.1338582 -0.508214 1.1338582 -1.1338587 v -7.3700786 c 0 -0.6256449 -0.50821304 -1.1338583 -1.1338582 -1.1338583 h -5.102362 Z "/>
                <path class="typst-shape" fill="#f4aca9" fill-rule="nonzero" stroke="#1a1a1a" stroke-width="0.7" stroke-linecap="butt" stroke-linejoin="miter" stroke-miterlimit="4" transform="matrix(1 0 0 1 70.86614173228347 53.29133858267716)" d="M 0 0m 1.1338583 0 c -0.6256449 0 -1.1338583 0.5082134 -1.1338583 1.1338583 v 7.3700786 c 0 0.6256447 0.5082134 1.1338587 1.1338583 1.1338587 h 16.15748 c 0.6256447 0 1.1338596 -0.508214 1.1338596 -1.1338587 v -7.3700786 c 0 -0.6256449 -0.50821495 -1.1338583 -1.1338596 -1.1338583 h -16.15748 Z "/>
                <path class="typst-shape" fill="#eb635e" fill-rule="nonzero" stroke="#1a1a1a" stroke-width="0.7" stroke-linecap="butt" stroke-linejoin="miter" stroke-miterlimit="4" transform="matrix(1 0 0 1 89.29133858267718 53.29133858267716)" d="M 0 0m 1.1338583 0 c -0.6256449 0 -1.1338583 0.5082134 -1.1338583 1.1338583 v 7.3700786 c 0 0.6256447 0.5082134 1.1338587 1.1338583 1.1338587 h 1.4173228 c 0.6256449 0 1.1338582 -0.508214 1.1338582 -1.1338587 v -7.3700786 c 0 -0.6256449 -0.5082133 -1.1338583 -1.1338582 -1.1338583 h -1.4173228 Z "/>
            </g>
        </g>
    </g>
</svg>
