<svg class="typst-doc" viewBox="0 0 81.37007874015748 81.37007874015748" width="81.37007874015748pt" height="81.37007874015748pt" xmlns="http://www.w3.org/2000/svg" xmlns:xlink="http://www.w3.org/1999/xlink" xmlns:h5="http://www.w3.org/1999/xhtml">
    <g>
        <g class="typst-group" transform="matrix(1 0 0 1 1 1)">
            <g>
                <path class="typst-shape" fill="#ffffff" fill-rule="nonzero" stroke="#aac4e9" stroke-width="2" stroke-linecap="butt" stroke-linejoin="miter" stroke-miterlimit="4" d="M 0 0m 39.68504 0 c -21.89757 0 -39.68504 17.78747 -39.68504 39.68504 c 0 21.897568 17.78747 39.68504 39.68504 39.68504 c 21.897568 0 39.68504 -17.787472 39.68504 -39.68504 c 0 -21.89757 -17.787472 -39.68504 -39.68504 -39.68504 Z "/>
                <path class="typst-shape" fill="#e1e1e1" fill-rule="nonzero" stroke="#1a1a1a" stroke-width="0.7" stroke-linecap="butt" stroke-linejoin="miter" stroke-miterlimit="4" transform="matrix(1 0 0 1 11.338582677165352 18.70866141732283)" d="M 0 0m 1.1338583 0 c -0.6256449 0 -1.1338583 0.5082134 -1.1338583 1.1338583 v 5.6692915 c 0 0.6256447 0.5082134 1.1338582 1.1338583 1.1338582 h 11.905512 c 0.6256447 0 1.1338577 -0.5082135 1.1338577 -1.1338582 v -5.6692915 c 0 -0.6256449 -0.50821304 -1.1338583 -1.1338577 -1.1338583 h -11.905512 Z "/>
                <path class="typst-shape" fill="#e1e1e1" fill-rule="nonzero" stroke="#1a1a1a" stroke-width="0.7" stroke-linecap="butt" stroke-linejoin="miter" stroke-miterlimit="4" transform="matrix(1 0 0 1 25.511811023622045 18.70866141732283)" d="M 0 0m 1.1338583 0 c -0.6256449 0 -1.1338583 0.5082134 -1.1338583 1.1338583 v 5.6692915 c 0 0.6256447 0.5082134 1.1338582 1.1338583 1.1338582 h 6.2362204 c 0.62564516 0 1.1338582 -0.5082135 1.1338582 -1.1338582 v -5.6692915 c 0 -0.6256449 -0.50821304 -1.1338583 -1.1338582 -1.1338583 h -6.2362204 Z "/>
                <path class="typst-shape" fill="#e1e1e1" fill-rule="nonzero" stroke="#1a1a1a" stroke-width="0.7" stroke-linecap="butt" stroke-linejoin="miter" stroke-miterlimit="4" transform="matrix(1 0 0 1 34.01574803149607 18.70866141732283)" d="M 0 0m 1.1338583 0 c -0.6256449 0 -1.1338583 0.5082134 -1.1338583 1.1338583 v 5.6692915 c 0 0.6256447 0.5082134 1.1338582 1.1338583 1.1338582 h 9.070866 c 0.6256447 0 1.1338587 -0.5082135 1.1338587 -1.1338582 v -5.6692915 c 0 -0.6256449 -0.508214 -1.1338583 -1.1338587 -1.1338583 h -9.070866 Z "/>
                <path class="typst-shape" fill="#e1e1e1" fill-rule="nonzero" stroke="#1a1a1a" stroke-width="0.7" stroke-linecap="butt" stroke-linejoin="miter" stroke-miterlimit="4" transform="matrix(1 0 0 1 45.354330708661415 18.70866141732283)" d="M 0 0m 1.1338583 0 c -0.6256449 0 -1.1338583 0.5082134 -1.1338583 1.1338583 v 5.6692915 c 0 0.6256447 0.5082134 1.1338582 1.1338583 1.1338582 h 3.401575 c 0.6256447 0 1.1338582 -0.5082135 1.1338582 -1.1338582 v -5.6692915 c 0 -0.6256449 -0.5082135 -1.1338583 -1.1338582 -1.1338583 h -3.401575 Z "/>
                <path class="typst-shape" fill="#e1e1e1" fill-rule="nonzero" stroke="#1a1a1a" stroke-width="0.7" stroke-linecap="butt" stroke-linejoin="miter" stroke-miterlimit="4" transform="matrix(1 0 0 1 51.023622047244096 18.70866141732283)" d="M 0 0m 1.1338583 0 c -0.6256449 0 -1.1338583 0.5082134 -1.1338583 1.1338583 v 5.6692915 c 0 0.6256447 0.5082134 1.1338582 1.1338583 1.1338582 h 14.740157 c 0.6256447 0 1.1338577 -0.5082135 1.1338577 -1.1338582 v -5.6692915 c 0 -0.6256449 -0.50821304 -1.1338583 -1.1338577 -1.1338583 h -14.740157 Z "/>
                <path class="typst-shape" fill="none" stroke="#333333" stroke-width="0.9" stroke-linecap="round" stroke-linejoin="miter" stroke-miterlimit="4" transform="matrix(1 0 0 1 39.68503937007874 30.614173228346452)" d="M 0 0v 14.875852 "/>
                <path class="typst-shape" fill="none" stroke="#333333" stroke-width="0.9" stroke-linecap="round" stroke-linejoin="miter" stroke-miterlimit="4" transform="matrix(1 0 0 1 38.62204724409448 42.65540730708661)" d="M 0 0m 2.1259842 0 l -1.0629921 2.8346457 l -1.0629921 -2.8346457 "/>
                <path class="typst-shape" fill="#8ca8c6" fill-rule="nonzero" stroke="#1a1a1a" stroke-width="0.7" stroke-linecap="butt" stroke-linejoin="miter" stroke-miterlimit="4" transform="matrix(1 0 0 1 9.354330708661413 51.30708661417323)" d="M 0 0m 1.1338583 0 c -0.6256449 0 -1.1338583 0.5082134 -1.1338583 1.1338583 v 5.6692915 c 0 0.6256447 0.5082134 1.1338582 1.1338583 1.1338582 h 9.070866 c 0.6256447 0 1.1338587 -0.5082135 1.1338587 -1.1338582 v -5.6692915 c 0 -0.6256449 -0.508214 -1.1338583 -1.1338587 -1.1338583 h -9.070866 Z "/>
                <path class="typst-shape" fill="#8ca8c6" fill-rule="nonzero" stroke="#1a1a1a" stroke-width="0.7" stroke-linecap="butt" stroke-linejoin="miter" stroke-miterlimit="4" transform="matrix(1 0 0 1 20.692913385826767 51.30708661417323)" d="M 0 0m 1.1338583 0 c -0.6256449 0 -1.1338583 0.5082134 -1.1338583 1.1338583 v 5.6692915 c 0 0.6256447 0.5082134 1.1338582 1.1338583 1.1338582 h 14.740157 c 0.6256447 0 1.1338577 -0.5082135 1.1338577 -1.1338582 v -5.6692915 c 0 -0.6256449 -0.50821304 -1.1338583 -1.1338577 -1.1338583 h -14.740157 Z "/>
                <path class="typst-shape" fill="#c1d0e0" fill-rule="nonzero" stroke="#1a1a1a" stroke-width="0.7" stroke-linecap="butt" stroke-linejoin="miter" stroke-miterlimit="4" transform="matrix(1 0 0 1 41.669291338582674 51.30708661417323)" d="M 0 0m 1.1338583 0 c -0.6256449 0 -1.1338583 0.5082134 -1.1338583 1.1338583 v 5.6692915 c 0 0.6256447 0.5082134 1.1338582 1.1338583 1.1338582 h 11.905512 c 0.6256447 0 1.1338577 -0.5082135 1.1338577 -1.1338582 v -5.6692915 c 0 -0.6256449 -0.50821304 -1.1338583 -1.1338577 -1.1338583 h -11.905512 Z "/>
                <path class="typst-shape" fill="#c1d0e0" fill-rule="nonzero" stroke="#1a1a1a" stroke-width="0.7" stroke-linecap="butt" stroke-linejoin="miter" stroke-miterlimit="4" transform="matrix(1 0 0 1 55.84251968503937 51.30708661417323)" d="M 0 0m 1.1338583 0 c -0.6256449 0 -1.1338583 0.5082134 -1.1338583 1.1338583 v 5.6692915 c 0 0.6256447 0.5082134 1.1338582 1.1338583 1.1338582 h 6.2362204 c 0.62564516 0 1.1338582 -0.5082135 1.1338582 -1.1338582 v -5.6692915 c 0 -0.6256449 -0.50821304 -1.1338583 -1.1338582 -1.1338583 h -6.2362204 Z "/>
                <path class="typst-shape" fill="#c1d0e0" fill-rule="nonzero" stroke="#1a1a1a" stroke-width="0.7" stroke-linecap="butt" stroke-linejoin="miter" stroke-miterlimit="4" transform="matrix(1 0 0 1 64.34645669291339 51.30708661417323)" d="M 0 0m 1.1338583 0 c -0.6256449 0 -1.1338583 0.5082134 -1.1338583 1.1338583 v 5.6692915 c 0 0.6256447 0.5082134 1.1338582 1.1338583 1.1338582 h 3.401575 c 0.6256447 0 1.1338582 -0.5082135 1.1338582 -1.1338582 v -5.6692915 c 0 -0.6256449 -0.5082135 -1.1338583 -1.1338582 -1.1338583 h -3.401575 Z "/>
            </g>
        </g>
    </g>
</svg>
