<svg class="typst-doc" viewBox="0 0 41.13385826771653 44.818897637795274" width="41.13385826771653pt" height="44.818897637795274pt" xmlns="http://www.w3.org/2000/svg" xmlns:xlink="http://www.w3.org/1999/xlink" xmlns:h5="http://www.w3.org/1999/xhtml">
    <g>
        <g class="typst-group" transform="matrix(1 0 0 1 2 2)">
            <g>
                <path class="typst-shape" fill="#ffffff" fill-rule="nonzero" stroke="#8a5f7e" stroke-width="1.4" stroke-linecap="round" stroke-linejoin="round" stroke-miterlimit="4" d="M 0 0m 6.2362204 0 c -3.4410465 0 -6.2362204 2.795174 -6.2362204 6.2362204 c 0 3.4410467 2.795174 6.2362204 6.2362204 6.2362204 c 3.4410467 0 6.2362204 -2.7951736 6.2362204 -6.2362204 c 0 -3.4410465 -2.7951736 -6.2362204 -6.2362204 -6.2362204 Z "/>
                <path class="typst-shape" fill="#ede7ec" fill-rule="nonzero" stroke="#8a5f7e" stroke-width="1.4" stroke-linecap="round" stroke-linejoin="round" stroke-miterlimit="4" transform="matrix(1 0 0 1 24.661417322834644 14.173228346456693)" d="M 0 0m 1.1338583 0 c -0.6256449 0 -1.1338583 0.5082134 -1.1338583 1.1338583 v 10.204724 c 0 0.6256447 0.5082134 1.1338577 1.1338583 1.1338577 h 10.204724 c 0.6256447 0 1.1338577 -0.50821304 1.1338577 -1.1338577 v -10.204724 c 0 -0.6256449 -0.50821304 -1.1338583 -1.1338577 -1.1338583 h -10.204724 Z "/>
                <path class="typst-shape" fill="#ffffff" fill-rule="nonzero" stroke="#8a5f7e" stroke-width="1" stroke-linecap="butt" stroke-linejoin="miter" stroke-miterlimit="4" transform="matrix(1 0 0 1 27.30704574551583 16.88542814338031)" d="M 0 0m 7.1811843 4.352974 v -1.6579068 l -1.3812046 -0.44663715 l 0.30380297 -1.4194765 l -1.4357896 -0.8289535 l -1.0774009 0.9728396 l -1.0774014 -0.9728396 l -1.4357895 0.8289535 l 0.3038031 1.4194765 l -1.3812044 0.44663715 v 1.6579068 l 1.3812044 0.44663715 l -0.3038031 1.419477 l 1.4357895 0.82895327 l 1.0774014 -0.97283936 l 1.0774009 0.97283936 l 1.4357896 -0.82895327 l -0.30380297 -1.419477 l 1.3812046 -0.44663715 Z "/>
                <path class="typst-shape" fill="#ffffff" fill-rule="nonzero" stroke="#8a5f7e" stroke-width="1.4" stroke-linecap="round" stroke-linejoin="round" stroke-miterlimit="4" transform="matrix(1 0 0 1 0 28.346456692913385)" d="M 0 0m 6.2362204 0 c -3.4410465 0 -6.2362204 2.795174 -6.2362204 6.2362204 c 0 3.4410467 2.795174 6.2362204 6.2362204 6.2362204 c 3.4410467 0 6.2362204 -2.7951736 6.2362204 -6.2362204 c 0 -3.4410465 -2.7951736 -6.2362204 -6.2362204 -6.2362204 Z "/>
                <path class="typst-shape" fill="none" stroke="#59a14f" stroke-width="1.6" stroke-linecap="round" stroke-linejoin="round" stroke-miterlimit="4" transform="matrix(1 0 0 1 2.834645669291338 31.748031496062996)" d="M 0 0m 0 2.8346457 l 2.8346457 2.8346457 l 3.968504 -5.6692915 "/>
                <path class="typst-shape" fill="none" stroke="#8a5f7e" stroke-width="1.4" stroke-linecap="round" stroke-linejoin="miter" stroke-miterlimit="4" transform="matrix(1 0 0 1 12.380413776271778 9.767366049355216)" d="M 0 0l 10.6445265 6.1175437 "/>
                <path class="typst-shape" fill="none" stroke="#8a5f7e" stroke-width="1.4" stroke-linecap="round" stroke-linejoin="miter" stroke-miterlimit="4" transform="matrix(1 0 0 1 20.635085434960633 14.017654244409448)" d="M 0 0m 0.84747493 0 l 1.5424043 1.8672698 l -2.3898792 -0.39266336 "/>
                <path class="typst-shape" fill="none" stroke="#8a5f7e" stroke-width="1.4" stroke-linecap="round" stroke-linejoin="miter" stroke-miterlimit="4" transform="matrix(1 0 0 1 14.108918109463447 23.94059439581191)" d="M 0 0m 10.6445265 0 l -10.6445265 6.1175437 "/>
                <path class="typst-shape" fill="none" stroke="#8a5f7e" stroke-width="1.4" stroke-linecap="round" stroke-linejoin="miter" stroke-miterlimit="4" transform="matrix(1 0 0 1 14.108893511811024 28.190882590866142)" d="M 0 0m 2.3898792 1.4746064 l -2.3898792 0.39266336 l 1.5424044 -1.8672698 "/>
            </g>
        </g>
    </g>
</svg>
