<svg class="typst-doc" viewBox="0 0 43.68503937007874 22.425196850393693" width="43.68503937007874pt" height="22.425196850393693pt" xmlns="http://www.w3.org/2000/svg" xmlns:xlink="http://www.w3.org/1999/xlink" xmlns:h5="http://www.w3.org/1999/xhtml">
    <g>
        <g class="typst-group" transform="matrix(1 0 0 1 2 2)">
            <g>
                <path class="typst-shape" fill="#ffffff" fill-rule="nonzero" stroke="#8a5f7e" stroke-width="1.4" stroke-linecap="round" stroke-linejoin="round" stroke-miterlimit="4" transform="matrix(1 0 0 1 0 2.976377952755903)" d="M 0 0m 6.2362204 0 c -3.4410465 0 -6.2362204 2.795174 -6.2362204 6.2362204 c 0 3.4410467 2.795174 6.2362204 6.2362204 6.2362204 c 3.4410467 0 6.2362204 -2.7951736 6.2362204 -6.2362204 c 0 -3.4410465 -2.7951736 -6.2362204 -6.2362204 -6.2362204 Z "/>
                <path class="typst-shape" fill="#ffffff" fill-rule="nonzero" stroke="#8a5f7e" stroke-width="1.4" stroke-linecap="round" stroke-linejoin="round" stroke-miterlimit="4" transform="matrix(1 0 0 1 27.212598425196852 2.976377952755903)" d="M 0 0m 6.2362204 0 c -3.4410465 0 -6.2362204 2.795174 -6.2362204 6.2362204 c 0 3.4410467 2.795174 6.2362204 6.2362204 6.2362204 c 3.4410467 0 6.2362204 -2.7951736 6.2362204 -6.2362204 c 0 -3.4410465 -2.7951736 -6.2362204 -6.2362204 -6.2362204 Z "/>
                <path class="typst-shape" fill="none" stroke="#59a14f" stroke-width="1.6" stroke-linecap="round" stroke-linejoin="round" stroke-miterlimit="4" transform="matrix(1 0 0 1 30.61417322834646 7.22834645669291)" d="M 0 0m 0 1.984252 l 2.2677166 1.984252 l 3.4015749 -3.968504 "/>
                <path class="typst-shape" fill="none" stroke="#8a5f7e" stroke-width="1.4" stroke-linecap="round" stroke-linejoin="miter" stroke-miterlimit="4" transform="matrix(1 0 0 1 13.606299212598426 0)" d="M 0 0m 0 8.07874 c 1.059973 -10.069744 10.047165 -10.725915 12.140256 -1.968514 "/>
                <path class="typst-shape" fill="none" stroke="#8a5f7e" stroke-width="1.4" stroke-linecap="round" stroke-linejoin="miter" stroke-miterlimit="4" transform="matrix(1 0 0 1 24.60709724598425 3.7384958522834615)" d="M 0 0m 1.682061 0 l -0.5054418 2.3685937 l -1.1766192 -2.116902 "/>
                <path class="typst-shape" fill="none" stroke="#8a5f7e" stroke-width="1.4" stroke-linecap="round" stroke-linejoin="miter" stroke-miterlimit="4" transform="matrix(1 0 0 1 13.938484583334239 10.346456692913382)" d="M 0 0m 12.140256 0 c -1.0599737 10.069744 -10.047166 10.725915 -12.140256 1.9685138 "/>
                <path class="typst-shape" fill="none" stroke="#8a5f7e" stroke-width="1.4" stroke-linecap="round" stroke-linejoin="miter" stroke-miterlimit="4" transform="matrix(1 0 0 1 13.395881140157478 12.318107244094486)" d="M 0 0m 0 2.3685937 l 0.5054418 -2.3685937 l 1.1766192 2.116902 "/>
            </g>
        </g>
    </g>
</svg>
