<svg class="typst-doc" viewBox="0 0 43.68503937007874 16.47244094488189" width="43.68503937007874pt" height="16.47244094488189pt" xmlns="http://www.w3.org/2000/svg" xmlns:xlink="http://www.w3.org/1999/xlink" xmlns:h5="http://www.w3.org/1999/xhtml">
    <g>
        <g class="typst-group" transform="matrix(1 0 0 1 2 2)">
            <g>
                <path class="typst-shape" fill="#ffffff" fill-rule="nonzero" stroke="#8a5f7e" stroke-width="1.4" stroke-linecap="round" stroke-linejoin="round" stroke-miterlimit="4" d="M 0 0m 6.2362204 0 c -3.4410465 0 -6.2362204 2.795174 -6.2362204 6.2362204 c 0 3.4410467 2.795174 6.2362204 6.2362204 6.2362204 c 3.4410467 0 6.2362204 -2.7951736 6.2362204 -6.2362204 c 0 -3.4410465 -2.7951736 -6.2362204 -6.2362204 -6.2362204 Z "/>
                <path class="typst-shape" fill="#ffffff" fill-rule="nonzero" stroke="#8a5f7e" stroke-width="1.4" stroke-linecap="round" stroke-linejoin="round" stroke-miterlimit="4" transform="matrix(1 0 0 1 27.212598425196852 0)" d="M 0 0m 6.2362204 0 c -3.4410465 0 -6.2362204 2.795174 -6.2362204 6.2362204 c 0 3.4410467 2.795174 6.2362204 6.2362204 6.2362204 c 3.4410467 0 6.2362204 -2.7951736 6.2362204 -6.2362204 c 0 -3.4410465 -2.7951736 -6.2362204 -6.2362204 -6.2362204 Z "/>
                <path class="typst-shape" fill="none" stroke="#59a14f" stroke-width="1.6" stroke-linecap="round" stroke-linejoin="round" stroke-miterlimit="4" transform="matrix(1 0 0 1 30.61417322834646 4.251968503937008)" d="M 0 0m 0 1.984252 l 2.2677166 1.984252 l 3.4015749 -3.968504 "/>
                <path class="typst-shape" fill="none" stroke="#8a5f7e" stroke-width="1.4" stroke-linecap="round" stroke-linejoin="miter" stroke-miterlimit="4" transform="matrix(1 0 0 1 13.606299212598426 2.8346456692913384)" d="M 0 0h 10.478811 "/>
                <path class="typst-shape" fill="none" stroke="#8a5f7e" stroke-width="1.4" stroke-linecap="round" stroke-linejoin="miter" stroke-miterlimit="4" transform="matrix(1 0 0 1 21.817422708661415 1.9842519685039373)" d="M 0 0l 2.2677166 0.8503937 l -2.2677166 0.8503937 "/>
                <path class="typst-shape" fill="none" stroke="#8a5f7e" stroke-width="1.4" stroke-linecap="round" stroke-linejoin="miter" stroke-miterlimit="4" transform="matrix(1 0 0 1 15.599928432962543 9.637795275590552)" d="M 0 0m 10.478811 0 h -10.478811 "/>
                <path class="typst-shape" fill="none" stroke="#8a5f7e" stroke-width="1.4" stroke-linecap="round" stroke-linejoin="miter" stroke-miterlimit="4" transform="matrix(1 0 0 1 15.59990012598425 8.78740157480315)" d="M 0 0m 2.2677166 1.7007874 l -2.2677166 -0.8503937 l 2.2677166 -0.8503937 "/>
            </g>
        </g>
    </g>
</svg>
