<svg class="typst-doc" viewBox="0 0 43.68503937007874 28.236220472440948" width="43.68503937007874pt" height="28.236220472440948pt" xmlns="http://www.w3.org/2000/svg" xmlns:xlink="http://www.w3.org/1999/xlink" xmlns:h5="http://www.w3.org/1999/xhtml">
    <g>
        <g class="typst-group" transform="matrix(1 0 0 1 2 2)">
            <g>
                <path class="typst-shape" fill="#dccfd8" fill-rule="nonzero" stroke="#8a5f7e" stroke-width="1.4" stroke-linecap="round" stroke-linejoin="round" stroke-miterlimit="4" transform="matrix(1 0 0 1 0 6.448818897637796)" d="M 0 0m 5.6692915 0 c -3.1282244 0 -5.6692915 2.5410671 -5.6692915 5.6692915 c 0 3.1282244 2.5410671 5.6692915 5.6692915 5.6692915 c 3.1282244 0 5.6692915 -2.5410671 5.6692915 -5.6692915 c 0 -3.1282244 -2.5410671 -5.6692915 -5.6692915 -5.6692915 Z "/>
                <path class="typst-shape" fill="#dccfd8" fill-rule="nonzero" stroke="#8a5f7e" stroke-width="1.4" stroke-linecap="round" stroke-linejoin="round" stroke-miterlimit="4" transform="matrix(1 0 0 1 28.346456692913385 6.448818897637796)" d="M 0 0m 5.6692915 0 c -3.1282244 0 -5.6692915 2.5410671 -5.6692915 5.6692915 c 0 3.1282244 2.5410671 5.6692915 5.6692915 5.6692915 c 3.1282244 0 5.6692915 -2.5410671 5.6692915 -5.6692915 c 0 -3.1282244 -2.5410671 -5.6692915 -5.6692915 -5.6692915 Z "/>
                <path class="typst-shape" fill="none" stroke="#8a5f7e" stroke-width="1.4" stroke-linecap="round" stroke-linejoin="miter" stroke-miterlimit="4" transform="matrix(1 0 0 1 11.905511811023622 0)" d="M 0 0m 0 10.417323 c 2.1541731 -13.19431 12.493605 -13.854943 15.467442 -1.9818983 "/>
                <path class="typst-shape" fill="none" stroke="#8a5f7e" stroke-width="1.4" stroke-linecap="round" stroke-linejoin="miter" stroke-miterlimit="4" transform="matrix(1 0 0 1 26.13966192283464 6.072086792125985)" d="M 0 0m 1.6701814 0 l -0.4068191 2.3875103 l -1.2633623 -2.0663066 "/>
                <path class="typst-shape" fill="none" stroke="#8a5f7e" stroke-width="1.4" stroke-linecap="round" stroke-linejoin="miter" stroke-miterlimit="4" transform="matrix(1 0 0 1 12.312085847531966 13.818897637795278)" d="M 0 0m 15.467442 0 c -2.154173 13.19431 -12.493605 13.854942 -15.467442 1.9818982 "/>
                <path class="typst-shape" fill="none" stroke="#8a5f7e" stroke-width="1.4" stroke-linecap="round" stroke-linejoin="miter" stroke-miterlimit="4" transform="matrix(1 0 0 1 11.875196038110234 15.776623275590554)" d="M 0 0m 0 2.3875103 l 0.40681908 -2.3875103 l 1.2633623 2.0663066 "/>
                <path class="typst-shape" fill="none" stroke="#59a14f" stroke-width="1.8" stroke-linecap="round" stroke-linejoin="round" stroke-miterlimit="4" transform="matrix(1 0 0 1 17.007874015748033 10.700787401574805)" d="M 0 0h 5.6692915 "/>
                <path class="typst-shape" fill="none" stroke="#59a14f" stroke-width="1.8" stroke-linecap="round" stroke-linejoin="round" stroke-miterlimit="4" transform="matrix(1 0 0 1 17.007874015748033 13.535433070866144)" d="M 0 0h 5.6692915 "/>
            </g>
        </g>
    </g>
</svg>
