<svg class="typst-doc" viewBox="0 0 47.08661417322835 14.204724409448819" width="47.08661417322835pt" height="14.204724409448819pt" xmlns="http://www.w3.org/2000/svg" xmlns:xlink="http://www.w3.org/1999/xlink" xmlns:h5="http://www.w3.org/1999/xhtml">
    <g>
        <g class="typst-group" transform="matrix(1 0 0 1 2 2)">
            <g>
                <path class="typst-shape" fill="#ffffff" fill-rule="nonzero" stroke="#8a5f7e" stroke-width="1.4" stroke-linecap="round" stroke-linejoin="round" stroke-miterlimit="4" d="M 0 0m 5.102362 0 c -2.8154018 0 -5.102362 2.2869604 -5.102362 5.102362 c 0 2.815402 2.2869604 5.102362 5.102362 5.102362 c 2.815402 0 5.102362 -2.2869601 5.102362 -5.102362 c 0 -2.8154018 -2.2869601 -5.102362 -5.102362 -5.102362 Z "/>
                <path class="typst-shape" fill="none" transform="matrix(1 0 0 1 3.597362204724411 2.8098622047244093)" d="M 0 0h 3.01 v 4.585 h -3.01 v -4.585 Z "/>
                <g class="typst-group">
                    <g>
                        <g class="typst-group" transform="matrix(1 0 0 1 3.5973620787401597 2.8098620787401574)">
                            <g>
                                <g class="typst-text" transform="matrix(1 0 0 -1 0 4.515)">
                                    <use xlink:href="#gD5D9A59FF524D6BC5B860BC992D43419" x="0" y="0" fill="#8a5f7e" fill-rule="nonzero"/>
                                </g>
                            </g>
                        </g>
                    </g>
                </g>
                <path class="typst-shape" fill="#ede7ec" fill-rule="nonzero" stroke="#8a5f7e" stroke-width="1.4" stroke-linecap="round" stroke-linejoin="round" stroke-miterlimit="4" transform="matrix(1 0 0 1 16.440944881889767 0)" d="M 0 0m 1.1338583 0 c -0.6256449 0 -1.1338583 0.5082134 -1.1338583 1.1338583 v 7.9370084 c 0 0.6256447 0.5082134 1.1338577 1.1338583 1.1338577 h 7.9370084 c 0.6256447 0 1.1338577 -0.50821304 1.1338577 -1.1338577 v -7.9370084 c 0 -0.6256449 -0.50821304 -1.1338583 -1.1338577 -1.1338583 h -7.9370084 Z "/>
                <path class="typst-shape" fill="#ffffff" fill-rule="nonzero" stroke="#8a5f7e" stroke-width="1" stroke-linecap="butt" stroke-linejoin="miter" stroke-miterlimit="4" transform="matrix(1 0 0 1 18.77060522626638 2.4064539695570444)" d="M 0 0m 5.545404 3.2852643 v -1.1787119 l -1.0542893 -0.40277016 l 0.17833519 -1.1144263 l -1.0207942 -0.58935595 l -0.8759537 0.7116563 l -0.8759538 -0.7116563 l -1.0207945 0.58935595 l 0.17833555 1.1144263 l -1.0542892 0.40277016 v 1.1787119 l 1.0542892 0.40277004 l -0.17833555 1.1144264 l 1.0207945 0.58935595 l 0.8759538 -0.7116566 l 0.8759537 0.7116566 l 1.0207942 -0.58935595 l -0.17833519 -1.1144264 l 1.0542893 -0.40277004 Z "/>
                <path class="typst-shape" fill="#ffffff" fill-rule="nonzero" stroke="#8a5f7e" stroke-width="1.4" stroke-linecap="round" stroke-linejoin="round" stroke-miterlimit="4" transform="matrix(1 0 0 1 32.881889763779526 0)" d="M 0 0m 5.102362 0 c -2.8154018 0 -5.102362 2.2869604 -5.102362 5.102362 c 0 2.815402 2.2869604 5.102362 5.102362 5.102362 c 2.815402 0 5.102362 -2.2869601 5.102362 -5.102362 c 0 -2.8154018 -2.2869601 -5.102362 -5.102362 -5.102362 Z "/>
                <path class="typst-shape" fill="none" stroke="#59a14f" stroke-width="1.6" stroke-linecap="round" stroke-linejoin="round" stroke-miterlimit="4" transform="matrix(1 0 0 1 35.1496062992126 3.118110236220472)" d="M 0 0m 0 1.984252 l 2.2677166 1.984252 l 3.4015749 -3.968504 "/>
                <path class="typst-shape" fill="none" stroke="#8a5f7e" stroke-width="1.4" stroke-linecap="round" stroke-linejoin="miter" stroke-miterlimit="4" transform="matrix(1 0 0 1 11.05511811023622 5.102362204724409)" d="M 0 0h 2.5418038 "/>
                <path class="typst-shape" fill="none" stroke="#8a5f7e" stroke-width="1.4" stroke-linecap="round" stroke-linejoin="miter" stroke-miterlimit="4" transform="matrix(1 0 0 1 11.329233732283464 4.251968503937008)" d="M 0 0l 2.2677166 0.8503937 l -2.2677166 0.8503937 "/>
                <path class="typst-shape" fill="none" stroke="#8a5f7e" stroke-width="1.4" stroke-linecap="round" stroke-linejoin="miter" stroke-miterlimit="4" transform="matrix(1 0 0 1 27.496062992125985 5.102362204724409)" d="M 0 0h 2.5418038 "/>
                <path class="typst-shape" fill="none" stroke="#8a5f7e" stroke-width="1.4" stroke-linecap="round" stroke-linejoin="miter" stroke-miterlimit="4" transform="matrix(1 0 0 1 27.77017861417323 4.251968503937008)" d="M 0 0l 2.2677166 0.8503937 l -2.2677166 0.8503937 "/>
            </g>
        </g>
    </g>
    <defs id="glyph">
        <symbol id="gD5D9A59FF524D6BC5B860BC992D43419" overflow="visible">
            <path d="M 0 0m 0.847 0.40600002 c 0 -0.26600003 0.22399998 -0.476 0.50400007 -0.476 c 0.27999997 0 0.518 0.224 0.518 0.49 c 0 0.273 -0.22399998 0.48300004 -0.50400007 0.48300004 c -0.27999997 0 -0.518 -0.22400004 -0.518 -0.49700004 Z m 0.041999996 3.584 c 0 0.19600034 0.24500006 0.36400008 0.55300003 0.36400008 c 0.39270008 0 0.56000006 -0.36400008 0.56000006 -0.77 c 0 -0.3499999 -0.13999999 -0.60899997 -0.385 -0.826 c -0.4970001 -0.45500016 -0.4970001 -0.8540001 -0.4970001 -1.141 v -0.10500002 c 0 -0.15400004 0.03850007 -0.23800004 0.2240001 -0.23800004 c 0.19949996 0 0.23099995 0.062999964 0.23099995 0.23800004 v 0.09099996 c 0 0.50400007 0.245 0.69299996 0.44099998 0.83300006 c 0.35000014 0.25900006 0.7910001 0.5810001 0.7910001 1.099 c 0 0.6439998 -0.49699998 1.0709999 -1.2950001 1.0709999 c -0.42700005 0 -0.7490001 -0.09799957 -0.95900005 -0.27299976 c -0.23800004 -0.1960001 -0.37100002 -0.3570001 -0.37100002 -0.602 c 0 -0.26600003 0.231 -0.40600014 0.39900002 -0.40600014 c 0.20999998 0 0.371 0.11199999 0.371 0.28700018 c 0 0.18899989 -0.06300002 0.23099995 -0.06300002 0.37799978 Z "/>
        </symbol>
    </defs>
</svg>
