<svg class="typst-doc" viewBox="0 0 81.37007874015748 81.37007874015748" width="81.37007874015748pt" height="81.37007874015748pt" xmlns="http://www.w3.org/2000/svg" xmlns:xlink="http://www.w3.org/1999/xlink" xmlns:h5="http://www.w3.org/1999/xhtml">
    <g>
        <g class="typst-group" transform="matrix(1 0 0 1 1 1)">
            <g>
                <path class="typst-shape" fill="#f6f9fe" fill-rule="nonzero" stroke="#aac4e9" stroke-width="2" stroke-linecap="butt" stroke-linejoin="miter" stroke-miterlimit="4" d="M 0 0m 39.68504 0 c -21.89757 0 -39.68504 17.78747 -39.68504 39.68504 c 0 21.897568 17.78747 39.68504 39.68504 39.68504 c 21.897568 0 39.68504 -17.787472 39.68504 -39.68504 c 0 -21.89757 -17.787472 -39.68504 -39.68504 -39.68504 Z "/>
                <path class="typst-shape" fill="none" stroke="#000000" stroke-width="0.5" stroke-linecap="butt" stroke-linejoin="miter" stroke-miterlimit="4" transform="matrix(1 0 0 1 14.173228346456689 14.173228346456689)" d="M 0 0m 1.4173229 0 c -0.7820561 0 -1.4173229 0.6352668 -1.4173229 1.4173229 v 8.503937 c 0 0.78205585 0.6352668 1.4173231 1.4173229 1.4173231 h 48.188976 c 0.7820549 0 1.4173203 -0.63526726 1.4173203 -1.4173231 v -8.503937 c 0 -0.7820561 -0.63526535 -1.4173229 -1.4173203 -1.4173229 h -48.188976 Z "/>
                <path class="typst-shape" fill="none" transform="matrix(1 0 0 1 15.017070620078737 17.53905288816437)" d="M 0 0h 49.335938 v 4.6069336 h -49.335938 v -4.6069336 Z "/>
                <g class="typst-group">
                    <g>
                        <g class="typst-group" transform="matrix(1 0 0 1 15.017070614173226 17.539052881889763)">
                            <g>
                                <g class="typst-text" transform="matrix(1 0 0 -1 0 3.5986328125)">
                                    <use xlink:href="#g79AF65BD97E090AF2FE95383AACF38D8" x="0" y="0" fill="#000000" fill-rule="nonzero"/>
                                    <use xlink:href="#g1D4B74654519A44E6D020C78905C3AD3" x="5" y="0" fill="#000000" fill-rule="nonzero"/>
                                    <use xlink:href="#gAA49A0E9DE577F24479823C2F90DA1D7" x="9.30908203125" y="0" fill="#000000" fill-rule="nonzero"/>
                                    <use xlink:href="#g3B1C06B980138778FE12029F3E5597AA" x="11.2548828125" y="0" fill="#000000" fill-rule="nonzero"/>
                                    <use xlink:href="#g5A68E835C984272F9E0BA31A8B2D484F" x="14.03564453125" y="0" fill="#000000" fill-rule="nonzero"/>
                                    <use xlink:href="#g533B7B84AC248420F985B40495ADB7D4" x="16.81396484375" y="0" fill="#000000" fill-rule="nonzero"/>
                                    <use xlink:href="#g5A68E835C984272F9E0BA31A8B2D484F" x="19.5947265625" y="0" fill="#000000" fill-rule="nonzero"/>
                                    <use xlink:href="#g6BC68785E2ED0D252D7E99107E2D2C3B" x="22.373046875" y="0" fill="#000000" fill-rule="nonzero"/>
                                    <use xlink:href="#g5A68E835C984272F9E0BA31A8B2D484F" x="25.15380859375" y="0" fill="#000000" fill-rule="nonzero"/>
                                    <use xlink:href="#g46BD2DA00B98DED57F9EE8445825F7AA" x="27.93212890625" y="0" fill="#000000" fill-rule="nonzero"/>
                                    <use xlink:href="#g5A68E835C984272F9E0BA31A8B2D484F" x="30.712890625" y="0" fill="#000000" fill-rule="nonzero"/>
                                    <use xlink:href="#gF2AAAAFD3E0DC2A9DFE8FA2154F2186A" x="33.4912109375" y="0" fill="#000000" fill-rule="nonzero"/>
                                    <use xlink:href="#g5A68E835C984272F9E0BA31A8B2D484F" x="36.27197265625" y="0" fill="#000000" fill-rule="nonzero"/>
                                    <use xlink:href="#g7856A2D31C1BC8586D280878C5D223C8" x="39.05029296875" y="0" fill="#000000" fill-rule="nonzero"/>
                                    <use xlink:href="#g5A68E835C984272F9E0BA31A8B2D484F" x="41.8310546875" y="0" fill="#000000" fill-rule="nonzero"/>
                                    <use xlink:href="#g8A742D8BF0EA1AB37DEFA21608E5B0E9" x="44.609375" y="0" fill="#000000" fill-rule="nonzero"/>
                                    <use xlink:href="#gA2935D07FC08C9B2A5920B2DE37D1734" x="47.39013671875" y="0" fill="#000000" fill-rule="nonzero"/>
                                </g>
                            </g>
                        </g>
                    </g>
                </g>
                <path class="typst-shape" fill="none" stroke="#0074d9" stroke-width="0.5" stroke-linecap="butt" stroke-linejoin="miter" stroke-miterlimit="4" transform="matrix(1 0 0 1 7.086614173228346 31.181102362204722)" d="M 0 0m 1.4173229 0 c -0.7820561 0 -1.4173229 0.6352668 -1.4173229 1.4173229 v 8.503937 c 0 0.78205585 0.6352668 1.4173231 1.4173229 1.4173231 h 28.346457 c 0.7820568 0 1.4173241 -0.63526726 1.4173241 -1.4173231 v -8.503937 c 0 -0.7820561 -0.63526726 -1.4173229 -1.4173241 -1.4173229 h -28.346457 Z "/>
                <path class="typst-shape" fill="none" transform="matrix(1 0 0 1 8.361688340742754 34.5469269039124)" d="M 0 0h 28.630955 v 4.6069336 h -28.630955 v -4.6069336 Z "/>
                <g class="typst-group">
                    <g>
                        <g class="typst-group" transform="matrix(1 0 0 1 8.3616882519685 34.54692689763779)">
                            <g>
                                <g class="typst-text" transform="matrix(1 0 0 -1 0 3.5986328125)">
                                    <use xlink:href="#g72114A14FE68CAB1FC08009ACFDF49F2" x="0" y="0" fill="#0074d9" fill-rule="nonzero"/>
                                </g>
                                <g class="typst-text" transform="matrix(1 0 0 -1 3.3349609375 4.296875)">
                                    <use xlink:href="#gC7D019F5C85C596B93A8DE4D4F71C11C" x="0" y="0" fill="#0074d9" fill-rule="nonzero"/>
                                </g>
                                <g class="typst-text" transform="matrix(1 0 0 -1 5.142184495925903 3.5986328125)">
                                    <use xlink:href="#g1D4B74654519A44E6D020C78905C3AD3" x="1.38916015625" y="0" fill="#0074d9" fill-rule="nonzero"/>
                                    <use xlink:href="#gAA49A0E9DE577F24479823C2F90DA1D7" x="5.6982421875" y="0" fill="#0074d9" fill-rule="nonzero"/>
                                    <use xlink:href="#g3B1C06B980138778FE12029F3E5597AA" x="7.64404296875" y="0" fill="#0074d9" fill-rule="nonzero"/>
                                    <use xlink:href="#g5A68E835C984272F9E0BA31A8B2D484F" x="10.4248046875" y="0" fill="#0074d9" fill-rule="nonzero"/>
                                    <use xlink:href="#g533B7B84AC248420F985B40495ADB7D4" x="13.203125" y="0" fill="#0074d9" fill-rule="nonzero"/>
                                    <use xlink:href="#g5A68E835C984272F9E0BA31A8B2D484F" x="15.98388671875" y="0" fill="#0074d9" fill-rule="nonzero"/>
                                    <use xlink:href="#g46BD2DA00B98DED57F9EE8445825F7AA" x="18.76220703125" y="0" fill="#0074d9" fill-rule="nonzero"/>
                                    <use xlink:href="#gA2935D07FC08C9B2A5920B2DE37D1734" x="21.54296875" y="0" fill="#0074d9" fill-rule="nonzero"/>
                                </g>
                            </g>
                        </g>
                    </g>
                </g>
                <path class="typst-shape" fill="none" stroke="#59a14f" stroke-width="0.5" stroke-linecap="butt" stroke-linejoin="miter" stroke-miterlimit="4" transform="matrix(1 0 0 1 41.10236220472441 31.181102362204722)" d="M 0 0m 1.4173229 0 c -0.7820561 0 -1.4173229 0.6352668 -1.4173229 1.4173229 v 8.503937 c 0 0.78205585 0.6352668 1.4173231 1.4173229 1.4173231 h 28.346457 c 0.7820568 0 1.4173241 -0.63526726 1.4173241 -1.4173231 v -8.503937 c 0 -0.7820561 -0.63526726 -1.4173229 -1.4173241 -1.4173229 h -28.346457 Z "/>
                <path class="typst-shape" fill="none" transform="matrix(1 0 0 1 42.37743637223881 34.5469269039124)" d="M 0 0h 28.630955 v 4.6069336 h -28.630955 v -4.6069336 Z "/>
                <g class="typst-group">
                    <g>
                        <g class="typst-group" transform="matrix(1 0 0 1 42.37743628346457 34.54692689763779)">
                            <g>
                                <g class="typst-text" transform="matrix(1 0 0 -1 0 3.5986328125)">
                                    <use xlink:href="#g72114A14FE68CAB1FC08009ACFDF49F2" x="0" y="0" fill="#59a14f" fill-rule="nonzero"/>
                                </g>
                                <g class="typst-text" transform="matrix(1 0 0 -1 3.3349609375 4.296875)">
                                    <use xlink:href="#gAF26315BE8B863FD7379D08B3F2ACDC9" x="0" y="0" fill="#59a14f" fill-rule="nonzero"/>
                                </g>
                                <g class="typst-text" transform="matrix(1 0 0 -1 5.142184495925903 3.5986328125)">
                                    <use xlink:href="#g1D4B74654519A44E6D020C78905C3AD3" x="1.38916015625" y="0" fill="#59a14f" fill-rule="nonzero"/>
                                    <use xlink:href="#gAA49A0E9DE577F24479823C2F90DA1D7" x="5.6982421875" y="0" fill="#59a14f" fill-rule="nonzero"/>
                                    <use xlink:href="#g533B7B84AC248420F985B40495ADB7D4" x="7.64404296875" y="0" fill="#59a14f" fill-rule="nonzero"/>
                                    <use xlink:href="#g5A68E835C984272F9E0BA31A8B2D484F" x="10.4248046875" y="0" fill="#59a14f" fill-rule="nonzero"/>
                                    <use xlink:href="#g6BC68785E2ED0D252D7E99107E2D2C3B" x="13.203125" y="0" fill="#59a14f" fill-rule="nonzero"/>
                                    <use xlink:href="#g5A68E835C984272F9E0BA31A8B2D484F" x="15.98388671875" y="0" fill="#59a14f" fill-rule="nonzero"/>
                                    <use xlink:href="#gF2AAAAFD3E0DC2A9DFE8FA2154F2186A" x="18.76220703125" y="0" fill="#59a14f" fill-rule="nonzero"/>
                                    <use xlink:href="#gA2935D07FC08C9B2A5920B2DE37D1734" x="21.54296875" y="0" fill="#59a14f" fill-rule="nonzero"/>
                                </g>
                            </g>
                        </g>
                    </g>
                </g>
                <path class="typst-shape" fill="none" stroke="#83379d" stroke-width="0.5" stroke-linecap="butt" stroke-linejoin="miter" stroke-miterlimit="4" transform="matrix(1 0 0 1 7.086614173228346 48.188976377952756)" d="M 0 0m 1.4173229 0 c -0.7820561 0 -1.4173229 0.6352668 -1.4173229 1.4173229 v 8.503937 c 0 0.78205585 0.6352668 1.4173231 1.4173229 1.4173231 h 28.346457 c 0.7820568 0 1.4173241 -0.63526726 1.4173241 -1.4173231 v -8.503937 c 0 -0.7820561 -0.63526726 -1.4173229 -1.4173241 -1.4173229 h -28.346457 Z "/>
                <path class="typst-shape" fill="none" transform="matrix(1 0 0 1 8.361688340742754 51.55480091966043)" d="M 0 0h 28.630955 v 4.6069336 h -28.630955 v -4.6069336 Z "/>
                <g class="typst-group">
                    <g>
                        <g class="typst-group" transform="matrix(1 0 0 1 8.3616882519685 51.554800913385826)">
                            <g>
                                <g class="typst-text" transform="matrix(1 0 0 -1 0 3.5986328125)">
                                    <use xlink:href="#g72114A14FE68CAB1FC08009ACFDF49F2" x="0" y="0" fill="#83379d" fill-rule="nonzero"/>
                                </g>
                                <g class="typst-text" transform="matrix(1 0 0 -1 3.3349609375 4.296875)">
                                    <use xlink:href="#g37AB4FB2482780413A119B5E4F6D53BF" x="0" y="0" fill="#83379d" fill-rule="nonzero"/>
                                </g>
                                <g class="typst-text" transform="matrix(1 0 0 -1 5.142184495925903 3.5986328125)">
                                    <use xlink:href="#g1D4B74654519A44E6D020C78905C3AD3" x="1.38916015625" y="0" fill="#83379d" fill-rule="nonzero"/>
                                    <use xlink:href="#gAA49A0E9DE577F24479823C2F90DA1D7" x="5.6982421875" y="0" fill="#83379d" fill-rule="nonzero"/>
                                    <use xlink:href="#g46BD2DA00B98DED57F9EE8445825F7AA" x="7.64404296875" y="0" fill="#83379d" fill-rule="nonzero"/>
                                    <use xlink:href="#g5A68E835C984272F9E0BA31A8B2D484F" x="10.4248046875" y="0" fill="#83379d" fill-rule="nonzero"/>
                                    <use xlink:href="#gF2AAAAFD3E0DC2A9DFE8FA2154F2186A" x="13.203125" y="0" fill="#83379d" fill-rule="nonzero"/>
                                    <use xlink:href="#g5A68E835C984272F9E0BA31A8B2D484F" x="15.98388671875" y="0" fill="#83379d" fill-rule="nonzero"/>
                                    <use xlink:href="#g7856A2D31C1BC8586D280878C5D223C8" x="18.76220703125" y="0" fill="#83379d" fill-rule="nonzero"/>
                                    <use xlink:href="#gA2935D07FC08C9B2A5920B2DE37D1734" x="21.54296875" y="0" fill="#83379d" fill-rule="nonzero"/>
                                </g>
                            </g>
                        </g>
                    </g>
                </g>
                <path class="typst-shape" fill="none" stroke="#f28e2b" stroke-width="0.5" stroke-linecap="butt" stroke-linejoin="miter" stroke-miterlimit="4" transform="matrix(1 0 0 1 41.10236220472441 48.188976377952756)" d="M 0 0m 1.4173229 0 c -0.7820561 0 -1.4173229 0.6352668 -1.4173229 1.4173229 v 8.503937 c 0 0.78205585 0.6352668 1.4173231 1.4173229 1.4173231 h 28.346457 c 0.7820568 0 1.4173241 -0.63526726 1.4173241 -1.4173231 v -8.503937 c 0 -0.7820561 -0.63526726 -1.4173229 -1.4173241 -1.4173229 h -28.346457 Z "/>
                <path class="typst-shape" fill="none" transform="matrix(1 0 0 1 42.37743637223881 51.55480091966043)" d="M 0 0h 28.630955 v 4.6069336 h -28.630955 v -4.6069336 Z "/>
                <g class="typst-group">
                    <g>
                        <g class="typst-group" transform="matrix(1 0 0 1 42.37743628346457 51.554800913385826)">
                            <g>
                                <g class="typst-text" transform="matrix(1 0 0 -1 0 3.5986328125)">
                                    <use xlink:href="#g72114A14FE68CAB1FC08009ACFDF49F2" x="0" y="0" fill="#f28e2b" fill-rule="nonzero"/>
                                </g>
                                <g class="typst-text" transform="matrix(1 0 0 -1 3.3349609375 4.296875)">
                                    <use xlink:href="#g62919F742984FE0ABF57DC34A333894A" x="0" y="0" fill="#f28e2b" fill-rule="nonzero"/>
                                </g>
                                <g class="typst-text" transform="matrix(1 0 0 -1 5.142184495925903 3.5986328125)">
                                    <use xlink:href="#g1D4B74654519A44E6D020C78905C3AD3" x="1.38916015625" y="0" fill="#f28e2b" fill-rule="nonzero"/>
                                    <use xlink:href="#gAA49A0E9DE577F24479823C2F90DA1D7" x="5.6982421875" y="0" fill="#f28e2b" fill-rule="nonzero"/>
                                    <use xlink:href="#g3B1C06B980138778FE12029F3E5597AA" x="7.64404296875" y="0" fill="#f28e2b" fill-rule="nonzero"/>
                                    <use xlink:href="#g5A68E835C984272F9E0BA31A8B2D484F" x="10.4248046875" y="0" fill="#f28e2b" fill-rule="nonzero"/>
                                    <use xlink:href="#g7856A2D31C1BC8586D280878C5D223C8" x="13.203125" y="0" fill="#f28e2b" fill-rule="nonzero"/>
                                    <use xlink:href="#g5A68E835C984272F9E0BA31A8B2D484F" x="15.98388671875" y="0" fill="#f28e2b" fill-rule="nonzero"/>
                                    <use xlink:href="#g8A742D8BF0EA1AB37DEFA21608E5B0E9" x="18.76220703125" y="0" fill="#f28e2b" fill-rule="nonzero"/>
                                    <use xlink:href="#gA2935D07FC08C9B2A5920B2DE37D1734" x="21.54296875" y="0" fill="#f28e2b" fill-rule="nonzero"/>
                                </g>
                            </g>
                        </g>
                    </g>
                </g>
            </g>
        </g>
    </g>
    <defs id="glyph">
        <symbol id="g79AF65BD97E090AF2FE95383AACF38D8" overflow="visible">
            <path d="M 0 0m 2.5097656 1.3867188 v 2.211914 h 0.76416016 v -2.211914 q 0 -0.57373047 -0.17822266 -0.8935547 q -0.33203125 -0.5859375 -1.2670898 -0.5859375 q -0.9350586 0 -1.2695313 0.5859375 q -0.17822266 0.31982422 -0.17822266 0.8935547 v 2.211914 h 0.76416016 v -2.211914 q 0 -0.37109375 0.087890625 -0.5419922 q 0.13671875 -0.30273438 0.5957031 -0.30273438 q 0.45654297 0 0.5932617 0.30273438 q 0.087890625 0.17089844 0.087890625 0.5419922 Z "/>
        </symbol>
        <symbol id="g1D4B74654519A44E6D020C78905C3AD3" overflow="visible">
            <path d="M 0 0m 2.8222656 2.2143555 v -0.64208984 h -2.644043 v 0.64208984 h 2.644043 Z m -2.644043 -1.7822266 v 0.64208984 h 2.644043 v -0.64208984 h -2.644043 Z "/>
        </symbol>
        <symbol id="gAA49A0E9DE577F24479823C2F90DA1D7" overflow="visible">
            <path d="M 0 0m 0.7714844 -0.79589844 q -0.26367188 0.20019531 -0.26367188 0.5810547 v 0.76416016 q 0 0.3076172 -0.18554688 0.4711914 q -0.11230469 0.100097656 -0.32226563 0.1586914 v 0.29541016 q 0.2368164 0.080566406 0.33447266 0.17822266 q 0.17333984 0.16845703 0.17333984 0.5151367 v 0.6542969 q 0 0.12451172 0.041503906 0.26123047 q 0.07324219 0.2368164 0.24902344 0.37597656 q 0.16113281 0.12695313 0.37841797 0.16845703 q 0.13183594 0.026855469 0.37841797 0.029296875 v -0.3881836 q -0.20263672 -0.043945313 -0.2758789 -0.1171875 q -0.11230469 -0.11230469 -0.11230469 -0.3930664 v -0.56640625 q 0 -0.2734375 -0.07324219 -0.4345703 q -0.12451172 -0.2709961 -0.48828125 -0.43945313 q 0.32958984 -0.13427734 0.44311523 -0.3125 q 0.11352539 -0.17822266 0.1184082 -0.49316406 v -0.6176758 q 0 -0.2709961 0.13183594 -0.390625 q 0.07324219 -0.07080078 0.25634766 -0.12451172 v -0.3881836 l -0.17333984 0.0048828125 q -0.3491211 0.009765625 -0.61035156 0.20751953 Z "/>
        </symbol>
        <symbol id="g3B1C06B980138778FE12029F3E5597AA" overflow="visible">
            <path d="M 0 0m 1.8920898 0 h -0.7128906 v 2.4414063 h -0.83251953 v 0.4736328 q 0.32958984 0.0146484375 0.46142578 0.043945313 q 0.20996094 0.04638672 0.34179688 0.18554688 q 0.09033203 0.095214844 0.13671875 0.25390625 q 0.026855469 0.095214844 0.026855469 0.14160156 h 0.5786133 v -3.540039 Z "/>
        </symbol>
        <symbol id="g5A68E835C984272F9E0BA31A8B2D484F" overflow="visible">
            <path d="M 0 0m 0.99609375 -0.24902344 q -0.043945313 -0.18066406 -0.16357422 -0.3125 q -0.12939453 -0.14160156 -0.30395508 -0.21362305 q -0.17456055 -0.072021484 -0.24047852 -0.072021484 v 0.2685547 q 0.20996094 0.05859375 0.3088379 0.1953125 q 0.09887695 0.13671875 0.11352539 0.38330078 h -0.42236328 v 0.72753906 h 0.7519531 v -0.6298828 q 0 -0.16601563 -0.043945313 -0.3466797 Z "/>
        </symbol>
        <symbol id="g533B7B84AC248420F985B40495ADB7D4" overflow="visible">
            <path d="M 0 0m 1.7382813 2.8198242 q -0.12451172 0.14892578 -0.3564453 0.14892578 q -0.3173828 0 -0.4321289 -0.2368164 q -0.06591797 -0.13671875 -0.078125 -0.4345703 h -0.67626953 q 0.017089844 0.45166016 0.16357422 0.72998047 q 0.2783203 0.52978516 0.98876953 0.52978516 q 0.56152344 0 0.8935547 -0.3112793 q 0.33203125 -0.3112793 0.33203125 -0.8239746 q 0 -0.3930664 -0.234375 -0.6982422 q -0.1538086 -0.20263672 -0.5053711 -0.45166016 l -0.2783203 -0.1977539 q -0.26123047 -0.18554688 -0.35766602 -0.2685547 q -0.09643555 -0.08300781 -0.16235352 -0.1928711 h 1.5454102 v -0.61279297 h -2.4243164 q 0.009765625 0.38085938 0.16357422 0.6958008 q 0.14892578 0.3540039 0.703125 0.7495117 q 0.48095703 0.34423828 0.6225586 0.49316406 q 0.21728516 0.2319336 0.21728516 0.5078125 q 0 0.22460938 -0.12451172 0.37353516 Z "/>
        </symbol>
        <symbol id="g6BC68785E2ED0D252D7E99107E2D2C3B" overflow="visible">
            <path d="M 0 0m 0.95703125 2.8344727 q -0.1171875 -0.15625 -0.11230469 -0.41748047 h -0.64941406 q 0.009765625 0.26367188 0.09033203 0.5004883 q 0.08544922 0.20751953 0.2685547 0.38330078 q 0.13671875 0.12451172 0.32470703 0.19042969 q 0.18798828 0.06591797 0.46142578 0.06591797 q 0.5078125 0 0.8190918 -0.26245117 q 0.3112793 -0.26245117 0.3112793 -0.7043457 q 0 -0.3125 -0.18554688 -0.52734375 q -0.1171875 -0.13427734 -0.24414063 -0.18310547 q 0.095214844 0 0.2734375 -0.16357422 q 0.26611328 -0.24658203 0.26611328 -0.6738281 q 0 -0.44921875 -0.3112793 -0.7897949 q -0.3112793 -0.34057617 -0.92163086 -0.34057617 q -0.7519531 0 -1.0449219 0.49072266 q -0.1538086 0.26123047 -0.17089844 0.68359375 h 0.68359375 q 0 -0.21240234 0.068359375 -0.3515625 q 0.12695313 -0.25634766 0.46142578 -0.25634766 q 0.20507813 0 0.35766602 0.14038086 q 0.15258789 0.14038086 0.15258789 0.40405273 q 0 0.3491211 -0.28320313 0.4663086 q -0.16113281 0.06591797 -0.5078125 0.06591797 v 0.49804688 q 0.33935547 0.0048828125 0.4736328 0.06591797 q 0.2319336 0.10253906 0.2319336 0.41503906 q 0 0.20263672 -0.1184082 0.32958984 q -0.1184082 0.12695313 -0.33325195 0.12695313 q -0.24658203 0 -0.36132813 -0.15625 Z "/>
        </symbol>
        <symbol id="g46BD2DA00B98DED57F9EE8445825F7AA" overflow="visible">
            <path d="M 0 0m 2.614746 1.3061523 v -0.5444336 h -0.40039063 v -0.76171875 h -0.68115234 v 0.76171875 h -1.4013672 v 0.60791016 l 1.3012695 2.1484375 h 0.78125 v -2.211914 h 0.40039063 Z m -1.9677734 0 h 0.88623047 v 1.5283203 l -0.88623047 -1.5283203 Z "/>
        </symbol>
        <symbol id="gF2AAAAFD3E0DC2A9DFE8FA2154F2186A" overflow="visible">
            <path d="M 0 0m 1.3330078 1.7578125 q -0.12695313 0 -0.21972656 -0.03173828 q -0.16357422 -0.05859375 -0.24658203 -0.21728516 l -0.625 0.029296875 l 0.24902344 1.9555664 h 1.9506836 v -0.5908203 h -1.4477539 l -0.12695313 -0.7739258 q 0.16113281 0.10498047 0.25146484 0.13916016 q 0.15136719 0.056152344 0.36865234 0.056152344 q 0.43945313 0 0.76660156 -0.29541016 q 0.32714844 -0.29541016 0.32714844 -0.859375 q 0 -0.49072266 -0.3149414 -0.87646484 q -0.3149414 -0.3857422 -0.9423828 -0.3857422 q -0.5053711 0 -0.8300781 0.2709961 q -0.32470703 0.2709961 -0.36132813 0.76904297 h 0.6933594 q 0.041503906 -0.22705078 0.1586914 -0.3503418 q 0.1171875 -0.123291016 0.34179688 -0.123291016 q 0.25878906 0 0.3942871 0.18188477 q 0.13549805 0.18188477 0.13549805 0.45776367 q 0 0.2709961 -0.12695313 0.45776367 q -0.12695313 0.18676758 -0.3955078 0.18676758 Z "/>
        </symbol>
        <symbol id="g7856A2D31C1BC8586D280878C5D223C8" overflow="visible">
            <path d="M 0 0m 1.5283203 2.2973633 q 0.4711914 0 0.7727051 -0.31982422 q 0.30151367 -0.31982422 0.30151367 -0.8178711 q 0 -0.49560547 -0.29541016 -0.87402344 q -0.29541016 -0.37841797 -0.91796875 -0.37841797 q -0.6689453 0 -0.9863281 0.55908203 q -0.24658203 0.43701172 -0.24658203 1.1279297 q 0 0.40527344 0.034179688 0.6591797 q 0.061035156 0.45166016 0.2368164 0.7519531 q 0.15136719 0.25634766 0.39672852 0.41259766 q 0.24536133 0.15625 0.5871582 0.15625 q 0.49316406 0 0.7861328 -0.25268555 q 0.29296875 -0.25268555 0.32958984 -0.6726074 h -0.6933594 q 0 0.08544922 -0.06591797 0.18798828 q -0.11230469 0.16601563 -0.33935547 0.16601563 q -0.33935547 0 -0.48339844 -0.38085938 q -0.078125 -0.20996094 -0.107421875 -0.6201172 q 0.12939453 0.1538086 0.30029297 0.22460938 q 0.17089844 0.07080078 0.390625 0.07080078 Z m -0.46875 -0.6640625 q -0.20507813 -0.1586914 -0.20507813 -0.5126953 q 0 -0.28564453 0.1538086 -0.4663086 q 0.1538086 -0.18066406 0.390625 -0.18066406 q 0.2319336 0 0.36499023 0.17456055 q 0.13305664 0.17456055 0.13305664 0.45288086 q 0 0.3100586 -0.15136719 0.47485352 q -0.15136719 0.16479492 -0.37109375 0.16479492 q -0.17822266 0 -0.3149414 -0.107421875 Z "/>
        </symbol>
        <symbol id="g8A742D8BF0EA1AB37DEFA21608E5B0E9" overflow="visible">
            <path d="M 0 0m 2.2021484 2.4023438 q -0.2783203 -0.3955078 -0.4663086 -0.8154297 q -0.14892578 -0.32958984 -0.2685547 -0.80566406 q -0.119628906 -0.47607422 -0.119628906 -0.78125 h -0.72265625 q 0.03173828 0.95214844 0.625 1.9799805 q 0.38330078 0.63720703 0.64208984 0.8886719 h -1.7651367 l 0.009765625 0.625 h 2.5 v -0.5444336 q -0.15625 -0.1538086 -0.4345703 -0.546875 Z "/>
        </symbol>
        <symbol id="gA2935D07FC08C9B2A5920B2DE37D1734" overflow="visible">
            <path d="M 0 0m 0.49560547 2.758789 q 0 0.2709961 -0.08666992 0.36865234 q -0.08666992 0.09765625 -0.29907227 0.14160156 v 0.3881836 q 0.24414063 -0.0024414063 0.37597656 -0.029296875 q 0.21728516 -0.041503906 0.38085938 -0.16845703 q 0.16357422 -0.12695313 0.22705078 -0.3125 q 0.06347656 -0.18554688 0.06347656 -0.32470703 v -0.6542969 q 0 -0.3491211 0.1586914 -0.5126953 q 0.09765625 -0.09765625 0.3491211 -0.18066406 v -0.29541016 q -0.20751953 -0.05859375 -0.3149414 -0.15136719 q -0.1928711 -0.16601563 -0.1928711 -0.47851563 v -0.76416016 q 0 -0.37109375 -0.25634766 -0.5749512 q -0.25634766 -0.20385742 -0.6176758 -0.21362305 l -0.17333984 -0.0048828125 v 0.3881836 q 0.18310547 0.053710938 0.25634766 0.12695313 q 0.12451172 0.12207031 0.12939453 0.3881836 v 0.6176758 q 0 0.3466797 0.13427734 0.5151367 q 0.13427734 0.16601563 0.4272461 0.29052734 q -0.31982422 0.15625 -0.44067383 0.3552246 q -0.12084961 0.19897461 -0.12084961 0.5187988 v 0.56640625 Z "/>
        </symbol>
        <symbol id="g72114A14FE68CAB1FC08009ACFDF49F2" overflow="visible">
            <path d="M 0 0m 1.6870117 0.52001953 q 0.26611328 0 0.4321289 0.05859375 q 0.3149414 0.11230469 0.3149414 0.41748047 q 0 0.17822266 -0.15625 0.2758789 q -0.15625 0.095214844 -0.49072266 0.16845703 l -0.38085938 0.08544922 q -0.56152344 0.12695313 -0.7763672 0.2758789 q -0.36376953 0.24902344 -0.36376953 0.7788086 q 0 0.48339844 0.3515625 0.80322266 q 0.3515625 0.31982422 1.0327148 0.31982422 q 0.56884766 0 0.970459 -0.30151367 q 0.40161133 -0.30151367 0.42114258 -0.87524414 h -0.72265625 q -0.01953125 0.32470703 -0.28320313 0.46142578 q -0.17578125 0.09033203 -0.43701172 0.09033203 q -0.29052734 0 -0.4638672 -0.1171875 q -0.17333984 -0.1171875 -0.17333984 -0.32714844 q 0 -0.1928711 0.17089844 -0.28808594 q 0.10986328 -0.06347656 0.46875 -0.14892578 l 0.6201172 -0.14892578 q 0.40771484 -0.09765625 0.6152344 -0.26123047 q 0.32226563 -0.25390625 0.32226563 -0.7348633 q 0 -0.49316406 -0.37719727 -0.8190918 q -0.37719727 -0.32592773 -1.0656738 -0.32592773 q -0.703125 0 -1.105957 0.32104492 q -0.40283203 0.32104492 -0.40283203 0.88256836 h 0.71777344 q 0.034179688 -0.24658203 0.13427734 -0.36865234 q 0.18310547 -0.22216797 0.6274414 -0.22216797 Z "/>
        </symbol>
        <symbol id="gC7D019F5C85C596B93A8DE4D4F71C11C" overflow="visible">
            <path d="M 0 0m 1.2296736 0 h -0.4633093 v 1.5866756 h -0.5410564 v 0.30781507 q 0.21420121 0.009520054 0.2998817 0.028560162 q 0.1364541 0.030146837 0.22213459 0.12058735 q 0.058707 0.06188035 0.088853836 0.16501427 q 0.017453432 0.06188035 0.017453432 0.09202719 h 0.37604213 v -2.3006797 Z "/>
        </symbol>
        <symbol id="gAF26315BE8B863FD7379D08B3F2ACDC9" overflow="visible">
            <path d="M 0 0m 1.129713 1.8326104 q -0.08092046 0.096787214 -0.23165464 0.096787214 q -0.20626783 0 -0.2808416 -0.15390754 q -0.042840242 -0.088853836 -0.05077362 -0.28242826 h -0.43950915 q 0.0111067295 0.293535 0.10630727 0.47441602 q 0.18088102 0.3443086 0.64260364 0.3443086 q 0.3649354 0 0.5807233 -0.20230126 q 0.21578789 -0.20230103 0.21578789 -0.5355029 q 0 -0.25545478 -0.15232086 -0.45378923 q -0.099960566 -0.13169408 -0.32844186 -0.293535 l -0.18088102 -0.12852073 q -0.1697743 -0.12058735 -0.23244798 -0.17453432 q -0.06267369 -0.053946972 -0.10551393 -0.12534738 h 1.0043657 v -0.3982556 h -1.5755689 q 0.0063467026 0.2475214 0.10630727 0.45220256 q 0.096787214 0.23006797 0.4569626 0.48710942 q 0.3125751 0.22372127 0.4046023 0.32050848 q 0.14121413 0.15073419 0.14121413 0.33002853 q 0 0.14597416 -0.08092046 0.24276137 Z "/>
        </symbol>
        <symbol id="g37AB4FB2482780413A119B5E4F6D53BF" overflow="visible">
            <path d="M 0 0m 0.62197685 1.8421304 q -0.07616043 -0.10154724 -0.07298708 -0.27132154 h -0.42205572 q 0.0063467026 0.17136097 0.058707 0.3252685 q 0.055533648 0.13486743 0.17453432 0.24910808 q 0.088853836 0.08092046 0.21102786 0.1237607 q 0.122174025 0.042840242 0.2998817 0.042840242 q 0.33002853 0 0.5323297 -0.17056775 q 0.20230114 -0.17056751 0.20230114 -0.4577558 q 0 -0.20309448 -0.12058735 -0.34272194 q -0.07616043 -0.08726716 -0.15866756 -0.11900067 q 0.06188035 0 0.17770767 -0.10630727 q 0.17294765 -0.16025424 0.17294765 -0.43792248 q 0 -0.29194832 -0.20230114 -0.5132896 q -0.20230114 -0.22134125 -0.59897006 -0.22134125 q -0.4886961 0 -0.6790972 0.3189218 q -0.099960566 0.1697743 -0.111067295 0.44426918 h 0.44426918 q 0 -0.13804078 0.044426918 -0.2284813 q 0.08250713 -0.16660094 0.2998817 -0.16660094 q 0.13328075 0 0.23244798 0.09123385 q 0.09916723 0.09123385 0.09916723 0.26259482 q 0 0.22689462 -0.18405437 0.30305505 q -0.10472059 0.042840242 -0.33002853 0.042840242 v 0.32368183 q 0.22054791 0.0031733513 0.30781507 0.042840242 q 0.15073419 0.06664038 0.15073419 0.26973486 q 0 0.13169408 -0.07695377 0.21420121 q -0.07695377 0.08250713 -0.21658123 0.08250713 q -0.16025424 0 -0.234828 -0.10154724 Z "/>
        </symbol>
        <symbol id="g62919F742984FE0ABF57DC34A333894A" overflow="visible">
            <path d="M 0 0m 1.6993296 0.84887147 v -0.35382867 h -0.2602148 v -0.4950428 h -0.4426825 v 0.4950428 h -0.9107518 v 0.39508224 l 0.8456981 1.3962746 h 0.5077362 v -1.4375281 h 0.2602148 Z m -1.2788606 0 h 0.57596326 v 0.99325895 l -0.57596326 -0.99325895 Z "/>
        </symbol>
    </defs>
</svg>
