<svg class="typst-doc" viewBox="0 0 81.37007874015748 81.37007874015748" width="81.37007874015748pt" height="81.37007874015748pt" xmlns="http://www.w3.org/2000/svg" xmlns:xlink="http://www.w3.org/1999/xlink" xmlns:h5="http://www.w3.org/1999/xhtml">
    <g>
        <g class="typst-group" transform="matrix(1 0 0 1 1 1)">
            <g>
                <path class="typst-shape" fill="#ffffff" fill-rule="nonzero" stroke="#aac4e9" stroke-width="2" stroke-linecap="butt" stroke-linejoin="miter" stroke-miterlimit="4" d="M 0 0m 39.68504 0 c -21.89757 0 -39.68504 17.78747 -39.68504 39.68504 c 0 21.897568 17.78747 39.68504 39.68504 39.68504 c 21.897568 0 39.68504 -17.787472 39.68504 -39.68504 c 0 -21.89757 -17.787472 -39.68504 -39.68504 -39.68504 Z "/>
                <path class="typst-shape" fill="#d3dee9" fill-rule="nonzero" stroke="#4a739f" stroke-width="1" stroke-linecap="butt" stroke-linejoin="miter" stroke-miterlimit="4" transform="matrix(1 0 0 1 6.519685039370078 13.606299212598426)" d="M 0 0m 17.574802 0 c -9.6974945 0 -17.574802 7.877308 -17.574802 17.574802 c 0 9.697496 7.877308 17.574802 17.574802 17.574802 c 9.697496 0 17.574802 -7.877306 17.574802 -17.574802 c 0 -9.6974945 -7.877306 -17.574802 -17.574802 -17.574802 Z "/>
                <path class="typst-shape" fill="#d6e8d3" fill-rule="nonzero" stroke="#55994b" stroke-width="1" stroke-linecap="butt" stroke-linejoin="miter" stroke-miterlimit="4" transform="matrix(1 0 0 1 33.44881889763779 9.354330708661413)" d="M 0 0m 17.574802 0 c -9.6974945 0 -17.574802 7.877308 -17.574802 17.574802 c 0 9.697496 7.877308 17.574802 17.574802 17.574802 c 9.697496 0 17.574802 -7.877306 17.574802 -17.574802 c 0 -9.6974945 -7.877306 -17.574802 -17.574802 -17.574802 Z "/>
                <path class="typst-shape" fill="#fbddbf" fill-rule="nonzero" stroke="#e68729" stroke-width="1" stroke-linecap="butt" stroke-linejoin="miter" stroke-miterlimit="4" transform="matrix(1 0 0 1 24.944881889763774 37.7007874015748)" d="M 0 0m 17.574802 0 c -9.6974945 0 -17.574802 7.877308 -17.574802 17.574802 c 0 9.697496 7.877308 17.574802 17.574802 17.574802 c 9.697496 0 17.574802 -7.877306 17.574802 -17.574802 c 0 -9.6974945 -7.877306 -17.574802 -17.574802 -17.574802 Z "/>
                <path class="typst-shape" fill="#262626" fill-rule="nonzero" transform="matrix(1 0 0 1 14.74015748031496 24.094488188976374)" d="M 0 0m 2.8346457 0 c -1.5641122 0 -2.8346457 1.2705336 -2.8346457 2.8346457 c 0 1.5641122 1.2705336 2.8346457 2.8346457 2.8346457 c 1.5641122 0 2.8346457 -1.2705336 2.8346457 -2.8346457 c 0 -1.5641122 -1.2705336 -2.8346457 -2.8346457 -2.8346457 Z "/>
                <path class="typst-shape" fill="#262626" fill-rule="nonzero" transform="matrix(1 0 0 1 28.34645669291338 21.259842519685037)" d="M 0 0m 2.8346457 0 c -1.5641122 0 -2.8346457 1.2705336 -2.8346457 2.8346457 c 0 1.5641122 1.2705336 2.8346457 2.8346457 2.8346457 c 1.5641122 0 2.8346457 -1.2705336 2.8346457 -2.8346457 c 0 -1.5641122 -1.2705336 -2.8346457 -2.8346457 -2.8346457 Z "/>
                <path class="typst-shape" fill="#262626" fill-rule="nonzero" transform="matrix(1 0 0 1 42.51968503937008 18.425196850393696)" d="M 0 0m 2.8346457 0 c -1.5641122 0 -2.8346457 1.2705336 -2.8346457 2.8346457 c 0 1.5641122 1.2705336 2.8346457 2.8346457 2.8346457 c 1.5641122 0 2.8346457 -1.2705336 2.8346457 -2.8346457 c 0 -1.5641122 -1.2705336 -2.8346457 -2.8346457 -2.8346457 Z "/>
                <path class="typst-shape" fill="#262626" fill-rule="nonzero" transform="matrix(1 0 0 1 52.44094488188976 28.34645669291338)" d="M 0 0m 2.8346457 0 c -1.5641122 0 -2.8346457 1.2705336 -2.8346457 2.8346457 c 0 1.5641122 1.2705336 2.8346457 2.8346457 2.8346457 c 1.5641122 0 2.8346457 -1.2705336 2.8346457 -2.8346457 c 0 -1.5641122 -1.2705336 -2.8346457 -2.8346457 -2.8346457 Z "/>
                <path class="typst-shape" fill="#262626" fill-rule="nonzero" transform="matrix(1 0 0 1 31.181102362204722 34.01574803149607)" d="M 0 0m 2.8346457 0 c -1.5641122 0 -2.8346457 1.2705336 -2.8346457 2.8346457 c 0 1.5641122 1.2705336 2.8346457 2.8346457 2.8346457 c 1.5641122 0 2.8346457 -1.2705336 2.8346457 -2.8346457 c 0 -1.5641122 -1.2705336 -2.8346457 -2.8346457 -2.8346457 Z "/>
                <path class="typst-shape" fill="#262626" fill-rule="nonzero" transform="matrix(1 0 0 1 28.34645669291338 48.188976377952756)" d="M 0 0m 2.8346457 0 c -1.5641122 0 -2.8346457 1.2705336 -2.8346457 2.8346457 c 0 1.5641122 1.2705336 2.8346457 2.8346457 2.8346457 c 1.5641122 0 2.8346457 -1.2705336 2.8346457 -2.8346457 c 0 -1.5641122 -1.2705336 -2.8346457 -2.8346457 -2.8346457 Z "/>
                <path class="typst-shape" fill="#262626" fill-rule="nonzero" transform="matrix(1 0 0 1 49.60629921259842 52.44094488188976)" d="M 0 0m 2.8346457 0 c -1.5641122 0 -2.8346457 1.2705336 -2.8346457 2.8346457 c 0 1.5641122 1.2705336 2.8346457 2.8346457 2.8346457 c 1.5641122 0 2.8346457 -1.2705336 2.8346457 -2.8346457 c 0 -1.5641122 -1.2705336 -2.8346457 -2.8346457 -2.8346457 Z "/>
            </g>
        </g>
    </g>
</svg>
