<svg class="typst-doc" viewBox="0 0 81.37007874015748 81.37007874015748" width="81.37007874015748pt" height="81.37007874015748pt" xmlns="http://www.w3.org/2000/svg" xmlns:xlink="http://www.w3.org/1999/xlink" xmlns:h5="http://www.w3.org/1999/xhtml">
    <g>
        <g class="typst-group" transform="matrix(1 0 0 1 1 1)">
            <g>
                <path class="typst-shape" fill="#ffffff" fill-rule="nonzero" stroke="#aac4e9" stroke-width="2" stroke-linecap="butt" stroke-linejoin="miter" stroke-miterlimit="4" d="M 0 0m 39.68504 0 c -21.89757 0 -39.68504 17.78747 -39.68504 39.68504 c 0 21.897568 17.78747 39.68504 39.68504 39.68504 c 21.897568 0 39.68504 -17.787472 39.68504 -39.68504 c 0 -21.89757 -17.787472 -39.68504 -39.68504 -39.68504 Z "/>
                <path class="typst-shape" fill="#dce4ed" fill-rule="nonzero" transform="matrix(1 0 0 1 11.90551181102362 17.007874015748033)" d="M 0 0m 16.440945 0 c -9.07185 0 -16.440945 7.3690944 -16.440945 16.440945 c 0 9.07185 7.3690944 16.440945 16.440945 16.440945 c 9.07185 0 16.440945 -7.369095 16.440945 -16.440945 c 0 -9.07185 -7.369095 -16.440945 -16.440945 -16.440945 Z "/>
                <path class="typst-shape" fill="#dce4ed" fill-rule="nonzero" transform="matrix(1 0 0 1 34.58267716535433 17.007874015748033)" d="M 0 0m 16.440945 0 c -9.07185 0 -16.440945 7.3690944 -16.440945 16.440945 c 0 9.07185 7.3690944 16.440945 16.440945 16.440945 c 9.07185 0 16.440945 -7.369095 16.440945 -16.440945 c 0 -9.07185 -7.369095 -16.440945 -16.440945 -16.440945 Z "/>
                <path class="typst-shape" fill="#dce4ed" fill-rule="nonzero" transform="matrix(1 0 0 1 23.244094488188978 36)" d="M 0 0m 16.440945 0 c -9.07185 0 -16.440945 7.3690944 -16.440945 16.440945 c 0 9.07185 7.3690944 16.440945 16.440945 16.440945 c 9.07185 0 16.440945 -7.369095 16.440945 -16.440945 c 0 -9.07185 -7.369095 -16.440945 -16.440945 -16.440945 Z "/>
                <path class="typst-shape" fill="none" stroke="#334f6d" stroke-width="1.2" stroke-linecap="butt" stroke-linejoin="miter" stroke-miterlimit="4" transform="matrix(1 0 0 1 11.90551181102362 17.007874015748033)" d="M 0 0m 16.440945 0 c -9.07185 0 -16.440945 7.3690944 -16.440945 16.440945 c 0 9.07185 7.3690944 16.440945 16.440945 16.440945 c 9.07185 0 16.440945 -7.369095 16.440945 -16.440945 c 0 -9.07185 -7.369095 -16.440945 -16.440945 -16.440945 Z "/>
                <path class="typst-shape" fill="none" stroke="#4e79a7" stroke-width="1.2" stroke-linecap="butt" stroke-linejoin="miter" stroke-miterlimit="4" transform="matrix(1 0 0 1 34.58267716535433 17.007874015748033)" d="M 0 0m 16.440945 0 c -9.07185 0 -16.440945 7.3690944 -16.440945 16.440945 c 0 9.07185 7.3690944 16.440945 16.440945 16.440945 c 9.07185 0 16.440945 -7.369095 16.440945 -16.440945 c 0 -9.07185 -7.369095 -16.440945 -16.440945 -16.440945 Z "/>
                <path class="typst-shape" fill="none" stroke="#8ca8c6" stroke-width="1.2" stroke-linecap="butt" stroke-linejoin="miter" stroke-miterlimit="4" transform="matrix(1 0 0 1 23.244094488188978 36)" d="M 0 0m 16.440945 0 c -9.07185 0 -16.440945 7.3690944 -16.440945 16.440945 c 0 9.07185 7.3690944 16.440945 16.440945 16.440945 c 9.07185 0 16.440945 -7.369095 16.440945 -16.440945 c 0 -9.07185 -7.369095 -16.440945 -16.440945 -16.440945 Z "/>
                <path class="typst-shape" fill="#ffffff" fill-rule="nonzero" stroke="#505050" stroke-width="0.7" stroke-linecap="butt" stroke-linejoin="miter" stroke-miterlimit="4" transform="matrix(1 0 0 1 15.590551181102358 27.77952755905512)" d="M 0 0m 1.984252 0 c -1.0948784 0 -1.984252 0.8893735 -1.984252 1.984252 c 0 1.0948784 0.8893735 1.984252 1.984252 1.984252 c 1.0948784 0 1.984252 -0.88937354 1.984252 -1.984252 c 0 -1.0948784 -0.88937354 -1.984252 -1.984252 -1.984252 Z "/>
                <path class="typst-shape" fill="#ffffff" fill-rule="nonzero" stroke="#505050" stroke-width="0.7" stroke-linecap="butt" stroke-linejoin="miter" stroke-miterlimit="4" transform="matrix(1 0 0 1 29.19685039370078 22.110236220472434)" d="M 0 0m 1.984252 0 c -1.0948784 0 -1.984252 0.8893735 -1.984252 1.984252 c 0 1.0948784 0.8893735 1.984252 1.984252 1.984252 c 1.0948784 0 1.984252 -0.88937354 1.984252 -1.984252 c 0 -1.0948784 -0.88937354 -1.984252 -1.984252 -1.984252 Z "/>
                <path class="typst-shape" fill="#ffffff" fill-rule="nonzero" stroke="#505050" stroke-width="0.7" stroke-linecap="butt" stroke-linejoin="miter" stroke-miterlimit="4" transform="matrix(1 0 0 1 59.811023622047244 27.77952755905512)" d="M 0 0m 1.984252 0 c -1.0948784 0 -1.984252 0.8893735 -1.984252 1.984252 c 0 1.0948784 0.8893735 1.984252 1.984252 1.984252 c 1.0948784 0 1.984252 -0.88937354 1.984252 -1.984252 c 0 -1.0948784 -0.88937354 -1.984252 -1.984252 -1.984252 Z "/>
                <path class="typst-shape" fill="#ffffff" fill-rule="nonzero" stroke="#505050" stroke-width="0.7" stroke-linecap="butt" stroke-linejoin="miter" stroke-miterlimit="4" transform="matrix(1 0 0 1 26.362204724409448 43.370078740157474)" d="M 0 0m 1.984252 0 c -1.0948784 0 -1.984252 0.8893735 -1.984252 1.984252 c 0 1.0948784 0.8893735 1.984252 1.984252 1.984252 c 1.0948784 0 1.984252 -0.88937354 1.984252 -1.984252 c 0 -1.0948784 -0.88937354 -1.984252 -1.984252 -1.984252 Z "/>
                <path class="typst-shape" fill="#ffffff" fill-rule="nonzero" stroke="#505050" stroke-width="0.7" stroke-linecap="butt" stroke-linejoin="miter" stroke-miterlimit="4" transform="matrix(1 0 0 1 37.70078740157479 36.283464566929126)" d="M 0 0m 1.984252 0 c -1.0948784 0 -1.984252 0.8893735 -1.984252 1.984252 c 0 1.0948784 0.8893735 1.984252 1.984252 1.984252 c 1.0948784 0 1.984252 -0.88937354 1.984252 -1.984252 c 0 -1.0948784 -0.88937354 -1.984252 -1.984252 -1.984252 Z "/>
                <path class="typst-shape" fill="#ffffff" fill-rule="nonzero" stroke="#505050" stroke-width="0.7" stroke-linecap="butt" stroke-linejoin="miter" stroke-miterlimit="4" transform="matrix(1 0 0 1 49.039370078740156 43.370078740157474)" d="M 0 0m 1.984252 0 c -1.0948784 0 -1.984252 0.8893735 -1.984252 1.984252 c 0 1.0948784 0.8893735 1.984252 1.984252 1.984252 c 1.0948784 0 1.984252 -0.88937354 1.984252 -1.984252 c 0 -1.0948784 -0.88937354 -1.984252 -1.984252 -1.984252 Z "/>
                <path class="typst-shape" fill="#ffffff" fill-rule="nonzero" stroke="#505050" stroke-width="0.7" stroke-linecap="butt" stroke-linejoin="miter" stroke-miterlimit="4" transform="matrix(1 0 0 1 32.031496062992126 56.125984251968504)" d="M 0 0m 1.984252 0 c -1.0948784 0 -1.984252 0.8893735 -1.984252 1.984252 c 0 1.0948784 0.8893735 1.984252 1.984252 1.984252 c 1.0948784 0 1.984252 -0.88937354 1.984252 -1.984252 c 0 -1.0948784 -0.88937354 -1.984252 -1.984252 -1.984252 Z "/>
                <path class="typst-shape" fill="#ffffff" fill-rule="nonzero" stroke="#505050" stroke-width="0.7" stroke-linecap="butt" stroke-linejoin="miter" stroke-miterlimit="4" transform="matrix(1 0 0 1 46.20472440944882 57.54330708661416)" d="M 0 0m 1.984252 0 c -1.0948784 0 -1.984252 0.8893735 -1.984252 1.984252 c 0 1.0948784 0.8893735 1.984252 1.984252 1.984252 c 1.0948784 0 1.984252 -0.88937354 1.984252 -1.984252 c 0 -1.0948784 -0.88937354 -1.984252 -1.984252 -1.984252 Z "/>
            </g>
        </g>
    </g>
</svg>
