<svg class="typst-doc" viewBox="0 0 81.37007874015748 81.37007874015748" width="81.37007874015748pt" height="81.37007874015748pt" xmlns="http://www.w3.org/2000/svg" xmlns:xlink="http://www.w3.org/1999/xlink" xmlns:h5="http://www.w3.org/1999/xhtml">
    <g>
        <g class="typst-group" transform="matrix(1 0 0 1 1 1)">
            <g>
                <path class="typst-shape" fill="#ffffff" fill-rule="nonzero" stroke="#aac4e9" stroke-width="2" stroke-linecap="butt" stroke-linejoin="miter" stroke-miterlimit="4" d="M 0 0m 39.68504 0 c -21.89757 0 -39.68504 17.78747 -39.68504 39.68504 c 0 21.897568 17.78747 39.68504 39.68504 39.68504 c 21.897568 0 39.68504 -17.787472 39.68504 -39.68504 c 0 -21.89757 -17.787472 -39.68504 -39.68504 -39.68504 Z "/>
                <path class="typst-shape" fill="#dfe7ef" fill-rule="nonzero" stroke="#4e79a7" stroke-width="1.2" stroke-linecap="butt" stroke-linejoin="miter" stroke-miterlimit="4" transform="matrix(1 0 0 1 11.90551181102362 17.007874015748033)" d="M 0 0m 16.440945 0 c -9.07185 0 -16.440945 7.3690944 -16.440945 16.440945 c 0 9.07185 7.3690944 16.440945 16.440945 16.440945 c 9.07185 0 16.440945 -7.369095 16.440945 -16.440945 c 0 -9.07185 -7.369095 -16.440945 -16.440945 -16.440945 Z "/>
                <path class="typst-shape" fill="#e1eedf" fill-rule="nonzero" stroke="#59a14f" stroke-width="1.2" stroke-linecap="butt" stroke-linejoin="miter" stroke-miterlimit="4" transform="matrix(1 0 0 1 34.58267716535433 17.007874015748033)" d="M 0 0m 16.440945 0 c -9.07185 0 -16.440945 7.3690944 -16.440945 16.440945 c 0 9.07185 7.3690944 16.440945 16.440945 16.440945 c 9.07185 0 16.440945 -7.369095 16.440945 -16.440945 c 0 -9.07185 -7.369095 -16.440945 -16.440945 -16.440945 Z "/>
                <path class="typst-shape" fill="#fce6d0" fill-rule="nonzero" stroke="#f28e2b" stroke-width="1.2" stroke-linecap="butt" stroke-linejoin="miter" stroke-miterlimit="4" transform="matrix(1 0 0 1 23.244094488188978 36)" d="M 0 0m 16.440945 0 c -9.07185 0 -16.440945 7.3690944 -16.440945 16.440945 c 0 9.07185 7.3690944 16.440945 16.440945 16.440945 c 9.07185 0 16.440945 -7.369095 16.440945 -16.440945 c 0 -9.07185 -7.369095 -16.440945 -16.440945 -16.440945 Z "/>
                <path class="typst-shape" fill="#1a1a1a" fill-rule="nonzero" transform="matrix(1 0 0 1 14.74015748031496 26.929133858267715)" d="M 0 0m 2.8346457 0 c -1.5641122 0 -2.8346457 1.2705336 -2.8346457 2.8346457 c 0 1.5641122 1.2705336 2.8346457 2.8346457 2.8346457 c 1.5641122 0 2.8346457 -1.2705336 2.8346457 -2.8346457 c 0 -1.5641122 -1.2705336 -2.8346457 -2.8346457 -2.8346457 Z "/>
                <path class="typst-shape" fill="#1a1a1a" fill-rule="nonzero" transform="matrix(1 0 0 1 28.34645669291338 21.259842519685037)" d="M 0 0m 2.8346457 0 c -1.5641122 0 -2.8346457 1.2705336 -2.8346457 2.8346457 c 0 1.5641122 1.2705336 2.8346457 2.8346457 2.8346457 c 1.5641122 0 2.8346457 -1.2705336 2.8346457 -2.8346457 c 0 -1.5641122 -1.2705336 -2.8346457 -2.8346457 -2.8346457 Z "/>
                <path class="typst-shape" fill="#1a1a1a" fill-rule="nonzero" transform="matrix(1 0 0 1 58.960629921259844 26.929133858267715)" d="M 0 0m 2.8346457 0 c -1.5641122 0 -2.8346457 1.2705336 -2.8346457 2.8346457 c 0 1.5641122 1.2705336 2.8346457 2.8346457 2.8346457 c 1.5641122 0 2.8346457 -1.2705336 2.8346457 -2.8346457 c 0 -1.5641122 -1.2705336 -2.8346457 -2.8346457 -2.8346457 Z "/>
                <path class="typst-shape" fill="#1a1a1a" fill-rule="nonzero" transform="matrix(1 0 0 1 25.511811023622045 42.51968503937008)" d="M 0 0m 2.8346457 0 c -1.5641122 0 -2.8346457 1.2705336 -2.8346457 2.8346457 c 0 1.5641122 1.2705336 2.8346457 2.8346457 2.8346457 c 1.5641122 0 2.8346457 -1.2705336 2.8346457 -2.8346457 c 0 -1.5641122 -1.2705336 -2.8346457 -2.8346457 -2.8346457 Z "/>
                <path class="typst-shape" fill="#1a1a1a" fill-rule="nonzero" transform="matrix(1 0 0 1 36.85039370078739 35.43307086614173)" d="M 0 0m 2.8346457 0 c -1.5641122 0 -2.8346457 1.2705336 -2.8346457 2.8346457 c 0 1.5641122 1.2705336 2.8346457 2.8346457 2.8346457 c 1.5641122 0 2.8346457 -1.2705336 2.8346457 -2.8346457 c 0 -1.5641122 -1.2705336 -2.8346457 -2.8346457 -2.8346457 Z "/>
                <path class="typst-shape" fill="#1a1a1a" fill-rule="nonzero" transform="matrix(1 0 0 1 48.188976377952756 42.51968503937008)" d="M 0 0m 2.8346457 0 c -1.5641122 0 -2.8346457 1.2705336 -2.8346457 2.8346457 c 0 1.5641122 1.2705336 2.8346457 2.8346457 2.8346457 c 1.5641122 0 2.8346457 -1.2705336 2.8346457 -2.8346457 c 0 -1.5641122 -1.2705336 -2.8346457 -2.8346457 -2.8346457 Z "/>
                <path class="typst-shape" fill="#1a1a1a" fill-rule="nonzero" transform="matrix(1 0 0 1 31.181102362204722 55.275590551181104)" d="M 0 0m 2.8346457 0 c -1.5641122 0 -2.8346457 1.2705336 -2.8346457 2.8346457 c 0 1.5641122 1.2705336 2.8346457 2.8346457 2.8346457 c 1.5641122 0 2.8346457 -1.2705336 2.8346457 -2.8346457 c 0 -1.5641122 -1.2705336 -2.8346457 -2.8346457 -2.8346457 Z "/>
                <path class="typst-shape" fill="#1a1a1a" fill-rule="nonzero" transform="matrix(1 0 0 1 45.35433070866141 56.69291338582677)" d="M 0 0m 2.8346457 0 c -1.5641122 0 -2.8346457 1.2705336 -2.8346457 2.8346457 c 0 1.5641122 1.2705336 2.8346457 2.8346457 2.8346457 c 1.5641122 0 2.8346457 -1.2705336 2.8346457 -2.8346457 c 0 -1.5641122 -1.2705336 -2.8346457 -2.8346457 -2.8346457 Z "/>
            </g>
        </g>
    </g>
</svg>
