<svg class="typst-doc" viewBox="0 0 81.37007874015748 81.37007874015748" width="81.37007874015748pt" height="81.37007874015748pt" xmlns="http://www.w3.org/2000/svg" xmlns:xlink="http://www.w3.org/1999/xlink" xmlns:h5="http://www.w3.org/1999/xhtml">
    <g>
        <g class="typst-group" transform="matrix(1 0 0 1 1 1)">
            <g>
                <path class="typst-shape" fill="#f6f9fe" fill-rule="nonzero" stroke="#aac4e9" stroke-width="2" stroke-linecap="butt" stroke-linejoin="miter" stroke-miterlimit="4" d="M 0 0m 39.68504 0 c -21.89757 0 -39.68504 17.78747 -39.68504 39.68504 c 0 21.897568 17.78747 39.68504 39.68504 39.68504 c 21.897568 0 39.68504 -17.787472 39.68504 -39.68504 c 0 -21.89757 -17.787472 -39.68504 -39.68504 -39.68504 Z "/>
                <path class="typst-shape" fill="none" stroke="#dcdcdc" stroke-width="0.4" stroke-linecap="butt" stroke-linejoin="miter" stroke-miterlimit="4" transform="matrix(1 0 0 1 39.68503937007874 14.173228346456689)" d="M 0 0l 26.929134 26.929134 "/>
                <path class="typst-shape" fill="none" stroke="#dcdcdc" stroke-width="0.4" stroke-linecap="butt" stroke-linejoin="miter" stroke-miterlimit="4" transform="matrix(1 0 0 1 17.007874015748026 14.173228346456689)" d="M 0 0m 22.677166 0 l -22.677166 36.850395 "/>
                <path class="typst-shape" fill="none" stroke="#dcdcdc" stroke-width="0.4" stroke-linecap="butt" stroke-linejoin="miter" stroke-miterlimit="4" transform="matrix(1 0 0 1 34.01574803149607 24.094488188976374)" d="M 0 0m 24.094488 0 l -24.094488 41.102364 "/>
                <path class="typst-shape" fill="none" stroke="#dcdcdc" stroke-width="0.4" stroke-linecap="butt" stroke-linejoin="miter" stroke-miterlimit="4" transform="matrix(1 0 0 1 14.173228346456689 31.181102362204722)" d="M 0 0m 52.440945 9.92126 l -52.440945 -9.92126 "/>
                <path class="typst-shape" fill="none" stroke="#dcdcdc" stroke-width="0.4" stroke-linecap="butt" stroke-linejoin="miter" stroke-miterlimit="4" transform="matrix(1 0 0 1 14.173228346456689 31.181102362204722)" d="M 0 0m 39.68504 28.346457 l -39.68504 -28.346457 "/>
                <path class="typst-shape" fill="none" stroke="#dcdcdc" stroke-width="0.4" stroke-linecap="butt" stroke-linejoin="miter" stroke-miterlimit="4" transform="matrix(1 0 0 1 26.929133858267715 19.84251968503937)" d="M 0 0m 26.929134 39.68504 l -26.929134 -39.68504 "/>
                <path class="typst-shape" fill="none" stroke="#dcdcdc" stroke-width="0.4" stroke-linecap="butt" stroke-linejoin="miter" stroke-miterlimit="4" transform="matrix(1 0 0 1 17.007874015748026 24.094488188976374)" d="M 0 0m 0 26.929134 l 41.102364 -26.929134 "/>
                <path class="typst-shape" fill="none" stroke="#dcdcdc" stroke-width="0.4" stroke-linecap="butt" stroke-linejoin="miter" stroke-miterlimit="4" transform="matrix(1 0 0 1 26.929133858267715 19.84251968503937)" d="M 0 0m 7.086614 45.354332 l -7.086614 -45.354332 "/>
                <path class="typst-shape" fill="none" stroke="#4e79a7" stroke-width="1" stroke-linecap="butt" stroke-linejoin="miter" stroke-miterlimit="4" stroke-dashoffset="0" stroke-dasharray="3 2" transform="matrix(1 0 0 1 39.68503937007874 14.173228346456689)" d="M 0 0l 18.425198 9.92126 "/>
                <path class="typst-shape" fill="none" stroke="#4e79a7" stroke-width="1" stroke-linecap="butt" stroke-linejoin="miter" stroke-miterlimit="4" stroke-dashoffset="0" stroke-dasharray="3 2" transform="matrix(1 0 0 1 58.11023622047244 24.094488188976374)" d="M 0 0l 8.503937 17.007874 "/>
                <path class="typst-shape" fill="none" stroke="#4e79a7" stroke-width="1" stroke-linecap="butt" stroke-linejoin="miter" stroke-miterlimit="4" stroke-dashoffset="0" stroke-dasharray="3 2" transform="matrix(1 0 0 1 53.85826771653543 41.10236220472441)" d="M 0 0m 12.755905 0 l -12.755905 18.425198 "/>
                <path class="typst-shape" fill="none" stroke="#4e79a7" stroke-width="1" stroke-linecap="butt" stroke-linejoin="miter" stroke-miterlimit="4" stroke-dashoffset="0" stroke-dasharray="3 2" transform="matrix(1 0 0 1 34.01574803149607 59.527559055118104)" d="M 0 0m 19.84252 0 l -19.84252 5.6692915 "/>
                <path class="typst-shape" fill="none" stroke="#4e79a7" stroke-width="1" stroke-linecap="butt" stroke-linejoin="miter" stroke-miterlimit="4" stroke-dashoffset="0" stroke-dasharray="3 2" transform="matrix(1 0 0 1 17.007874015748026 51.02362204724409)" d="M 0 0m 17.007874 14.173228 l -17.007874 -14.173228 "/>
                <path class="typst-shape" fill="none" stroke="#4e79a7" stroke-width="1" stroke-linecap="butt" stroke-linejoin="miter" stroke-miterlimit="4" stroke-dashoffset="0" stroke-dasharray="3 2" transform="matrix(1 0 0 1 14.173228346456689 31.181102362204722)" d="M 0 0m 2.8346457 19.84252 l -2.8346457 -19.84252 "/>
                <path class="typst-shape" fill="none" stroke="#4e79a7" stroke-width="1" stroke-linecap="butt" stroke-linejoin="miter" stroke-miterlimit="4" stroke-dashoffset="0" stroke-dasharray="3 2" transform="matrix(1 0 0 1 14.173228346456689 19.84251968503937)" d="M 0 0m 0 11.338583 l 12.755905 -11.338583 "/>
                <path class="typst-shape" fill="none" stroke="#4e79a7" stroke-width="1" stroke-linecap="butt" stroke-linejoin="miter" stroke-miterlimit="4" stroke-dashoffset="0" stroke-dasharray="3 2" transform="matrix(1 0 0 1 26.929133858267715 14.173228346456689)" d="M 0 0m 0 5.6692915 l 12.755905 -5.6692915 "/>
                <path class="typst-shape" fill="#ffffff" fill-rule="nonzero" stroke="#1a1a1a" stroke-width="0.6" stroke-linecap="butt" stroke-linejoin="miter" stroke-miterlimit="4" transform="matrix(1 0 0 1 36.85039370078739 11.338582677165352)" d="M 0 0m 2.8346457 0 c -1.5641122 0 -2.8346457 1.2705336 -2.8346457 2.8346457 c 0 1.5641122 1.2705336 2.8346457 2.8346457 2.8346457 c 1.5641122 0 2.8346457 -1.2705336 2.8346457 -2.8346457 c 0 -1.5641122 -1.2705336 -2.8346457 -2.8346457 -2.8346457 Z "/>
                <path class="typst-shape" fill="#ffffff" fill-rule="nonzero" stroke="#1a1a1a" stroke-width="0.6" stroke-linecap="butt" stroke-linejoin="miter" stroke-miterlimit="4" transform="matrix(1 0 0 1 55.275590551181104 21.259842519685037)" d="M 0 0m 2.8346457 0 c -1.5641122 0 -2.8346457 1.2705336 -2.8346457 2.8346457 c 0 1.5641122 1.2705336 2.8346457 2.8346457 2.8346457 c 1.5641122 0 2.8346457 -1.2705336 2.8346457 -2.8346457 c 0 -1.5641122 -1.2705336 -2.8346457 -2.8346457 -2.8346457 Z "/>
                <path class="typst-shape" fill="#ffffff" fill-rule="nonzero" stroke="#1a1a1a" stroke-width="0.6" stroke-linecap="butt" stroke-linejoin="miter" stroke-miterlimit="4" transform="matrix(1 0 0 1 63.77952755905512 38.26771653543307)" d="M 0 0m 2.8346457 0 c -1.5641122 0 -2.8346457 1.2705336 -2.8346457 2.8346457 c 0 1.5641122 1.2705336 2.8346457 2.8346457 2.8346457 c 1.5641122 0 2.8346457 -1.2705336 2.8346457 -2.8346457 c 0 -1.5641122 -1.2705336 -2.8346457 -2.8346457 -2.8346457 Z "/>
                <path class="typst-shape" fill="#ffffff" fill-rule="nonzero" stroke="#1a1a1a" stroke-width="0.6" stroke-linecap="butt" stroke-linejoin="miter" stroke-miterlimit="4" transform="matrix(1 0 0 1 51.02362204724409 56.69291338582677)" d="M 0 0m 2.8346457 0 c -1.5641122 0 -2.8346457 1.2705336 -2.8346457 2.8346457 c 0 1.5641122 1.2705336 2.8346457 2.8346457 2.8346457 c 1.5641122 0 2.8346457 -1.2705336 2.8346457 -2.8346457 c 0 -1.5641122 -1.2705336 -2.8346457 -2.8346457 -2.8346457 Z "/>
                <path class="typst-shape" fill="#ffffff" fill-rule="nonzero" stroke="#1a1a1a" stroke-width="0.6" stroke-linecap="butt" stroke-linejoin="miter" stroke-miterlimit="4" transform="matrix(1 0 0 1 31.181102362204722 62.36220472440946)" d="M 0 0m 2.8346457 0 c -1.5641122 0 -2.8346457 1.2705336 -2.8346457 2.8346457 c 0 1.5641122 1.2705336 2.8346457 2.8346457 2.8346457 c 1.5641122 0 2.8346457 -1.2705336 2.8346457 -2.8346457 c 0 -1.5641122 -1.2705336 -2.8346457 -2.8346457 -2.8346457 Z "/>
                <path class="typst-shape" fill="#ffffff" fill-rule="nonzero" stroke="#1a1a1a" stroke-width="0.6" stroke-linecap="butt" stroke-linejoin="miter" stroke-miterlimit="4" transform="matrix(1 0 0 1 14.173228346456689 48.188976377952756)" d="M 0 0m 2.8346457 0 c -1.5641122 0 -2.8346457 1.2705336 -2.8346457 2.8346457 c 0 1.5641122 1.2705336 2.8346457 2.8346457 2.8346457 c 1.5641122 0 2.8346457 -1.2705336 2.8346457 -2.8346457 c 0 -1.5641122 -1.2705336 -2.8346457 -2.8346457 -2.8346457 Z "/>
                <path class="typst-shape" fill="#ffffff" fill-rule="nonzero" stroke="#1a1a1a" stroke-width="0.6" stroke-linecap="butt" stroke-linejoin="miter" stroke-miterlimit="4" transform="matrix(1 0 0 1 11.338582677165352 28.34645669291338)" d="M 0 0m 2.8346457 0 c -1.5641122 0 -2.8346457 1.2705336 -2.8346457 2.8346457 c 0 1.5641122 1.2705336 2.8346457 2.8346457 2.8346457 c 1.5641122 0 2.8346457 -1.2705336 2.8346457 -2.8346457 c 0 -1.5641122 -1.2705336 -2.8346457 -2.8346457 -2.8346457 Z "/>
                <path class="typst-shape" fill="#ffffff" fill-rule="nonzero" stroke="#1a1a1a" stroke-width="0.6" stroke-linecap="butt" stroke-linejoin="miter" stroke-miterlimit="4" transform="matrix(1 0 0 1 24.094488188976374 17.007874015748033)" d="M 0 0m 2.8346457 0 c -1.5641122 0 -2.8346457 1.2705336 -2.8346457 2.8346457 c 0 1.5641122 1.2705336 2.8346457 2.8346457 2.8346457 c 1.5641122 0 2.8346457 -1.2705336 2.8346457 -2.8346457 c 0 -1.5641122 -1.2705336 -2.8346457 -2.8346457 -2.8346457 Z "/>
            </g>
        </g>
    </g>
</svg>
