<svg class="typst-doc" viewBox="0 0 81.37007874015748 81.37007874015748" width="81.37007874015748pt" height="81.37007874015748pt" xmlns="http://www.w3.org/2000/svg" xmlns:xlink="http://www.w3.org/1999/xlink" xmlns:h5="http://www.w3.org/1999/xhtml">
    <g>
        <g class="typst-group" transform="matrix(1 0 0 1 1 1)">
            <g>
                <path class="typst-shape" fill="#ffffff" fill-rule="nonzero" stroke="#aac4e9" stroke-width="2" stroke-linecap="butt" stroke-linejoin="miter" stroke-miterlimit="4" d="M 0 0m 39.68504 0 c -21.89757 0 -39.68504 17.78747 -39.68504 39.68504 c 0 21.897568 17.78747 39.68504 39.68504 39.68504 c 21.897568 0 39.68504 -17.787472 39.68504 -39.68504 c 0 -21.89757 -17.787472 -39.68504 -39.68504 -39.68504 Z "/>
                <path class="typst-shape" fill="none" stroke="#4e79a7" stroke-width="1.4" stroke-linecap="round" stroke-linejoin="round" stroke-miterlimit="4" transform="matrix(1 0 0 1 12.755905511811022 15.590551181102361)" d="M 0 0m 21.259842 0 l 25.51181 8.503937 l 7.0866165 18.425198 l -15.590553 19.842518 l -26.929132 -2.8346443 l -11.338583 -21.259842 l 25.51181 -1.4173241 l -4.2519684 -21.259842 "/>
                <path class="typst-shape" fill="#4e79a7" fill-rule="nonzero" stroke="#3b5b7d" stroke-width="0.6" stroke-linecap="butt" stroke-linejoin="miter" stroke-miterlimit="4" transform="matrix(1 0 0 1 30.897637795275585 12.472440944881887)" d="M 0 0m 3.1181102 0 c -1.7205232 0 -3.1181102 1.397587 -3.1181102 3.1181102 c 0 1.7205234 1.397587 3.1181102 3.1181102 3.1181102 c 1.7205234 0 3.1181102 -1.3975868 3.1181102 -3.1181102 c 0 -1.7205232 -1.3975868 -3.1181102 -3.1181102 -3.1181102 Z "/>
                <path class="typst-shape" fill="#4e79a7" fill-rule="nonzero" stroke="#3b5b7d" stroke-width="0.6" stroke-linecap="butt" stroke-linejoin="miter" stroke-miterlimit="4" transform="matrix(1 0 0 1 56.40944881889763 20.9763779527559)" d="M 0 0m 3.1181102 0 c -1.7205232 0 -3.1181102 1.397587 -3.1181102 3.1181102 c 0 1.7205234 1.397587 3.1181102 3.1181102 3.1181102 c 1.7205234 0 3.1181102 -1.3975868 3.1181102 -3.1181102 c 0 -1.7205232 -1.3975868 -3.1181102 -3.1181102 -3.1181102 Z "/>
                <path class="typst-shape" fill="#4e79a7" fill-rule="nonzero" stroke="#3b5b7d" stroke-width="0.6" stroke-linecap="butt" stroke-linejoin="miter" stroke-miterlimit="4" transform="matrix(1 0 0 1 63.49606299212598 39.40157480314961)" d="M 0 0m 3.1181102 0 c -1.7205232 0 -3.1181102 1.397587 -3.1181102 3.1181102 c 0 1.7205234 1.397587 3.1181102 3.1181102 3.1181102 c 1.7205234 0 3.1181102 -1.3975868 3.1181102 -3.1181102 c 0 -1.7205232 -1.3975868 -3.1181102 -3.1181102 -3.1181102 Z "/>
                <path class="typst-shape" fill="#4e79a7" fill-rule="nonzero" stroke="#3b5b7d" stroke-width="0.6" stroke-linecap="butt" stroke-linejoin="miter" stroke-miterlimit="4" transform="matrix(1 0 0 1 47.90551181102362 59.24409448818897)" d="M 0 0m 3.1181102 0 c -1.7205232 0 -3.1181102 1.397587 -3.1181102 3.1181102 c 0 1.7205234 1.397587 3.1181102 3.1181102 3.1181102 c 1.7205234 0 3.1181102 -1.3975868 3.1181102 -3.1181102 c 0 -1.7205232 -1.3975868 -3.1181102 -3.1181102 -3.1181102 Z "/>
                <path class="typst-shape" fill="#4e79a7" fill-rule="nonzero" stroke="#3b5b7d" stroke-width="0.6" stroke-linecap="butt" stroke-linejoin="miter" stroke-miterlimit="4" transform="matrix(1 0 0 1 20.9763779527559 56.40944881889763)" d="M 0 0m 3.1181102 0 c -1.7205232 0 -3.1181102 1.397587 -3.1181102 3.1181102 c 0 1.7205234 1.397587 3.1181102 3.1181102 3.1181102 c 1.7205234 0 3.1181102 -1.3975868 3.1181102 -3.1181102 c 0 -1.7205232 -1.3975868 -3.1181102 -3.1181102 -3.1181102 Z "/>
                <path class="typst-shape" fill="#4e79a7" fill-rule="nonzero" stroke="#3b5b7d" stroke-width="0.6" stroke-linecap="butt" stroke-linejoin="miter" stroke-miterlimit="4" transform="matrix(1 0 0 1 9.637795275590548 35.1496062992126)" d="M 0 0m 3.1181102 0 c -1.7205232 0 -3.1181102 1.397587 -3.1181102 3.1181102 c 0 1.7205234 1.397587 3.1181102 3.1181102 3.1181102 c 1.7205234 0 3.1181102 -1.3975868 3.1181102 -3.1181102 c 0 -1.7205232 -1.3975868 -3.1181102 -3.1181102 -3.1181102 Z "/>
                <path class="typst-shape" fill="#4e79a7" fill-rule="nonzero" stroke="#3b5b7d" stroke-width="0.6" stroke-linecap="butt" stroke-linejoin="miter" stroke-miterlimit="4" transform="matrix(1 0 0 1 35.1496062992126 33.732283464566926)" d="M 0 0m 3.1181102 0 c -1.7205232 0 -3.1181102 1.397587 -3.1181102 3.1181102 c 0 1.7205234 1.397587 3.1181102 3.1181102 3.1181102 c 1.7205234 0 3.1181102 -1.3975868 3.1181102 -3.1181102 c 0 -1.7205232 -1.3975868 -3.1181102 -3.1181102 -3.1181102 Z "/>
            </g>
        </g>
    </g>
</svg>
