<svg class="typst-doc" viewBox="0 0 81.37007874015748 81.37007874015748" width="81.37007874015748pt" height="81.37007874015748pt" xmlns="http://www.w3.org/2000/svg" xmlns:xlink="http://www.w3.org/1999/xlink" xmlns:h5="http://www.w3.org/1999/xhtml">
    <g>
        <g class="typst-group" transform="matrix(1 0 0 1 1 1)">
            <g>
                <path class="typst-shape" fill="#f6f9fe" fill-rule="nonzero" stroke="#aac4e9" stroke-width="1" stroke-linecap="butt" stroke-linejoin="miter" stroke-miterlimit="4" d="M 0 0m 39.68504 0 c -21.89757 0 -39.68504 17.78747 -39.68504 39.68504 c 0 21.897568 17.78747 39.68504 39.68504 39.68504 c 21.897568 0 39.68504 -17.787472 39.68504 -39.68504 c 0 -21.89757 -17.787472 -39.68504 -39.68504 -39.68504 Z "/>
                <path class="typst-shape" fill="none" stroke="#4e79a7" stroke-width="0.9" stroke-linecap="butt" stroke-linejoin="miter" stroke-miterlimit="4" stroke-dashoffset="0" stroke-dasharray="3 2" transform="matrix(1 0 0 1 39.68503937007874 15.590551181102361)" d="M 0 0l 20.865828 12.047244 "/>
                <path class="typst-shape" fill="none" stroke="#4e79a7" stroke-width="0.9" stroke-linecap="butt" stroke-linejoin="miter" stroke-miterlimit="4" stroke-dashoffset="0" stroke-dasharray="3 2" transform="matrix(1 0 0 1 60.550866141732286 27.63779527559055)" d="M 0 0v 24.094488 "/>
                <path class="typst-shape" fill="none" stroke="#4e79a7" stroke-width="0.9" stroke-linecap="butt" stroke-linejoin="miter" stroke-miterlimit="4" stroke-dashoffset="0" stroke-dasharray="3 2" transform="matrix(1 0 0 1 39.68503937007874 51.732283464566926)" d="M 0 0m 20.865828 0 l -20.865828 12.047244 "/>
                <path class="typst-shape" fill="none" stroke="#4e79a7" stroke-width="0.9" stroke-linecap="butt" stroke-linejoin="miter" stroke-miterlimit="4" stroke-dashoffset="0" stroke-dasharray="3 2" transform="matrix(1 0 0 1 18.819212598425196 51.732283464566926)" d="M 0 0m 20.865828 12.047244 l -20.865828 -12.047244 "/>
                <path class="typst-shape" fill="none" stroke="#4e79a7" stroke-width="0.9" stroke-linecap="butt" stroke-linejoin="miter" stroke-miterlimit="4" stroke-dashoffset="0" stroke-dasharray="3 2" transform="matrix(1 0 0 1 18.819212598425196 27.63779527559055)" d="M 0 0m 0 24.094488 v -24.094488 "/>
                <path class="typst-shape" fill="none" stroke="#4e79a7" stroke-width="0.9" stroke-linecap="butt" stroke-linejoin="miter" stroke-miterlimit="4" stroke-dashoffset="0" stroke-dasharray="3 2" transform="matrix(1 0 0 1 18.819212598425196 15.590551181102361)" d="M 0 0m 0 12.047244 l 20.865828 -12.047244 "/>
                <path class="typst-shape" fill="#ffffff" fill-rule="nonzero" stroke="#1a1a1a" stroke-width="0.6" stroke-linecap="butt" stroke-linejoin="miter" stroke-miterlimit="4" transform="matrix(1 0 0 1 36.56692913385826 12.472440944881887)" d="M 0 0m 3.1181102 0 c -1.7205232 0 -3.1181102 1.397587 -3.1181102 3.1181102 c 0 1.7205234 1.397587 3.1181102 3.1181102 3.1181102 c 1.7205234 0 3.1181102 -1.3975868 3.1181102 -3.1181102 c 0 -1.7205232 -1.3975868 -3.1181102 -3.1181102 -3.1181102 Z "/>
                <path class="typst-shape" fill="#ffffff" fill-rule="nonzero" stroke="#1a1a1a" stroke-width="0.6" stroke-linecap="butt" stroke-linejoin="miter" stroke-miterlimit="4" transform="matrix(1 0 0 1 57.43275590551181 24.519685039370074)" d="M 0 0m 3.1181102 0 c -1.7205232 0 -3.1181102 1.397587 -3.1181102 3.1181102 c 0 1.7205234 1.397587 3.1181102 3.1181102 3.1181102 c 1.7205234 0 3.1181102 -1.3975868 3.1181102 -3.1181102 c 0 -1.7205232 -1.3975868 -3.1181102 -3.1181102 -3.1181102 Z "/>
                <path class="typst-shape" fill="#ffffff" fill-rule="nonzero" stroke="#1a1a1a" stroke-width="0.6" stroke-linecap="butt" stroke-linejoin="miter" stroke-miterlimit="4" transform="matrix(1 0 0 1 57.43275590551181 48.61417322834645)" d="M 0 0m 3.1181102 0 c -1.7205232 0 -3.1181102 1.397587 -3.1181102 3.1181102 c 0 1.7205234 1.397587 3.1181102 3.1181102 3.1181102 c 1.7205234 0 3.1181102 -1.3975868 3.1181102 -3.1181102 c 0 -1.7205232 -1.3975868 -3.1181102 -3.1181102 -3.1181102 Z "/>
                <path class="typst-shape" fill="#ffffff" fill-rule="nonzero" stroke="#1a1a1a" stroke-width="0.6" stroke-linecap="butt" stroke-linejoin="miter" stroke-miterlimit="4" transform="matrix(1 0 0 1 36.56692913385826 60.66141732283464)" d="M 0 0m 3.1181102 0 c -1.7205232 0 -3.1181102 1.397587 -3.1181102 3.1181102 c 0 1.7205234 1.397587 3.1181102 3.1181102 3.1181102 c 1.7205234 0 3.1181102 -1.3975868 3.1181102 -3.1181102 c 0 -1.7205232 -1.3975868 -3.1181102 -3.1181102 -3.1181102 Z "/>
                <path class="typst-shape" fill="#ffffff" fill-rule="nonzero" stroke="#1a1a1a" stroke-width="0.6" stroke-linecap="butt" stroke-linejoin="miter" stroke-miterlimit="4" transform="matrix(1 0 0 1 15.701102362204722 48.61417322834645)" d="M 0 0m 3.1181102 0 c -1.7205232 0 -3.1181102 1.397587 -3.1181102 3.1181102 c 0 1.7205234 1.397587 3.1181102 3.1181102 3.1181102 c 1.7205234 0 3.1181102 -1.3975868 3.1181102 -3.1181102 c 0 -1.7205232 -1.3975868 -3.1181102 -3.1181102 -3.1181102 Z "/>
                <path class="typst-shape" fill="#ffffff" fill-rule="nonzero" stroke="#1a1a1a" stroke-width="0.6" stroke-linecap="butt" stroke-linejoin="miter" stroke-miterlimit="4" transform="matrix(1 0 0 1 15.701102362204722 24.519685039370074)" d="M 0 0m 3.1181102 0 c -1.7205232 0 -3.1181102 1.397587 -3.1181102 3.1181102 c 0 1.7205234 1.397587 3.1181102 3.1181102 3.1181102 c 1.7205234 0 3.1181102 -1.3975868 3.1181102 -3.1181102 c 0 -1.7205232 -1.3975868 -3.1181102 -3.1181102 -3.1181102 Z "/>
            </g>
        </g>
    </g>
</svg>
