<svg class="typst-doc" viewBox="0 0 38.01574803149607 42.267716535433074" width="38.01574803149607pt" height="42.267716535433074pt" xmlns="http://www.w3.org/2000/svg" xmlns:xlink="http://www.w3.org/1999/xlink" xmlns:h5="http://www.w3.org/1999/xhtml">
    <g>
        <g class="typst-group" transform="matrix(1 0 0 1 2 2)">
            <g>
                <path class="typst-shape" fill="#ede7ec" fill-rule="nonzero" stroke="#8a5f7e" stroke-width="1.4" stroke-linecap="round" stroke-linejoin="round" stroke-miterlimit="4" d="M 0 0h 22.677166 l 5.6692905 5.6692915 v 31.181103 h -28.346457 v -36.850395 Z "/>
                <path class="typst-shape" fill="none" stroke="#8a5f7e" stroke-width="1.4" stroke-linecap="round" stroke-linejoin="round" stroke-miterlimit="4" transform="matrix(1 0 0 1 22.677165354330707 0)" d="M 0 0v 5.6692915 h 5.6692915 "/>
                <path class="typst-shape" fill="none" stroke="#b07aa1" stroke-width="1.4" stroke-linecap="round" stroke-linejoin="miter" stroke-miterlimit="4" transform="matrix(1 0 0 1 5.669291338582677 9.921259842519687)" d="M 0 0h 14.173228 "/>
                <path class="typst-shape" fill="none" stroke="#b07aa1" stroke-width="1.4" stroke-linecap="round" stroke-linejoin="miter" stroke-miterlimit="4" transform="matrix(1 0 0 1 5.669291338582677 17.007874015748033)" d="M 0 0h 17.007874 "/>
                <path class="typst-shape" fill="none" stroke="#b07aa1" stroke-width="1.4" stroke-linecap="round" stroke-linejoin="miter" stroke-miterlimit="4" transform="matrix(1 0 0 1 5.669291338582677 24.09448818897638)" d="M 0 0h 11.338583 "/>
                <path class="typst-shape" fill="#ffffff" fill-rule="nonzero" stroke="#59a14f" stroke-width="1.6" stroke-linecap="round" stroke-linejoin="round" stroke-miterlimit="4" transform="matrix(1 0 0 1 19.84251968503937 24.09448818897638)" d="M 0 0m 7.086614 0 c -3.9102802 0 -7.086614 3.176334 -7.086614 7.086614 c 0 3.9102807 3.176334 7.086614 7.086614 7.086614 c 3.9102807 0 7.086614 -3.1763334 7.086614 -7.086614 c 0 -3.9102802 -3.1763334 -7.086614 -7.086614 -7.086614 Z "/>
                <path class="typst-shape" fill="none" stroke="#59a14f" stroke-width="1.6" stroke-linecap="round" stroke-linejoin="round" stroke-miterlimit="4" transform="matrix(1 0 0 1 23.244094488188978 28.346456692913385)" d="M 0 0m 0 2.8346457 l 2.551181 2.8346457 l 5.1023626 -5.6692915 "/>
            </g>
        </g>
    </g>
</svg>
