<svg class="typst-doc" viewBox="0 0 42.55118110236221 47.37007874015748" width="42.55118110236221pt" height="47.37007874015748pt" xmlns="http://www.w3.org/2000/svg" xmlns:xlink="http://www.w3.org/1999/xlink" xmlns:h5="http://www.w3.org/1999/xhtml">
    <g>
        <g class="typst-group" transform="matrix(1 0 0 1 2 2)">
            <g>
                <path class="typst-shape" fill="#ede7ec" fill-rule="nonzero" stroke="#8a5f7e" stroke-width="1.4" stroke-linecap="round" stroke-linejoin="round" stroke-miterlimit="4" d="M 0 0h 26.64567 l 6.2362194 6.2362204 v 36.283463 h -32.88189 v -42.519684 Z "/>
                <path class="typst-shape" fill="none" stroke="#8a5f7e" stroke-width="1.4" stroke-linecap="round" stroke-linejoin="round" stroke-miterlimit="4" transform="matrix(1 0 0 1 26.64566929133858 0)" d="M 0 0v 6.2362204 h 6.2362204 "/>
                <path class="typst-shape" fill="none" stroke="#b07aa1" stroke-width="1.4" stroke-linecap="round" stroke-linejoin="miter" stroke-miterlimit="4" transform="matrix(1 0 0 1 5.669291338582676 9.354330708661417)" d="M 0 0h 16.440945 "/>
                <path class="typst-shape" fill="none" stroke="#b07aa1" stroke-width="1.4" stroke-linecap="round" stroke-linejoin="miter" stroke-miterlimit="4" transform="matrix(1 0 0 1 5.669291338582676 16.15748031496063)" d="M 0 0h 19.27559 "/>
                <path class="typst-shape" fill="none" stroke="#b07aa1" stroke-width="1.4" stroke-linecap="round" stroke-linejoin="miter" stroke-miterlimit="4" transform="matrix(1 0 0 1 5.669291338582676 22.96062992125984)" d="M 0 0h 13.606299 "/>
                <path class="typst-shape" fill="none" stroke="#b07aa1" stroke-width="1.4" stroke-linecap="round" stroke-linejoin="miter" stroke-miterlimit="4" transform="matrix(1 0 0 1 5.669291338582676 29.763779527559056)" d="M 0 0h 16.440945 "/>
                <path class="typst-shape" fill="#ffffff" fill-rule="nonzero" stroke="#59a14f" stroke-width="1.6" stroke-linecap="round" stroke-linejoin="round" stroke-miterlimit="4" transform="matrix(1 0 0 1 22.677165354330704 27.496062992125985)" d="M 0 0m 7.937008 0 c -4.3795137 0 -7.937008 3.557494 -7.937008 7.937008 c 0 4.3795137 3.557494 7.937008 7.937008 7.937008 c 4.3795137 0 7.937008 -3.5574942 7.937008 -7.937008 c 0 -4.3795137 -3.5574942 -7.937008 -7.937008 -7.937008 Z "/>
                <path class="typst-shape" fill="none" stroke="#59a14f" stroke-width="1.6" stroke-linecap="round" stroke-linejoin="round" stroke-miterlimit="4" transform="matrix(1 0 0 1 26.362204724409448 32.031496062992126)" d="M 0 0m 0 3.4015749 l 3.1181102 3.4015749 l 5.669291 -6.8031497 "/>
            </g>
        </g>
    </g>
</svg>
